<svg width="965" height="209" viewBox="0 0 965 209" fill="none" xmlns="http://www.w3.org/2000/svg">
<g clip-path="url(#clip0_1195_232)">
<rect x="0.781738" y="0.425537" width="964.218" height="207.815" fill="#FC5A57" fill-opacity="0.1"/>
<g clip-path="url(#clip1_1195_232)">
<path d="M1043.63 223.175C1025.06 213.24 1005.84 202.968 981.706 202.968C957.573 202.968 938.356 213.233 919.772 223.175L919.155 222.229C937.844 212.221 957.232 201.868 981.723 201.868C1006.21 201.868 1025.55 212.221 1044.29 222.229L1043.63 223.175Z" fill="#FC5A57"/>
<path d="M794.669 223.175C776.085 213.24 756.876 202.968 732.743 202.968C708.609 202.968 689.392 213.233 670.808 223.175L670.191 222.229C688.88 212.221 708.268 201.868 732.759 201.868C757.25 201.868 776.581 212.221 795.327 222.229L794.669 223.175Z" fill="#FC5A57"/>
<path d="M1057.81 223.19C1053.03 220.829 1048.26 218.27 1043.63 215.799C1025.06 205.85 1005.87 195.584 981.706 195.584C957.541 195.584 938.356 205.85 919.74 215.799C915.124 218.27 910.346 220.829 905.56 223.19L904.975 222.222C909.737 219.869 914.507 217.317 919.122 214.853C937.811 204.845 957.199 194.492 981.69 194.492C1006.18 194.492 1025.52 204.845 1044.26 214.853C1048.87 217.324 1053.64 219.869 1058.4 222.222L1057.81 223.19Z" fill="#FC5A57"/>
<path d="M808.848 223.19C804.07 220.829 799.292 218.27 794.669 215.799C776.093 205.849 756.876 195.584 732.743 195.584C708.609 195.584 689.392 205.849 670.808 215.792C666.193 218.263 661.415 220.822 656.629 223.183L656.044 222.215C660.806 219.861 665.575 217.309 670.191 214.846C688.88 204.837 708.268 194.484 732.759 194.484C757.25 194.484 776.589 204.837 795.327 214.846C799.934 217.309 804.704 219.861 809.466 222.215L808.848 223.19Z" fill="#FC5A57"/>
<path d="M1075.05 223.219C1064.02 219.326 1053.66 213.783 1043.64 208.423C1025.06 198.517 1005.87 188.252 981.707 188.252C957.541 188.252 938.356 198.517 919.74 208.423C909.721 213.783 899.352 219.326 888.318 223.219L887.871 222.193C898.849 218.314 909.176 212.815 919.155 207.477C937.844 197.461 957.232 187.115 981.723 187.115C1006.21 187.115 1025.55 197.469 1044.29 207.477C1054.27 212.815 1064.61 218.336 1075.53 222.193L1075.05 223.219Z" fill="#FC5A57"/>
<path d="M826.099 223.219C815.056 219.325 804.696 213.782 794.669 208.422C776.093 198.517 756.876 188.251 732.743 188.251C708.609 188.251 689.392 198.517 670.808 208.459C660.854 213.746 650.559 219.252 639.597 223.138L639.159 222.119C650.023 218.262 660.285 212.778 670.191 207.455C688.88 197.439 708.268 187.093 732.759 187.093C757.25 187.093 776.589 197.446 795.327 207.455C805.305 212.792 815.641 218.313 826.57 222.17L826.099 223.219Z" fill="#FC5A57"/>
<path d="M857.22 221.407C832.746 221.407 813.39 211.054 794.652 201.046C776.077 191.111 756.86 180.831 732.726 180.831C708.593 180.831 689.376 191.096 670.792 201.046C660.854 206.369 650.559 211.876 639.597 215.762L639.159 214.735C650.023 210.886 660.285 205.401 670.191 200.071C688.88 190.055 708.268 179.702 732.759 179.702C757.25 179.702 776.589 190.055 795.327 200.071C813.902 210.006 833.111 220.278 857.253 220.278C881.395 220.278 900.604 210.013 919.187 200.071C937.876 190.055 957.264 179.702 981.755 179.702V180.802C957.614 180.802 938.405 191.067 919.821 201.017C901.051 211.054 881.695 221.407 857.22 221.407Z" fill="#FC5A57"/>
<path d="M857.22 214.031C832.746 214.031 813.39 203.678 794.652 193.67C776.077 183.727 756.86 173.455 732.726 173.455C708.593 173.455 689.376 183.72 670.792 193.67C660.854 198.993 650.559 204.499 639.597 208.385L639.159 207.359C650.023 203.51 660.285 198.025 670.191 192.695C688.88 182.679 708.268 172.326 732.759 172.326C757.25 172.326 776.589 182.679 795.327 192.695C813.902 202.63 833.111 212.902 857.253 212.902C881.395 212.902 900.604 202.637 919.187 192.695C937.876 182.679 957.264 172.326 981.755 172.326V173.426C957.614 173.426 938.405 183.691 919.821 193.64C901.051 203.649 881.695 214.031 857.22 214.031Z" fill="#FC5A57"/>
<path d="M857.22 206.655C832.746 206.655 813.39 196.302 794.652 186.294C776.077 176.351 756.86 166.079 732.726 166.079C708.593 166.079 689.376 176.344 670.792 186.286C660.854 191.617 650.559 197.123 639.597 201.009L639.159 199.983C650.023 196.126 660.285 190.649 670.191 185.319C688.88 175.31 708.268 164.957 732.759 164.957C757.25 164.957 776.589 175.31 795.327 185.319C813.902 195.261 833.111 205.533 857.253 205.533C881.395 205.533 900.604 195.268 919.187 185.319C937.876 175.31 957.264 164.957 981.755 164.957V166.057C957.614 166.057 938.405 176.322 919.821 186.272C901.051 196.317 881.695 206.655 857.22 206.655Z" fill="#FC5A57"/>
<path d="M857.22 199.25C832.746 199.25 813.39 188.897 794.652 178.881C776.077 168.946 756.86 158.674 732.726 158.674C708.593 158.674 689.376 168.939 670.792 178.881C660.854 184.234 650.559 189.718 639.597 193.626L639.159 192.607C650.023 188.75 660.285 183.266 670.191 177.943C688.88 167.934 708.268 157.581 732.759 157.581C757.25 157.581 776.589 167.934 795.327 177.943C813.902 187.878 833.111 198.157 857.253 198.157C881.395 198.157 900.604 187.892 919.187 177.943C937.876 167.934 957.264 157.581 981.755 157.581V158.681C957.614 158.681 938.405 168.946 919.821 178.888C901.051 188.926 881.695 199.25 857.22 199.25Z" fill="#FC5A57"/>
<path d="M857.22 191.918C832.746 191.918 813.39 181.565 794.652 171.549C776.077 161.614 756.86 151.341 732.726 151.341C708.593 151.341 689.376 161.606 670.792 171.549C660.854 176.857 650.559 182.386 639.597 186.25L639.159 185.231C650.023 181.374 660.285 175.89 670.191 170.566C688.88 160.558 708.268 150.205 732.759 150.205C757.25 150.205 776.589 160.558 795.327 170.566C813.902 180.501 833.111 190.781 857.253 190.781C881.395 190.781 900.604 180.516 919.187 170.566C937.876 160.558 957.264 150.205 981.755 150.205V151.305C957.614 151.305 938.405 161.57 919.821 171.512C901.051 181.55 881.695 191.918 857.22 191.918Z" fill="#FC5A57"/>
<path d="M857.22 184.519C832.746 184.519 813.39 174.166 794.652 164.158C776.077 154.223 756.86 143.943 732.726 143.943C708.593 143.943 689.376 154.208 670.792 164.158C660.854 169.481 650.559 174.988 639.597 178.874L639.159 177.855C650.023 173.998 660.285 168.513 670.191 163.19C688.88 153.174 708.268 142.821 732.759 142.821C757.25 142.821 776.589 153.174 795.327 163.19C813.902 173.125 833.111 183.398 857.253 183.398C881.395 183.398 900.604 173.133 919.187 163.19C937.876 153.174 957.264 142.821 981.755 142.821V143.921C957.614 143.921 938.405 154.186 919.821 164.136C901.051 174.166 881.695 184.519 857.22 184.519Z" fill="#FC5A57"/>
<path d="M857.22 177.143C832.746 177.143 813.39 166.79 794.652 156.781C776.077 146.846 756.86 136.566 732.726 136.566C708.593 136.566 689.376 146.831 670.792 156.781C660.854 162.104 650.559 167.611 639.597 171.497L639.159 170.47C650.023 166.621 660.285 161.137 670.191 155.806C688.88 145.79 708.268 135.437 732.759 135.437C757.25 135.437 776.589 145.79 795.327 155.806C813.902 165.741 833.111 176.014 857.253 176.014C881.395 176.014 900.604 165.749 919.187 155.806C937.876 145.79 957.264 135.437 981.755 135.437V136.537C957.614 136.537 938.405 146.802 919.821 156.752C901.051 166.79 881.695 177.143 857.22 177.143Z" fill="#FC5A57"/>
<path d="M857.22 169.767C832.746 169.767 813.39 159.414 794.652 149.406C776.077 139.463 756.86 129.191 732.726 129.191C708.593 129.191 689.376 139.456 670.792 149.406C660.854 154.729 650.559 160.235 639.597 164.121L639.159 163.095C650.023 159.238 660.285 153.761 670.191 148.431C688.88 138.422 708.268 128.069 732.759 128.069C757.25 128.069 776.589 138.422 795.327 148.431C813.902 158.373 833.111 168.645 857.253 168.645C881.395 168.645 900.604 158.38 919.187 148.431C937.876 138.422 957.264 128.069 981.755 128.069V129.169C957.614 129.169 938.405 139.434 919.821 149.384C901.051 159.414 881.695 169.767 857.22 169.767Z" fill="#FC5A57"/>
<path d="M857.22 162.391C832.746 162.391 813.39 152.038 794.652 142.022C776.077 132.087 756.86 121.815 732.726 121.815C708.593 121.815 689.392 132.087 670.808 142.059C660.854 147.353 650.559 152.859 639.597 156.723L639.159 155.697C650.023 151.84 660.285 146.356 670.191 141.032C688.88 131.024 708.268 120.671 732.759 120.671C757.25 120.671 776.589 131.024 795.327 141.032C813.902 150.975 833.111 161.247 857.253 161.247C881.395 161.247 900.604 150.982 919.187 141.032C937.876 131.024 957.264 120.671 981.755 120.671V121.771C957.614 121.771 938.405 132.036 919.821 141.978C901.051 152.038 881.695 162.391 857.22 162.391Z" fill="#FC5A57"/>
<path d="M857.22 155.015C832.746 155.015 813.39 144.662 794.652 134.646C776.077 124.711 756.86 114.438 732.726 114.438C708.593 114.438 689.376 124.704 670.792 134.646C660.854 139.969 650.559 145.476 639.597 149.391L639.159 148.372C650.023 144.515 660.285 139.031 670.191 133.707C688.88 123.699 708.268 113.346 732.759 113.346C757.25 113.346 776.589 123.699 795.327 133.707C813.902 143.643 833.111 153.922 857.253 153.922C881.395 153.922 900.604 143.657 919.187 133.707C937.876 123.699 957.264 113.346 981.755 113.346V114.446C957.614 114.446 938.405 124.711 919.821 134.653C901.051 144.662 881.695 155.015 857.22 155.015Z" fill="#FC5A57"/>
<path d="M857.22 147.639C832.746 147.639 813.39 137.286 794.652 127.27C776.077 117.335 756.86 107.062 732.726 107.062C708.593 107.062 689.376 117.328 670.792 127.27C660.854 132.593 650.559 138.1 639.597 141.986L639.159 140.967C650.023 137.11 660.285 131.625 670.191 126.302C688.88 116.286 708.268 105.941 732.759 105.941C757.25 105.941 776.589 116.294 795.327 126.302C813.902 136.237 833.111 146.517 857.253 146.517C881.395 146.517 900.604 136.252 919.187 126.302C937.876 116.294 957.264 105.941 981.755 105.941V107.041C957.614 107.041 938.405 117.306 919.821 127.248C901.051 137.286 881.695 147.639 857.22 147.639Z" fill="#FC5A57"/>
<path d="M857.22 140.255C832.746 140.255 813.39 129.902 794.652 119.894C776.077 109.958 756.86 99.6787 732.726 99.6787C708.593 99.6787 689.376 109.944 670.792 119.894C660.854 125.195 650.559 130.723 639.597 134.609L639.159 133.583C650.023 129.733 660.285 124.249 670.191 118.918C688.88 108.903 708.268 98.5496 732.759 98.5496C757.25 98.5496 776.589 108.903 795.327 118.918C813.87 128.861 833.079 139.126 857.22 139.126C881.362 139.126 900.571 128.861 919.155 118.918C937.844 108.903 957.232 98.5496 981.723 98.5496V99.6494C957.581 99.6494 938.372 109.914 919.788 119.864C901.051 129.902 881.695 140.255 857.22 140.255Z" fill="#FC5A57"/>
<path d="M857.22 132.879C832.746 132.879 813.39 122.526 794.652 112.518C776.077 102.582 756.86 92.3027 732.726 92.3027C708.593 92.3027 689.376 102.568 670.792 112.518C660.854 117.863 650.559 123.347 639.597 127.233L639.159 126.207C650.023 122.357 660.285 116.873 670.191 111.542C688.88 101.527 708.268 91.1736 732.759 91.1736C757.25 91.1736 776.589 101.527 795.327 111.542C813.87 121.529 833.079 131.794 857.22 131.794C881.362 131.794 900.571 121.529 919.155 111.586C937.844 101.571 957.232 91.2176 981.723 91.2176V92.3174C957.581 92.3174 938.372 102.582 919.788 112.532C901.051 122.526 881.695 132.879 857.22 132.879Z" fill="#FC5A57"/>
<path d="M857.22 125.503C832.746 125.503 813.39 115.15 794.652 105.134C776.077 95.1989 756.86 84.9265 732.726 84.9265C708.593 84.9265 689.376 95.1916 670.792 105.134C660.854 110.465 650.559 115.971 639.597 119.857L639.159 118.831C650.023 114.974 660.285 109.497 670.191 104.166C688.88 94.1577 708.268 83.8047 732.759 83.8047C757.25 83.8047 776.589 94.1577 795.327 104.166C813.902 114.109 833.111 124.381 857.253 124.381C881.395 124.381 900.604 114.116 919.187 104.166C937.876 94.1577 957.264 83.8047 981.755 83.8047V84.9045C957.614 84.9045 938.405 95.1696 919.821 105.112C901.051 115.15 881.695 125.503 857.22 125.503Z" fill="#FC5A57"/>
<path d="M857.22 118.127C832.746 118.127 813.39 107.774 794.652 97.7578C776.093 87.8007 756.876 77.5356 732.743 77.5356C708.609 77.5356 689.392 87.8007 670.808 97.7431C660.854 103.088 650.559 108.587 639.597 112.481L639.159 111.454C650.023 107.598 660.285 102.113 670.191 96.79C688.88 86.7815 708.268 76.4285 732.759 76.4285C757.25 76.4285 776.589 86.7815 795.327 96.79C813.902 106.725 833.111 117.005 857.253 117.005C881.395 117.005 900.604 106.74 919.187 96.79C937.876 86.7815 957.264 76.4285 981.755 76.4285V77.5356C957.614 77.5356 938.405 87.8007 919.821 97.7431C901.051 107.774 881.695 118.127 857.22 118.127Z" fill="#FC5A57"/>
<path d="M857.22 110.75C832.746 110.75 813.39 100.397 794.652 90.3816C776.093 80.4685 756.876 70.2034 732.743 70.2034C708.609 70.2034 689.392 80.4685 670.808 90.4109C660.854 95.7048 650.559 101.211 639.597 105.097L639.159 104.078C650.023 100.221 660.285 94.7369 670.191 89.4137C688.88 79.4053 708.268 69.0522 732.759 69.0522C757.25 69.0522 776.589 79.4053 795.327 89.4137C813.902 99.3489 833.111 109.629 857.253 109.629C881.395 109.629 900.604 99.3635 919.187 89.4137C937.876 79.4053 957.264 69.0522 981.755 69.0522V70.2034C957.614 70.2034 938.405 80.4685 919.821 90.4109C901.051 100.397 881.695 110.75 857.22 110.75Z" fill="#FC5A57"/>
<path d="M857.22 103.367C832.746 103.367 813.39 93.0212 794.652 83.0054C776.077 73.0703 756.86 62.7905 732.726 62.7905C708.593 62.7905 689.376 73.0556 670.792 83.0054C660.854 88.3286 650.559 93.835 639.597 97.7211L639.159 96.7019C650.023 92.8452 660.285 87.3607 670.191 82.0375C688.88 72.0218 708.268 61.6687 732.759 61.6687C757.25 61.6687 776.589 72.0218 795.327 82.0375C813.902 91.9727 833.111 102.245 857.253 102.245C881.395 102.245 900.604 91.98 919.187 82.0375C937.876 72.0218 957.264 61.6687 981.755 61.6687V62.7685C957.614 62.7685 938.405 73.0336 919.821 82.9834C901.051 93.0212 881.695 103.367 857.22 103.367Z" fill="#FC5A57"/>
<path d="M857.22 95.9904C832.746 95.9904 813.39 85.6374 794.652 75.6289C776.077 65.6938 756.86 55.4141 732.726 55.4141C708.593 55.4141 689.376 65.6791 670.792 75.6289C660.854 80.9521 650.559 86.4586 639.597 90.3446L639.159 89.3181C650.023 85.4687 660.285 79.9842 670.191 74.6537C688.88 64.638 708.268 54.2849 732.759 54.2849C757.25 54.2849 776.589 64.638 795.327 74.6537C813.902 84.5889 833.111 94.8613 857.253 94.8613C881.395 94.8613 900.604 84.5962 919.187 74.6537C937.876 64.638 957.264 54.2849 981.755 54.2849V55.3847C957.614 55.3847 938.405 65.6498 919.821 75.5996C901.051 85.6374 881.695 95.9904 857.22 95.9904Z" fill="#FC5A57"/>
<path d="M857.22 88.6144C832.746 88.6144 813.39 78.2614 794.652 68.2529C776.077 58.3105 756.86 48.0381 732.726 48.0381C708.593 48.0381 689.376 58.3032 670.792 68.2529C660.854 73.5761 650.559 79.0826 639.597 82.9687L639.159 81.9348C650.023 78.0854 660.285 72.6009 670.191 67.2704C688.88 57.262 708.268 46.9089 732.759 46.9089C757.25 46.9089 776.589 57.262 795.327 67.2778C813.902 77.2129 833.111 87.4853 857.253 87.4853C881.395 87.4853 900.604 77.2202 919.187 67.2778C937.876 57.262 957.264 46.9089 981.755 46.9089V48.0088C957.614 48.0088 938.405 58.2738 919.821 68.2236C901.051 78.2687 881.695 88.6144 857.22 88.6144Z" fill="#FC5A57"/>
<path d="M857.22 81.2379C832.746 81.2379 813.39 70.8849 794.652 60.8691C776.077 50.934 756.86 40.6616 732.726 40.6616C708.593 40.6616 689.376 50.9266 670.792 60.8691C660.854 66.1996 650.559 71.7061 639.597 75.5921L639.159 74.6023C650.023 70.7456 660.285 65.2684 670.191 59.9379C688.88 49.9295 708.268 39.5764 732.759 39.5764C757.25 39.5764 776.589 49.9295 795.327 59.9379C813.902 69.8804 833.111 80.1528 857.253 80.1528C881.395 80.1528 900.604 69.8877 919.187 59.9379C937.876 49.9295 957.264 39.5764 981.755 39.5764V40.6762C957.614 40.6762 938.405 50.9413 919.821 60.8838C901.051 70.8849 881.695 81.2379 857.22 81.2379Z" fill="#FC5A57"/>
<path d="M857.22 73.8696C832.746 73.8696 813.39 63.5165 794.652 53.5007C776.077 43.5656 756.86 33.2932 732.726 33.2932C708.593 33.2932 689.376 43.5583 670.792 53.5007C660.854 58.8166 650.559 64.3377 639.597 68.2091L639.159 67.19C650.023 63.3332 660.285 57.8487 670.191 52.5256C688.88 42.5171 708.268 32.1641 732.759 32.1641C757.25 32.1641 776.589 42.5171 795.327 52.5256C813.902 62.4607 833.111 72.7404 857.253 72.7404C881.395 72.7404 900.604 62.4754 919.187 52.5256C937.876 42.5171 957.264 32.1641 981.755 32.1641V33.2639C957.614 33.2639 938.405 43.529 919.821 53.4714C901.051 63.5092 881.695 73.8696 857.22 73.8696Z" fill="#FC5A57"/>
<path d="M857.22 66.486C832.746 66.486 813.39 56.133 794.652 46.1172C776.077 36.1821 756.86 25.9097 732.726 25.9097C708.593 25.9097 689.376 36.1747 670.792 46.1172C660.854 51.4404 650.559 56.9468 639.597 60.8329L639.159 59.8137C650.023 55.957 660.285 50.4725 670.191 45.1493C688.88 35.1409 708.268 24.7878 732.759 24.7878C757.25 24.7878 776.589 35.1409 795.327 45.1493C813.902 55.0845 833.111 65.3642 857.253 65.3642C881.395 65.3642 900.604 55.0991 919.187 45.1493C937.876 35.1409 957.264 24.7878 981.755 24.7878V25.8877C957.614 25.8877 938.405 36.1527 919.821 46.0952C901.051 56.133 881.695 66.486 857.22 66.486Z" fill="#FC5A57"/>
<path d="M857.22 59.1025C832.746 59.1025 813.39 48.7494 794.652 38.741C776.077 28.8059 756.86 18.5261 732.726 18.5261C708.593 18.5261 689.376 28.7912 670.792 38.741C660.854 44.0641 650.559 49.5706 639.597 53.4567L639.159 52.4375C650.023 48.5808 660.285 43.0963 670.191 37.7731C688.88 27.7574 708.268 17.4043 732.759 17.4043C757.25 17.4043 776.589 27.7574 795.327 37.7731C813.902 47.7082 833.111 57.9807 857.253 57.9807C881.395 57.9807 900.604 47.7156 919.187 37.7731C937.876 27.7574 957.264 17.4043 981.755 17.4043V18.5041C957.614 18.5041 938.405 28.7692 919.821 38.719C901.051 48.7494 881.695 59.1025 857.22 59.1025Z" fill="#FC5A57"/>
<path d="M857.22 51.7263C832.746 51.7263 813.39 41.3732 794.652 31.3648C776.077 21.4296 756.86 11.1499 732.726 11.1499C708.593 11.1499 689.392 21.4296 670.808 31.3428C660.854 36.6879 650.559 42.1944 639.597 46.0805L639.159 45.054C650.023 41.2046 660.285 35.7201 670.191 30.3896C688.88 20.3738 708.268 10.0208 732.759 10.0208C757.25 10.0208 776.589 20.3738 795.327 30.3896C813.902 40.3247 833.111 50.5971 857.253 50.5971C881.395 50.5971 900.604 40.332 919.187 30.3896C937.876 20.3738 957.264 10.0208 981.755 10.0208V11.1206C957.614 11.1206 938.405 21.3857 919.821 31.3354C901.051 41.3732 881.695 51.7263 857.22 51.7263Z" fill="#FC5A57"/>
<path d="M857.22 44.3503C832.746 44.3503 813.39 33.9972 794.652 23.9888C776.093 14.0463 756.876 3.7739 732.743 3.7739C708.609 3.7739 689.392 14.0463 670.808 24.0108C660.854 29.3119 650.559 34.8184 639.597 38.6751L639.159 37.6486C650.023 33.7992 660.285 28.3148 670.191 22.9842C688.912 13.0125 708.268 2.67407 732.743 2.67407C757.217 2.67407 776.573 13.0271 795.311 23.0429C813.886 32.978 833.095 43.2504 857.237 43.2504C881.378 43.2504 900.587 32.9854 919.171 23.0429C937.86 13.0271 957.248 2.67407 981.739 2.67407V3.7739C957.597 3.7739 938.388 14.039 919.805 23.9888C901.051 33.9972 881.695 44.3503 857.22 44.3503Z" fill="#FC5A57"/>
<path d="M857.22 36.9743C832.746 36.9743 813.39 26.6212 794.652 16.6055C776.093 6.67033 756.876 -3.60207 732.743 -3.60207C708.609 -3.60207 689.392 6.663 670.808 16.6055C660.854 21.936 650.559 27.4424 639.597 31.3432L639.159 30.3167C650.023 26.4599 660.285 20.9828 670.191 15.6523C688.88 5.64383 708.268 -4.70923 732.759 -4.70923C757.25 -4.70923 776.589 5.64383 795.327 15.6523C813.902 25.5947 833.111 35.8671 857.253 35.8671C881.395 35.8671 900.604 25.6021 919.187 15.6523C937.876 5.64383 957.264 -4.70923 981.755 -4.70923V-3.6094C957.614 -3.6094 938.405 6.65567 919.821 16.5981C901.051 26.6212 881.695 36.9743 857.22 36.9743Z" fill="#FC5A57"/>
<path d="M857.22 29.5976C832.746 29.5976 813.39 19.2445 794.652 9.22876C776.093 -0.706359 756.876 -10.9788 732.743 -10.9788C708.609 -10.9788 689.392 -0.706359 670.808 9.22876C660.854 14.5519 650.559 20.0584 639.597 23.9445L639.159 22.9253C650.023 19.0686 660.285 13.5841 670.191 8.26091C688.88 -1.74753 708.268 -12.1006 732.759 -12.1006C757.25 -12.1006 776.589 -1.74753 795.327 8.26091C813.902 18.196 833.111 28.4758 857.253 28.4758C881.395 28.4758 900.604 18.2107 919.187 8.26091C937.876 -1.74753 957.264 -12.1006 981.755 -12.1006V-11.0008C957.614 -11.0008 938.405 -0.735686 919.821 9.20677C901.051 19.2445 881.695 29.5976 857.22 29.5976Z" fill="#FC5A57"/>
<path d="M857.22 22.2214C832.746 22.2214 813.39 11.861 794.652 1.85257C784.69 -3.48526 774.371 -8.98441 763.425 -12.8631L763.864 -13.8896C774.907 -9.99625 785.267 -4.45311 795.286 0.906719C813.87 10.8125 833.079 21.1216 857.22 21.1216C881.362 21.1216 900.571 10.8565 919.155 0.906719C929.174 -4.45311 939.534 -9.99625 950.617 -13.8896L951.064 -12.8631C940.054 -8.98441 929.751 -3.48526 919.74 1.85257C901.051 11.8683 881.695 22.2214 857.22 22.2214Z" fill="#FC5A57"/>
<path d="M639.597 16.5683L639.159 15.5491C650.023 11.6924 660.285 6.2079 670.191 0.884722C680.096 -4.43845 690.594 -9.99625 701.613 -13.8896L702.06 -12.8631C691.106 -8.98441 680.787 -3.48527 670.808 1.85257C660.83 7.19041 650.559 12.6822 639.597 16.5683Z" fill="#FC5A57"/>
<path d="M857.22 14.8381C832.746 14.8381 813.39 4.48504 794.652 -5.52341C790.045 -7.99435 785.275 -10.5386 780.505 -12.8556L781.091 -13.8234C785.877 -11.4625 790.655 -8.90355 795.278 -6.4326C813.87 3.48053 833.079 13.7456 857.22 13.7456C881.362 13.7456 900.571 3.48053 919.155 -6.46926C923.77 -8.94021 928.548 -11.4991 933.334 -13.8601L933.919 -12.8923C929.149 -10.5386 924.388 -7.98702 919.772 -5.56007C901.051 4.48504 881.695 14.8381 857.22 14.8381Z" fill="#FC5A57"/>
<path d="M639.597 9.19209L639.159 8.16559C650.023 4.31619 660.285 -1.16829 670.183 -6.4988C674.806 -8.96975 679.584 -11.5287 684.37 -13.8896L684.955 -12.9218C680.185 -10.5682 675.416 -8.01656 670.808 -5.58961C660.854 -0.185779 650.559 5.30603 639.597 9.19209Z" fill="#FC5A57"/>
<path d="M857.22 7.46165C832.746 7.46165 813.39 -2.89141 794.652 -12.8999L795.278 -13.8457C813.854 -3.91058 833.063 6.36182 857.204 6.36182C881.346 6.36182 900.555 -3.90325 919.13 -13.8457L919.756 -12.8999C901.051 -2.89141 881.695 7.46165 857.22 7.46165Z" fill="#FC5A57"/>
<path d="M639.597 1.81638L639.159 0.789875C650.015 -3.05953 660.285 -8.53667 670.174 -13.8745L670.808 -12.936C660.846 -7.56882 650.551 -2.06968 639.597 1.81638Z" fill="#FC5A57"/>
</g>
<g clip-path="url(#clip2_1195_232)">
<path d="M399.847 222.706C381.334 212.777 362.181 202.511 338.129 202.511C314.077 202.511 294.924 212.77 276.403 222.706L275.787 221.761C294.414 211.759 313.737 201.412 338.145 201.412C362.554 201.412 381.828 211.759 400.503 221.761L399.847 222.706Z" fill="#FC5A57"/>
<path d="M151.72 222.706C133.199 212.777 114.054 202.511 90.0018 202.511C65.9496 202.511 46.7969 212.77 28.2758 222.706L27.6603 221.761C46.2867 211.759 65.6095 201.412 90.018 201.412C114.427 201.412 133.693 211.759 152.376 221.761L151.72 222.706Z" fill="#FC5A57"/>
<path d="M413.979 222.721C409.217 220.361 404.455 217.804 399.847 215.334C381.334 205.391 362.214 195.132 338.129 195.132C314.044 195.132 294.924 205.391 276.37 215.334C271.771 217.804 267.009 220.361 262.239 222.721L261.656 221.753C266.401 219.401 271.155 216.851 275.755 214.389C294.381 204.387 313.704 194.041 338.113 194.041C362.521 194.041 381.795 204.387 400.47 214.389C405.062 216.859 409.816 219.401 414.562 221.753L413.979 222.721Z" fill="#FC5A57"/>
<path d="M165.852 222.721C161.09 220.361 156.328 217.804 151.72 215.334C133.207 205.391 114.054 195.132 90.0019 195.132C65.9497 195.132 46.7969 205.391 28.2759 215.327C23.676 217.797 18.9141 220.354 14.1442 222.713L13.5611 221.746C18.3068 219.394 23.0605 216.844 27.6604 214.382C46.2867 204.38 65.6095 194.033 90.0181 194.033C114.427 194.033 133.701 204.38 152.376 214.382C156.968 216.844 161.721 219.394 166.467 221.746L165.852 222.721Z" fill="#FC5A57"/>
<path d="M431.163 222.75C420.166 218.859 409.84 213.319 399.855 207.963C381.334 198.063 362.213 187.805 338.129 187.805C314.044 187.805 294.924 198.063 276.37 207.963C266.385 213.319 256.051 218.859 245.054 222.75L244.608 221.724C255.549 217.848 265.842 212.352 275.787 207.018C294.414 197.008 313.736 186.669 338.145 186.669C362.554 186.669 381.828 197.015 400.503 207.018C410.448 212.352 420.749 217.87 431.641 221.724L431.163 222.75Z" fill="#FC5A57"/>
<path d="M183.044 222.749C172.039 218.859 161.713 213.319 151.72 207.962C133.207 198.063 114.054 187.804 90.0019 187.804C65.9496 187.804 46.7969 198.063 28.2758 207.999C18.3553 213.282 8.0946 218.785 -2.83014 222.669L-3.26746 221.65C7.56011 217.796 17.7884 212.315 27.6603 206.995C46.2867 196.986 65.6095 186.646 90.018 186.646C114.427 186.646 133.701 196.993 152.376 206.995C162.321 212.33 172.622 217.847 183.514 221.702L183.044 222.749Z" fill="#FC5A57"/>
<path d="M214.061 220.94C189.669 220.94 170.379 210.593 151.704 200.591C133.191 190.662 114.038 180.389 89.9857 180.389C65.9334 180.389 46.7807 190.648 28.2596 200.591C18.3553 205.911 8.09461 211.414 -2.83014 215.298L-3.26746 214.272C7.56011 210.425 17.7884 204.944 27.6603 199.617C46.2867 189.607 65.6095 179.26 90.0181 179.26C114.427 179.26 133.701 189.607 152.376 199.617C170.889 209.545 190.033 219.811 214.094 219.811C238.154 219.811 257.299 209.553 275.82 199.617C294.446 189.607 313.769 179.26 338.177 179.26V180.36C314.117 180.36 294.972 190.618 276.451 200.562C257.744 210.593 238.454 220.94 214.061 220.94Z" fill="#FC5A57"/>
<path d="M214.061 213.568C189.669 213.568 170.379 203.222 151.704 193.22C133.191 183.283 114.038 173.017 89.9857 173.017C65.9334 173.017 46.7807 183.276 28.2596 193.22C18.3553 198.539 8.09461 204.042 -2.83014 207.926L-3.26746 206.9C7.56011 203.053 17.7884 197.572 27.6603 192.245C46.2867 182.235 65.6095 171.889 90.0181 171.889C114.427 171.889 133.701 182.235 152.376 192.245C170.889 202.174 190.033 212.44 214.094 212.44C238.154 212.44 257.299 202.181 275.82 192.245C294.446 182.235 313.769 171.889 338.177 171.889V172.988C314.117 172.988 294.972 183.247 276.451 193.19C257.744 203.192 238.454 213.568 214.061 213.568Z" fill="#FC5A57"/>
<path d="M214.061 206.197C189.669 206.197 170.379 195.85 151.704 185.848C133.191 175.912 114.038 165.646 89.9857 165.646C65.9334 165.646 46.7807 175.905 28.2596 185.841C18.3553 191.168 8.09461 196.671 -2.83014 200.555L-3.26746 199.529C7.56011 195.674 17.7884 190.201 27.6603 184.874C46.2867 174.871 65.6095 164.525 90.0181 164.525C114.427 164.525 133.701 174.871 152.376 184.874C170.889 194.81 190.033 205.076 214.094 205.076C238.154 205.076 257.299 194.817 275.82 184.874C294.446 174.871 313.769 164.525 338.177 164.525V165.624C314.117 165.624 294.972 175.883 276.451 185.826C257.744 195.865 238.454 206.197 214.061 206.197Z" fill="#FC5A57"/>
<path d="M214.061 198.796C189.669 198.796 170.379 188.449 151.704 178.44C133.191 168.511 114.038 158.245 89.9857 158.245C65.9334 158.245 46.7807 168.504 28.2596 178.44C18.3553 183.789 8.09461 189.27 -2.83014 193.176L-3.26746 192.157C7.56011 188.303 17.7884 182.822 27.6603 177.502C46.2867 167.5 65.6095 157.153 90.0181 157.153C114.427 157.153 133.701 167.5 152.376 177.502C170.889 187.431 190.033 197.704 214.094 197.704C238.154 197.704 257.299 187.446 275.82 177.502C294.446 167.5 313.769 157.153 338.177 157.153V158.252C314.117 158.252 294.972 168.511 276.451 178.447C257.744 188.479 238.454 198.796 214.061 198.796Z" fill="#FC5A57"/>
<path d="M214.061 191.469C189.669 191.469 170.379 181.122 151.704 171.113C133.191 161.184 114.038 150.918 89.9857 150.918C65.9334 150.918 46.7807 161.176 28.2596 171.113C18.3553 176.418 8.09461 181.943 -2.83014 185.804L-3.26746 184.786C7.56011 180.932 17.7884 175.451 27.6603 170.131C46.2867 160.129 65.6095 149.782 90.0181 149.782C114.427 149.782 133.701 160.129 152.376 170.131C170.889 180.06 190.033 190.333 214.094 190.333C238.154 190.333 257.299 180.074 275.82 170.131C294.446 160.129 313.769 149.782 338.177 149.782V150.881C314.117 150.881 294.972 161.14 276.451 171.076C257.744 181.107 238.454 191.469 214.061 191.469Z" fill="#FC5A57"/>
<path d="M214.061 184.075C189.669 184.075 170.379 173.728 151.704 163.726C133.191 153.797 114.038 143.524 89.9857 143.524C65.9334 143.524 46.7807 153.783 28.2596 163.726C18.3553 169.046 8.09461 174.549 -2.83014 178.433L-3.26746 177.414C7.56011 173.56 17.7884 168.079 27.6603 162.759C46.2867 152.75 65.6095 142.403 90.0181 142.403C114.427 142.403 133.701 152.75 152.376 162.759C170.889 172.688 190.033 182.954 214.094 182.954C238.154 182.954 257.299 172.695 275.82 162.759C294.446 152.75 313.769 142.403 338.177 142.403V143.502C314.117 143.502 294.972 153.761 276.451 163.704C257.744 173.728 238.454 184.075 214.061 184.075Z" fill="#FC5A57"/>
<path d="M214.061 176.702C189.669 176.702 170.379 166.356 151.704 156.354C133.191 146.425 114.038 136.152 89.9857 136.152C65.9334 136.152 46.7807 146.41 28.2596 156.354C18.3553 161.674 8.09461 167.177 -2.83014 171.06L-3.26746 170.034C7.56011 166.187 17.7884 160.706 27.6603 155.379C46.2867 145.37 65.6095 135.023 90.0181 135.023C114.427 135.023 133.701 145.37 152.376 155.379C170.889 165.308 190.033 175.574 214.094 175.574C238.154 175.574 257.299 165.315 275.82 155.379C294.446 145.37 313.769 135.023 338.177 135.023V136.122C314.117 136.122 294.972 146.381 276.451 156.324C257.744 166.356 238.454 176.702 214.061 176.702Z" fill="#FC5A57"/>
<path d="M214.061 169.332C189.669 169.332 170.379 158.985 151.704 148.983C133.191 139.047 114.038 128.781 89.9857 128.781C65.9334 128.781 46.7807 139.039 28.2596 148.983C18.3553 154.303 8.09461 159.806 -2.83014 163.689L-3.26746 162.664C7.56011 158.809 17.7884 153.336 27.6603 148.008C46.2867 138.006 65.6095 127.66 90.0181 127.66C114.427 127.66 133.701 138.006 152.376 148.008C170.889 157.945 190.033 168.21 214.094 168.21C238.154 168.21 257.299 157.952 275.82 148.008C294.446 138.006 313.769 127.66 338.177 127.66V128.759C314.117 128.759 294.972 139.017 276.451 148.961C257.744 158.985 238.454 169.332 214.061 169.332Z" fill="#FC5A57"/>
<path d="M214.061 161.961C189.669 161.961 170.379 151.614 151.704 141.605C133.191 131.676 114.038 121.41 89.9857 121.41C65.9334 121.41 46.7969 131.676 28.2758 141.641C18.3553 146.932 8.09461 152.435 -2.83014 156.296L-3.26746 155.27C7.56011 151.416 17.7884 145.935 27.6603 140.615C46.2867 130.613 65.6095 120.267 90.0181 120.267C114.427 120.267 133.701 130.613 152.376 140.615C170.889 150.551 190.033 160.817 214.094 160.817C238.154 160.817 257.299 150.559 275.82 140.615C294.446 130.613 313.769 120.267 338.177 120.267V121.366C314.117 121.366 294.972 131.624 276.451 141.561C257.744 151.614 238.454 161.961 214.061 161.961Z" fill="#FC5A57"/>
<path d="M214.061 154.589C189.669 154.589 170.379 144.242 151.704 134.233C133.191 124.304 114.038 114.038 89.9857 114.038C65.9334 114.038 46.7807 124.296 28.2596 134.233C18.3553 139.552 8.09461 145.056 -2.83014 148.968L-3.26746 147.95C7.56011 144.096 17.7884 138.615 27.6603 133.295C46.2867 123.293 65.6095 112.946 90.0181 112.946C114.427 112.946 133.701 123.293 152.376 133.295C170.889 143.224 190.033 153.497 214.094 153.497C238.154 153.497 257.299 143.238 275.82 133.295C294.446 123.293 313.769 112.946 338.177 112.946V114.045C314.117 114.045 294.972 124.304 276.451 134.24C257.744 144.242 238.454 154.589 214.061 154.589Z" fill="#FC5A57"/>
<path d="M214.061 147.217C189.669 147.217 170.379 136.871 151.704 126.861C133.191 116.932 114.038 106.666 89.9857 106.666C65.9334 106.666 46.7807 116.925 28.2596 126.861C18.3553 132.181 8.09461 137.684 -2.83014 141.568L-3.26746 140.549C7.56011 136.695 17.7884 131.214 27.6603 125.894C46.2867 115.884 65.6095 105.545 90.0181 105.545C114.427 105.545 133.701 115.892 152.376 125.894C170.889 135.823 190.033 146.096 214.094 146.096C238.154 146.096 257.299 135.837 275.82 125.894C294.446 115.892 313.769 105.545 338.177 105.545V106.644C314.117 106.644 294.972 116.903 276.451 126.839C257.744 136.871 238.454 147.217 214.061 147.217Z" fill="#FC5A57"/>
<path d="M214.061 139.838C189.669 139.838 170.378 129.492 151.704 119.49C133.191 109.561 114.038 99.2874 89.9856 99.2874C65.9334 99.2874 46.7807 109.546 28.2596 119.49C18.3553 124.787 8.0946 130.312 -2.83014 134.196L-3.26746 133.17C7.56011 129.323 17.7884 123.842 27.6603 118.515C46.2867 108.505 65.6095 98.1589 90.018 98.1589C114.427 98.1589 133.701 108.505 152.376 118.515C170.856 128.451 190.001 138.71 214.061 138.71C238.122 138.71 257.266 128.451 275.787 118.515C294.414 108.505 313.736 98.1589 338.145 98.1589V99.2581C314.085 99.2581 294.94 109.517 276.419 119.46C257.744 129.492 238.454 139.838 214.061 139.838Z" fill="#FC5A57"/>
<path d="M214.061 132.467C189.669 132.467 170.378 122.12 151.704 112.118C133.191 102.189 114.038 91.916 89.9856 91.916C65.9334 91.916 46.7807 102.175 28.2596 112.118C18.3553 117.46 8.0946 122.941 -2.83014 126.825L-3.26746 125.799C7.56011 121.952 17.7884 116.471 27.6603 111.144C46.2867 101.134 65.6095 90.7876 90.018 90.7876C114.427 90.7876 133.701 101.134 152.376 111.144C170.856 121.124 190.001 131.382 214.061 131.382C238.122 131.382 257.266 121.124 275.787 111.188C294.414 101.178 313.736 90.8316 338.145 90.8316V91.9307C314.085 91.9307 294.94 102.189 276.419 112.133C257.744 122.12 238.454 132.467 214.061 132.467Z" fill="#FC5A57"/>
<path d="M214.061 125.095C189.669 125.095 170.379 114.748 151.704 104.739C133.191 94.8102 114.038 84.5442 89.9857 84.5442C65.9334 84.5442 46.7807 94.8028 28.2596 104.739C18.3553 110.066 8.09461 115.569 -2.83014 119.453L-3.26746 118.427C7.56011 114.573 17.7884 109.099 27.6603 103.772C46.2867 93.7696 65.6095 83.4231 90.0181 83.4231C114.427 83.4231 133.701 93.7696 152.376 103.772C170.889 113.708 190.033 123.974 214.094 123.974C238.154 123.974 257.299 113.715 275.82 103.772C294.446 93.7696 313.769 83.4231 338.177 83.4231V84.5222C314.117 84.5222 294.972 94.7808 276.451 104.717C257.744 114.748 238.454 125.095 214.061 125.095Z" fill="#FC5A57"/>
<path d="M214.061 117.724C189.669 117.724 170.379 107.377 151.704 97.3677C133.207 87.4168 114.054 77.1582 90.0019 77.1582C65.9496 77.1582 46.7969 87.4168 28.2758 97.353C18.3553 102.695 8.09461 108.191 -2.83014 112.081L-3.26746 111.056C7.56011 107.201 17.7884 101.72 27.6603 96.4004C46.2867 86.3983 65.6095 76.0518 90.0181 76.0518C114.427 76.0518 133.701 86.3983 152.376 96.4004C170.889 106.329 190.033 116.603 214.094 116.603C238.154 116.603 257.299 106.344 275.82 96.4004C294.446 86.3983 313.769 76.0518 338.177 76.0518V77.1582C314.117 77.1582 294.972 87.4168 276.451 97.353C257.744 107.377 238.454 117.724 214.061 117.724Z" fill="#FC5A57"/>
<path d="M214.061 110.352C189.669 110.352 170.379 100.006 151.704 89.9961C133.207 80.0892 114.054 69.8306 90.0019 69.8306C65.9496 69.8306 46.7969 80.0892 28.2758 90.0254C18.3553 95.3159 8.09461 100.819 -2.83014 104.703L-3.26746 103.684C7.56011 99.8297 17.7884 94.3487 27.6603 89.0289C46.2867 79.0267 65.6095 68.6802 90.0181 68.6802C114.427 68.6802 133.701 79.0267 152.376 89.0289C170.889 98.9577 190.033 109.231 214.094 109.231C238.154 109.231 257.299 98.9724 275.82 89.0289C294.446 79.0267 313.769 68.6802 338.177 68.6802V69.8306C314.117 69.8306 294.972 80.0892 276.451 90.0254C257.744 100.006 238.454 110.352 214.061 110.352Z" fill="#FC5A57"/>
<path d="M214.061 102.973C189.669 102.973 170.379 92.634 151.704 82.6245C133.191 72.6957 114.038 62.4224 89.9857 62.4224C65.9334 62.4224 46.7807 72.681 28.2596 82.6245C18.3553 87.9443 8.09461 93.4474 -2.83014 97.331L-3.26746 96.3124C7.56011 92.4581 17.7884 86.9771 27.6603 81.6573C46.2867 71.6478 65.6095 61.3013 90.0181 61.3013C114.427 61.3013 133.701 71.6478 152.376 81.6573C170.889 91.5862 190.033 101.852 214.094 101.852C238.154 101.852 257.299 91.5935 275.82 81.6573C294.446 71.6478 313.769 61.3013 338.177 61.3013V62.4004C314.117 62.4004 294.972 72.659 276.451 82.6025C257.744 92.634 238.454 102.973 214.061 102.973Z" fill="#FC5A57"/>
<path d="M214.061 95.6014C189.669 95.6014 170.379 85.2549 151.704 75.2527C133.191 65.3238 114.038 55.0506 89.9857 55.0506C65.9334 55.0506 46.7807 65.3092 28.2596 75.2527C18.3553 80.5725 8.09461 86.0755 -2.83014 89.9592L-3.26746 88.9333C7.56011 85.0863 17.7884 79.6053 27.6603 74.2781C46.2867 64.2687 65.6095 53.9221 90.0181 53.9221C114.427 53.9221 133.701 64.2687 152.376 74.2781C170.889 84.207 190.033 94.473 214.094 94.473C238.154 94.473 257.299 84.2143 275.82 74.2781C294.446 64.2687 313.769 53.9221 338.177 53.9221V55.0213C314.117 55.0213 294.972 65.2799 276.451 75.2234C257.744 85.2549 238.454 95.6014 214.061 95.6014Z" fill="#FC5A57"/>
<path d="M214.061 88.2303C189.669 88.2303 170.379 77.8838 151.704 67.8816C133.191 57.9454 114.038 47.6795 89.9857 47.6795C65.9334 47.6795 46.7807 57.9381 28.2596 67.8816C18.3553 73.2014 8.09461 78.7044 -2.83014 82.5881L-3.26746 81.5549C7.56011 77.7079 17.7884 72.2269 27.6603 66.8997C46.2867 56.8976 65.6095 46.551 90.0181 46.551C114.427 46.551 133.701 56.8976 152.376 66.907C170.889 76.8359 190.033 87.1019 214.094 87.1019C238.154 87.1019 257.299 76.8432 275.82 66.907C294.446 56.8976 313.769 46.551 338.177 46.551V47.6502C314.117 47.6502 294.972 57.9088 276.451 67.8523C257.744 77.8911 238.454 88.2303 214.061 88.2303Z" fill="#FC5A57"/>
<path d="M214.061 80.8585C189.669 80.8585 170.379 70.5119 151.704 60.5024C133.191 50.5736 114.038 40.3076 89.9857 40.3076C65.9334 40.3076 46.7807 50.5662 28.2596 60.5024C18.3553 65.8296 8.09461 71.3326 -2.83014 75.2162L-3.26746 74.227C7.56011 70.3727 17.7884 64.899 27.6603 59.5718C46.2867 49.5697 65.6095 39.2231 90.0181 39.2231C114.427 39.2231 133.701 49.5697 152.376 59.5718C170.889 69.508 190.033 79.774 214.094 79.774C238.154 79.774 257.299 69.5154 275.82 59.5718C294.446 49.5697 313.769 39.2231 338.177 39.2231V40.3223C314.117 40.3223 294.972 50.5809 276.451 60.5171C257.744 70.5119 238.454 80.8585 214.061 80.8585Z" fill="#FC5A57"/>
<path d="M214.061 73.4945C189.669 73.4945 170.379 63.1479 151.704 53.1384C133.191 43.2096 114.038 32.9436 89.9857 32.9436C65.9334 32.9436 46.7807 43.2022 28.2596 53.1384C18.3553 58.4509 8.09461 63.9686 -2.83014 67.8376L-3.26746 66.819C7.56011 62.9647 17.7884 57.4837 27.6603 52.1639C46.2867 42.1617 65.6095 31.8152 90.0181 31.8152C114.427 31.8152 133.701 42.1617 152.376 52.1639C170.889 62.0927 190.033 72.366 214.094 72.366C238.154 72.366 257.299 62.1074 275.82 52.1639C294.446 42.1617 313.769 31.8152 338.177 31.8152V32.9143C314.117 32.9143 294.972 43.1729 276.451 53.1091C257.744 63.1406 238.454 73.4945 214.061 73.4945Z" fill="#FC5A57"/>
<path d="M214.061 66.1155C189.669 66.1155 170.379 55.769 151.704 45.7595C133.191 35.8307 114.038 25.5647 89.9857 25.5647C65.9334 25.5647 46.7807 35.8233 28.2596 45.7595C18.3553 51.0794 8.09461 56.5824 -2.83014 60.466L-3.26746 59.4474C7.56011 55.5931 17.7884 50.1121 27.6603 44.7923C46.2867 34.7901 65.6095 24.4436 90.0181 24.4436C114.427 24.4436 133.701 34.7901 152.376 44.7923C170.889 54.7212 190.033 64.9944 214.094 64.9944C238.154 64.9944 257.299 54.7358 275.82 44.7923C294.446 34.7901 313.769 24.4436 338.177 24.4436V25.5427C314.117 25.5427 294.972 35.8014 276.451 45.7376C257.744 55.769 238.454 66.1155 214.061 66.1155Z" fill="#FC5A57"/>
<path d="M214.061 58.7369C189.669 58.7369 170.379 48.3903 151.704 38.3882C133.191 28.4593 114.038 18.1861 89.9857 18.1861C65.9334 18.1861 46.7807 28.4447 28.2596 38.3882C18.3553 43.708 8.09461 49.211 -2.83014 53.0947L-3.26746 52.0761C7.56011 48.2218 17.7884 42.7408 27.6603 37.421C46.2867 27.4115 65.6095 17.0649 90.0181 17.0649C114.427 17.0649 133.701 27.4115 152.376 37.421C170.889 47.3498 190.033 57.6158 214.094 57.6158C238.154 57.6158 257.299 47.3572 275.82 37.421C294.446 27.4115 313.769 17.0649 338.177 17.0649V18.1641C314.117 18.1641 294.972 28.4227 276.451 38.3662C257.744 48.3903 238.454 58.7369 214.061 58.7369Z" fill="#FC5A57"/>
<path d="M214.061 51.3651C189.669 51.3651 170.379 41.0185 151.704 31.0164C133.191 21.0875 114.038 10.8142 89.9857 10.8142C65.9334 10.8142 46.7969 21.0875 28.2758 30.9944C18.3553 36.3362 8.09461 41.8392 -2.83014 45.7228L-3.26746 44.697C7.56011 40.85 17.7884 35.369 27.6603 30.0418C46.2867 20.0323 65.6095 9.68579 90.0181 9.68579C114.427 9.68579 133.701 20.0323 152.376 30.0418C170.889 39.9707 190.033 50.2366 214.094 50.2366C238.154 50.2366 257.299 39.978 275.82 30.0418C294.446 20.0323 313.769 9.68579 338.177 9.68579V10.7849C314.117 10.7849 294.972 21.0435 276.451 30.9871C257.744 41.0185 238.454 51.3651 214.061 51.3651Z" fill="#FC5A57"/>
<path d="M214.061 43.9937C189.669 43.9937 170.379 33.6472 151.704 23.645C133.207 13.7088 114.054 3.44289 90.0019 3.44289C65.9496 3.44289 46.7969 13.7088 28.2758 23.667C18.3553 28.9648 8.0946 34.4679 -2.83014 38.3222L-3.26746 37.2963C7.56011 33.4493 17.7884 27.9683 27.6603 22.6411C46.3191 12.6756 65.6095 2.34375 90.0019 2.34375C114.394 2.34375 133.685 12.6903 152.36 22.6998C170.873 32.6286 190.017 42.8946 214.077 42.8946C238.138 42.8946 257.282 32.636 275.803 22.6998C294.43 12.6903 313.753 2.34375 338.161 2.34375V3.44289C314.101 3.44289 294.956 13.7015 276.435 23.645C257.744 33.6472 238.454 43.9937 214.061 43.9937Z" fill="#FC5A57"/>
<path d="M214.061 36.6219C189.669 36.6219 170.379 26.2754 151.704 16.2659C133.207 6.337 114.054 -3.92894 90.0019 -3.92894C65.9496 -3.92894 46.7969 6.32968 28.2758 16.2659C18.3553 21.593 8.09461 27.096 -2.83014 30.9943L-3.26746 29.9684C7.56011 26.1141 17.7884 20.6404 27.6603 15.3133C46.2867 5.31114 65.6095 -5.0354 90.0181 -5.0354C114.427 -5.0354 133.701 5.31114 152.376 15.3133C170.889 25.2495 190.033 35.5154 214.094 35.5154C238.154 35.5154 257.299 25.2568 275.82 15.3133C294.446 5.31114 313.769 -5.0354 338.177 -5.0354V-3.93626C314.117 -3.93626 294.972 6.32235 276.451 16.2585C257.744 26.2754 238.454 36.6219 214.061 36.6219Z" fill="#FC5A57"/>
<path d="M214.061 29.2503C189.669 29.2503 170.379 18.9038 151.704 8.8943C133.207 -1.03457 114.054 -11.3005 90.0019 -11.3005C65.9496 -11.3005 46.7969 -1.03457 28.2758 8.8943C18.3553 14.2141 8.09461 19.7171 -2.83014 23.6007L-3.26746 22.5822C7.56011 18.7279 17.7884 13.2469 27.6603 7.92706C46.2867 -2.07509 65.6095 -12.4216 90.0181 -12.4216C114.427 -12.4216 133.701 -2.07509 152.376 7.92706C170.889 17.8559 190.033 28.1292 214.094 28.1292C238.154 28.1292 257.299 17.8706 275.82 7.92706C294.446 -2.07509 313.769 -12.4216 338.177 -12.4216V-11.3225C314.117 -11.3225 294.972 -1.06388 276.451 8.87232C257.744 18.9038 238.454 29.2503 214.061 29.2503Z" fill="#FC5A57"/>
<path d="M214.061 21.8789C189.669 21.8789 170.379 11.525 151.704 1.52284C141.775 -3.81163 131.49 -9.30732 120.581 -13.1836L121.019 -14.2095C132.025 -10.3185 142.35 -4.77888 152.335 0.577586C170.856 10.4771 190.001 20.7797 214.061 20.7797C238.122 20.7797 257.266 10.5211 275.787 0.577586C285.773 -4.77888 296.098 -10.3185 307.144 -14.2095L307.59 -13.1836C296.616 -9.30732 286.348 -3.81163 276.37 1.52284C257.744 11.5323 238.454 21.8789 214.061 21.8789Z" fill="#FC5A57"/>
<path d="M-2.83014 16.2293L-3.26746 15.2108C7.56011 11.3565 17.7884 5.87543 27.6603 0.555602C37.5323 -4.76422 47.9954 -10.3185 58.9769 -14.2095L59.4223 -13.1836C48.5056 -9.30732 38.2207 -3.81164 28.2758 1.52284C18.331 6.85732 8.0946 12.3457 -2.83014 16.2293Z" fill="#FC5A57"/>
<path d="M214.061 14.5002C189.669 14.5002 170.378 4.15367 151.704 -5.84847C147.112 -8.31787 142.358 -10.8605 137.604 -13.1761L138.187 -14.1433C142.957 -11.7838 147.719 -9.22649 152.327 -6.75709C170.856 3.1498 190.001 13.4084 214.061 13.4084C238.122 13.4084 257.266 3.1498 275.787 -6.79373C280.387 -9.26312 285.149 -11.8205 289.919 -14.1799L290.502 -13.2127C285.748 -10.8605 281.003 -8.31054 276.403 -5.88511C257.744 4.15368 238.454 14.5002 214.061 14.5002Z" fill="#FC5A57"/>
<path d="M-2.83014 8.85775L-3.26746 7.83189C7.56011 3.98491 17.7884 -1.49612 27.6522 -6.82327C32.2602 -9.29267 37.0221 -11.85 41.7921 -14.2095L42.3751 -13.2422C37.6214 -10.8901 32.8676 -8.34008 28.2758 -5.91465C18.3553 -0.514223 8.0946 4.97413 -2.83014 8.85775Z" fill="#FC5A57"/>
<path d="M214.061 7.12842C189.669 7.12842 170.379 -3.21812 151.704 -13.2203L152.327 -14.1655C170.84 -4.23666 189.985 6.02928 214.045 6.02928C238.105 6.02928 257.25 -4.22933 275.763 -14.1655L276.387 -13.2203C257.744 -3.21812 238.454 7.12842 214.061 7.12842Z" fill="#FC5A57"/>
<path d="M-2.83014 1.48644L-3.26746 0.460581C7.55201 -3.3864 17.7884 -8.8601 27.6441 -14.1946L28.2758 -13.2566C18.3472 -7.89286 8.0865 -2.39718 -2.83014 1.48644Z" fill="#FC5A57"/>
</g>
<g clip-path="url(#clip3_1195_232)">
<path d="M242.915 222.706C261.474 212.777 280.674 202.511 304.787 202.511C328.899 202.511 348.099 212.77 366.667 222.706L367.284 221.761C348.611 211.759 329.24 201.412 304.77 201.412C280.301 201.412 260.979 211.759 242.257 221.761L242.915 222.706Z" fill="#FC5A57"/>
<path d="M491.661 222.706C510.228 212.777 529.42 202.511 553.532 202.511C577.645 202.511 596.845 212.77 615.412 222.706L616.029 221.761C597.357 211.759 577.986 201.412 553.516 201.412C529.047 201.412 509.733 211.759 491.003 221.761L491.661 222.706Z" fill="#FC5A57"/>
<path d="M228.748 222.721C233.522 220.361 238.295 217.804 242.915 215.334C261.474 205.391 280.642 195.132 304.787 195.132C328.931 195.132 348.099 205.391 366.699 215.334C371.31 217.804 376.084 220.361 380.866 222.721L381.451 221.753C376.693 219.401 371.927 216.851 367.316 214.389C348.643 204.387 329.272 194.041 304.803 194.041C280.333 194.041 261.011 204.387 242.29 214.389C237.686 216.859 232.921 219.401 228.163 221.753L228.748 222.721Z" fill="#FC5A57"/>
<path d="M477.494 222.721C482.267 220.361 487.041 217.804 491.661 215.334C510.22 205.391 529.42 195.132 553.532 195.132C577.645 195.132 596.845 205.391 615.412 215.327C620.024 217.797 624.797 220.354 629.579 222.713L630.164 221.746C625.406 219.394 620.641 216.844 616.029 214.382C597.357 204.38 577.986 194.033 553.516 194.033C529.047 194.033 509.724 204.38 491.003 214.382C486.4 216.844 481.634 219.394 476.877 221.746L477.494 222.721Z" fill="#FC5A57"/>
<path d="M211.52 222.75C222.545 218.859 232.897 213.319 242.907 207.963C261.474 198.063 280.642 187.805 304.787 187.805C328.931 187.805 348.099 198.063 366.699 207.963C376.709 213.319 387.069 218.859 398.094 222.75L398.54 221.724C387.572 217.848 377.253 212.352 367.284 207.018C348.611 197.008 329.24 186.669 304.77 186.669C280.301 186.669 260.979 197.015 242.257 207.018C232.288 212.352 221.961 217.87 211.041 221.724L211.52 222.75Z" fill="#FC5A57"/>
<path d="M460.258 222.749C471.291 218.859 481.642 213.319 491.661 207.962C510.22 198.063 529.42 187.804 553.532 187.804C577.645 187.804 596.845 198.063 615.412 207.999C625.358 213.282 635.644 218.785 646.596 222.669L647.034 221.65C636.18 217.796 625.926 212.315 616.029 206.995C597.357 196.986 577.986 186.646 553.516 186.646C529.047 186.646 509.724 196.993 491.003 206.995C481.033 212.33 470.706 217.847 459.787 221.702L460.258 222.749Z" fill="#FC5A57"/>
<path d="M429.164 220.94C453.617 220.94 472.955 210.593 491.677 200.591C510.236 190.662 529.436 180.389 553.549 180.389C577.661 180.389 596.861 190.648 615.429 200.591C625.358 205.911 635.644 211.414 646.596 215.298L647.034 214.272C636.18 210.425 625.926 204.944 616.029 199.617C597.357 189.607 577.986 179.26 553.516 179.26C529.047 179.26 509.724 189.607 491.003 199.617C472.444 209.545 453.252 219.811 429.131 219.811C405.011 219.811 385.818 209.553 367.251 199.617C348.578 189.607 329.207 179.26 304.738 179.26V180.36C328.858 180.36 348.051 190.618 366.618 200.562C385.372 210.593 404.71 220.94 429.164 220.94Z" fill="#FC5A57"/>
<path d="M429.164 213.568C453.617 213.568 472.955 203.222 491.677 193.22C510.236 183.283 529.436 173.017 553.549 173.017C577.661 173.017 596.861 183.276 615.429 193.22C625.358 198.539 635.644 204.042 646.596 207.926L647.034 206.9C636.18 203.053 625.926 197.572 616.029 192.245C597.357 182.235 577.986 171.889 553.516 171.889C529.047 171.889 509.724 182.235 491.003 192.245C472.444 202.174 453.252 212.44 429.131 212.44C405.011 212.44 385.818 202.181 367.251 192.245C348.578 182.235 329.207 171.889 304.738 171.889V172.988C328.858 172.988 348.051 183.247 366.618 193.19C385.372 203.192 404.71 213.568 429.164 213.568Z" fill="#FC5A57"/>
<path d="M429.164 206.197C453.617 206.197 472.955 195.85 491.677 185.848C510.236 175.912 529.436 165.646 553.549 165.646C577.661 165.646 596.861 175.905 615.429 185.841C625.358 191.168 635.644 196.671 646.596 200.555L647.034 199.529C636.18 195.674 625.926 190.201 616.029 184.874C597.357 174.871 577.986 164.525 553.516 164.525C529.047 164.525 509.724 174.871 491.003 184.874C472.444 194.81 453.252 205.076 429.131 205.076C405.011 205.076 385.818 194.817 367.251 184.874C348.578 174.871 329.207 164.525 304.738 164.525V165.624C328.858 165.624 348.051 175.883 366.618 185.826C385.372 195.865 404.71 206.197 429.164 206.197Z" fill="#FC5A57"/>
<path d="M429.164 198.796C453.617 198.796 472.955 188.449 491.677 178.44C510.236 168.511 529.436 158.245 553.549 158.245C577.661 158.245 596.861 168.504 615.429 178.44C625.358 183.789 635.644 189.27 646.596 193.176L647.034 192.157C636.18 188.303 625.926 182.822 616.029 177.502C597.357 167.5 577.986 157.153 553.516 157.153C529.047 157.153 509.724 167.5 491.003 177.502C472.444 187.431 453.252 197.704 429.131 197.704C405.011 197.704 385.818 187.446 367.251 177.502C348.578 167.5 329.207 157.153 304.738 157.153V158.252C328.858 158.252 348.051 168.511 366.618 178.447C385.372 188.479 404.71 198.796 429.164 198.796Z" fill="#FC5A57"/>
<path d="M429.164 191.469C453.617 191.469 472.955 181.122 491.677 171.113C510.236 161.184 529.436 150.918 553.549 150.918C577.661 150.918 596.861 161.176 615.429 171.113C625.358 176.418 635.644 181.943 646.596 185.804L647.034 184.786C636.18 180.932 625.926 175.451 616.029 170.131C597.357 160.129 577.986 149.782 553.516 149.782C529.047 149.782 509.724 160.129 491.003 170.131C472.444 180.06 453.252 190.333 429.131 190.333C405.011 190.333 385.818 180.074 367.251 170.131C348.578 160.129 329.207 149.782 304.738 149.782V150.881C328.858 150.881 348.051 161.14 366.618 171.076C385.372 181.107 404.71 191.469 429.164 191.469Z" fill="#FC5A57"/>
<path d="M429.164 184.075C453.617 184.075 472.955 173.728 491.677 163.726C510.236 153.797 529.436 143.524 553.549 143.524C577.661 143.524 596.861 153.783 615.429 163.726C625.358 169.046 635.644 174.549 646.596 178.433L647.034 177.414C636.18 173.56 625.926 168.079 616.029 162.759C597.357 152.75 577.986 142.403 553.516 142.403C529.047 142.403 509.724 152.75 491.003 162.759C472.444 172.688 453.252 182.954 429.131 182.954C405.011 182.954 385.818 172.695 367.251 162.759C348.578 152.75 329.207 142.403 304.738 142.403V143.502C328.858 143.502 348.051 153.761 366.618 163.704C385.372 173.728 404.71 184.075 429.164 184.075Z" fill="#FC5A57"/>
<path d="M429.164 176.702C453.617 176.702 472.955 166.356 491.677 156.354C510.236 146.425 529.436 136.152 553.549 136.152C577.661 136.152 596.861 146.41 615.429 156.354C625.358 161.674 635.644 167.177 646.596 171.06L647.034 170.034C636.18 166.187 625.926 160.706 616.029 155.379C597.357 145.37 577.986 135.023 553.516 135.023C529.047 135.023 509.724 145.37 491.003 155.379C472.444 165.308 453.252 175.574 429.131 175.574C405.011 175.574 385.818 165.315 367.251 155.379C348.578 145.37 329.207 135.023 304.738 135.023V136.122C328.858 136.122 348.051 146.381 366.618 156.324C385.372 166.356 404.71 176.702 429.164 176.702Z" fill="#FC5A57"/>
<path d="M429.164 169.332C453.617 169.332 472.955 158.985 491.677 148.983C510.236 139.047 529.436 128.781 553.549 128.781C577.661 128.781 596.861 139.039 615.429 148.983C625.358 154.303 635.644 159.806 646.596 163.689L647.034 162.664C636.18 158.809 625.926 153.336 616.029 148.008C597.357 138.006 577.986 127.66 553.516 127.66C529.047 127.66 509.724 138.006 491.003 148.008C472.444 157.945 453.252 168.21 429.131 168.21C405.011 168.21 385.818 157.952 367.251 148.008C348.578 138.006 329.207 127.66 304.738 127.66V128.759C328.858 128.759 348.051 139.017 366.618 148.961C385.372 158.985 404.71 169.332 429.164 169.332Z" fill="#FC5A57"/>
<path d="M429.164 161.961C453.617 161.961 472.955 151.614 491.677 141.605C510.236 131.676 529.436 121.41 553.549 121.41C577.661 121.41 596.845 131.676 615.412 141.641C625.358 146.932 635.644 152.435 646.596 156.296L647.034 155.27C636.18 151.416 625.926 145.935 616.029 140.615C597.357 130.613 577.986 120.267 553.516 120.267C529.047 120.267 509.724 130.613 491.003 140.615C472.444 150.551 453.252 160.817 429.131 160.817C405.011 160.817 385.818 150.559 367.251 140.615C348.578 130.613 329.207 120.267 304.738 120.267V121.366C328.858 121.366 348.051 131.624 366.618 141.561C385.372 151.614 404.71 161.961 429.164 161.961Z" fill="#FC5A57"/>
<path d="M429.164 154.589C453.617 154.589 472.955 144.242 491.677 134.233C510.236 124.304 529.436 114.038 553.549 114.038C577.661 114.038 596.861 124.296 615.429 134.233C625.358 139.552 635.644 145.056 646.596 148.968L647.034 147.95C636.18 144.096 625.926 138.615 616.029 133.295C597.357 123.293 577.986 112.946 553.516 112.946C529.047 112.946 509.724 123.293 491.003 133.295C472.444 143.224 453.252 153.497 429.131 153.497C405.011 153.497 385.818 143.238 367.251 133.295C348.578 123.293 329.207 112.946 304.738 112.946V114.045C328.858 114.045 348.051 124.304 366.618 134.24C385.372 144.242 404.71 154.589 429.164 154.589Z" fill="#FC5A57"/>
<path d="M429.164 147.217C453.617 147.217 472.955 136.871 491.677 126.861C510.236 116.932 529.436 106.666 553.549 106.666C577.661 106.666 596.861 116.925 615.429 126.861C625.358 132.181 635.644 137.684 646.596 141.568L647.034 140.549C636.18 136.695 625.926 131.214 616.029 125.894C597.357 115.884 577.986 105.545 553.516 105.545C529.047 105.545 509.724 115.892 491.003 125.894C472.444 135.823 453.252 146.096 429.131 146.096C405.011 146.096 385.818 135.837 367.251 125.894C348.578 115.892 329.207 105.545 304.738 105.545V106.644C328.858 106.644 348.051 116.903 366.618 126.839C385.372 136.871 404.71 147.217 429.164 147.217Z" fill="#FC5A57"/>
<path d="M429.164 139.838C453.617 139.838 472.955 129.492 491.677 119.49C510.236 109.561 529.436 99.2874 553.549 99.2874C577.661 99.2874 596.861 109.546 615.429 119.49C625.358 124.787 635.644 130.312 646.596 134.196L647.034 133.17C636.18 129.323 625.926 123.842 616.029 118.515C597.357 108.505 577.986 98.1589 553.516 98.1589C529.047 98.1589 509.724 108.505 491.003 118.515C472.476 128.451 453.284 138.71 429.164 138.71C405.043 138.71 385.851 128.451 367.284 118.515C348.611 108.505 329.24 98.1589 304.77 98.1589V99.2581C328.891 99.2581 348.083 109.517 366.65 119.46C385.372 129.492 404.71 139.838 429.164 139.838Z" fill="#FC5A57"/>
<path d="M429.164 132.467C453.617 132.467 472.955 122.12 491.677 112.118C510.236 102.189 529.436 91.916 553.549 91.916C577.661 91.916 596.861 102.175 615.429 112.118C625.358 117.46 635.644 122.941 646.596 126.825L647.034 125.799C636.18 121.952 625.926 116.471 616.029 111.144C597.357 101.134 577.986 90.7876 553.516 90.7876C529.047 90.7876 509.724 101.134 491.003 111.144C472.476 121.124 453.284 131.382 429.164 131.382C405.043 131.382 385.851 121.124 367.284 111.188C348.611 101.178 329.24 90.8316 304.77 90.8316V91.9307C328.891 91.9307 348.083 102.189 366.65 112.133C385.372 122.12 404.71 132.467 429.164 132.467Z" fill="#FC5A57"/>
<path d="M429.164 125.095C453.617 125.095 472.955 114.748 491.677 104.739C510.236 94.8102 529.436 84.5442 553.549 84.5442C577.661 84.5442 596.861 94.8028 615.429 104.739C625.358 110.066 635.644 115.569 646.596 119.453L647.034 118.427C636.18 114.573 625.926 109.099 616.029 103.772C597.357 93.7696 577.986 83.4231 553.516 83.4231C529.047 83.4231 509.724 93.7696 491.003 103.772C472.444 113.708 453.252 123.974 429.131 123.974C405.011 123.974 385.818 113.715 367.251 103.772C348.578 93.7696 329.207 83.4231 304.738 83.4231V84.5222C328.858 84.5222 348.051 94.7808 366.618 104.717C385.372 114.748 404.71 125.095 429.164 125.095Z" fill="#FC5A57"/>
<path d="M429.164 117.724C453.617 117.724 472.955 107.377 491.677 97.3677C510.22 87.4168 529.42 77.1582 553.532 77.1582C577.645 77.1582 596.845 87.4168 615.412 97.353C625.358 102.695 635.644 108.191 646.596 112.081L647.034 111.056C636.18 107.201 625.926 101.72 616.029 96.4004C597.357 86.3983 577.986 76.0518 553.516 76.0518C529.047 76.0518 509.724 86.3983 491.003 96.4004C472.444 106.329 453.252 116.603 429.131 116.603C405.011 116.603 385.818 106.344 367.251 96.4004C348.578 86.3983 329.207 76.0518 304.738 76.0518V77.1582C328.858 77.1582 348.051 87.4168 366.618 97.353C385.372 107.377 404.71 117.724 429.164 117.724Z" fill="#FC5A57"/>
<path d="M429.164 110.352C453.617 110.352 472.955 100.006 491.677 89.9961C510.22 80.0892 529.42 69.8306 553.532 69.8306C577.645 69.8306 596.845 80.0892 615.412 90.0254C625.358 95.3159 635.644 100.819 646.596 104.703L647.034 103.684C636.18 99.8297 625.926 94.3487 616.029 89.0289C597.357 79.0267 577.986 68.6802 553.516 68.6802C529.047 68.6802 509.724 79.0267 491.003 89.0289C472.444 98.9577 453.252 109.231 429.131 109.231C405.011 109.231 385.818 98.9724 367.251 89.0289C348.578 79.0267 329.207 68.6802 304.738 68.6802V69.8306C328.858 69.8306 348.051 80.0892 366.618 90.0254C385.372 100.006 404.71 110.352 429.164 110.352Z" fill="#FC5A57"/>
<path d="M429.164 102.973C453.617 102.973 472.955 92.634 491.677 82.6245C510.236 72.6957 529.436 62.4224 553.549 62.4224C577.661 62.4224 596.861 72.681 615.429 82.6245C625.358 87.9443 635.644 93.4474 646.596 97.331L647.034 96.3124C636.18 92.4581 625.926 86.9771 616.029 81.6573C597.357 71.6478 577.986 61.3013 553.516 61.3013C529.047 61.3013 509.724 71.6478 491.003 81.6573C472.444 91.5862 453.252 101.852 429.131 101.852C405.011 101.852 385.818 91.5935 367.251 81.6573C348.578 71.6478 329.207 61.3013 304.738 61.3013V62.4004C328.858 62.4004 348.051 72.659 366.618 82.6025C385.372 92.634 404.71 102.973 429.164 102.973Z" fill="#FC5A57"/>
<path d="M429.164 95.6014C453.617 95.6014 472.955 85.2549 491.677 75.2527C510.236 65.3238 529.436 55.0506 553.549 55.0506C577.661 55.0506 596.861 65.3092 615.429 75.2527C625.358 80.5725 635.644 86.0755 646.596 89.9592L647.034 88.9333C636.18 85.0863 625.926 79.6053 616.029 74.2781C597.357 64.2687 577.986 53.9221 553.516 53.9221C529.047 53.9221 509.724 64.2687 491.003 74.2781C472.444 84.207 453.252 94.473 429.131 94.473C405.011 94.473 385.818 84.2143 367.251 74.2781C348.578 64.2687 329.207 53.9221 304.738 53.9221V55.0213C328.858 55.0213 348.051 65.2799 366.618 75.2234C385.372 85.2549 404.71 95.6014 429.164 95.6014Z" fill="#FC5A57"/>
<path d="M429.164 88.2303C453.617 88.2303 472.955 77.8838 491.677 67.8816C510.236 57.9454 529.436 47.6795 553.549 47.6795C577.661 47.6795 596.861 57.9381 615.429 67.8816C625.358 73.2014 635.644 78.7044 646.596 82.5881L647.034 81.5549C636.18 77.7079 625.926 72.2269 616.029 66.8997C597.357 56.8976 577.986 46.551 553.516 46.551C529.047 46.551 509.724 56.8976 491.003 66.907C472.444 76.8359 453.252 87.1019 429.131 87.1019C405.011 87.1019 385.818 76.8432 367.251 66.907C348.578 56.8976 329.207 46.551 304.738 46.551V47.6502C328.858 47.6502 348.051 57.9088 366.618 67.8523C385.372 77.8911 404.71 88.2303 429.164 88.2303Z" fill="#FC5A57"/>
<path d="M429.164 80.8585C453.617 80.8585 472.955 70.5119 491.677 60.5024C510.236 50.5736 529.436 40.3076 553.549 40.3076C577.661 40.3076 596.861 50.5662 615.429 60.5024C625.358 65.8296 635.644 71.3326 646.596 75.2162L647.034 74.227C636.18 70.3727 625.926 64.899 616.029 59.5718C597.357 49.5697 577.986 39.2231 553.516 39.2231C529.047 39.2231 509.724 49.5697 491.003 59.5718C472.444 69.508 453.252 79.774 429.131 79.774C405.011 79.774 385.818 69.5154 367.251 59.5718C348.578 49.5697 329.207 39.2231 304.738 39.2231V40.3223C328.858 40.3223 348.051 50.5809 366.618 60.5171C385.372 70.5119 404.71 80.8585 429.164 80.8585Z" fill="#FC5A57"/>
<path d="M429.164 73.4945C453.617 73.4945 472.955 63.1479 491.677 53.1384C510.236 43.2096 529.436 32.9436 553.549 32.9436C577.661 32.9436 596.861 43.2022 615.429 53.1384C625.358 58.4509 635.644 63.9686 646.596 67.8376L647.034 66.819C636.18 62.9647 625.926 57.4837 616.029 52.1639C597.357 42.1617 577.986 31.8152 553.516 31.8152C529.047 31.8152 509.724 42.1617 491.003 52.1639C472.444 62.0927 453.252 72.366 429.131 72.366C405.011 72.366 385.818 62.1074 367.251 52.1639C348.578 42.1617 329.207 31.8152 304.738 31.8152V32.9143C328.858 32.9143 348.051 43.1729 366.618 53.1091C385.372 63.1406 404.71 73.4945 429.164 73.4945Z" fill="#FC5A57"/>
<path d="M429.164 66.1155C453.617 66.1155 472.955 55.769 491.677 45.7595C510.236 35.8307 529.436 25.5647 553.549 25.5647C577.661 25.5647 596.861 35.8233 615.429 45.7595C625.358 51.0794 635.644 56.5824 646.596 60.466L647.034 59.4474C636.18 55.5931 625.926 50.1121 616.029 44.7923C597.357 34.7901 577.986 24.4436 553.516 24.4436C529.047 24.4436 509.724 34.7901 491.003 44.7923C472.444 54.7212 453.252 64.9944 429.131 64.9944C405.011 64.9944 385.818 54.7358 367.251 44.7923C348.578 34.7901 329.207 24.4436 304.738 24.4436V25.5427C328.858 25.5427 348.051 35.8014 366.618 45.7376C385.372 55.769 404.71 66.1155 429.164 66.1155Z" fill="#FC5A57"/>
<path d="M429.164 58.7369C453.617 58.7369 472.955 48.3903 491.677 38.3882C510.236 28.4593 529.436 18.1861 553.549 18.1861C577.661 18.1861 596.861 28.4447 615.429 38.3882C625.358 43.708 635.644 49.211 646.596 53.0947L647.034 52.0761C636.18 48.2218 625.926 42.7408 616.029 37.421C597.357 27.4115 577.986 17.0649 553.516 17.0649C529.047 17.0649 509.724 27.4115 491.003 37.421C472.444 47.3498 453.252 57.6158 429.131 57.6158C405.011 57.6158 385.818 47.3572 367.251 37.421C348.578 27.4115 329.207 17.0649 304.738 17.0649V18.1641C328.858 18.1641 348.051 28.4227 366.618 38.3662C385.372 48.3903 404.71 58.7369 429.164 58.7369Z" fill="#FC5A57"/>
<path d="M429.164 51.3651C453.617 51.3651 472.955 41.0185 491.677 31.0164C510.236 21.0875 529.436 10.8142 553.549 10.8142C577.661 10.8142 596.845 21.0875 615.412 30.9944C625.358 36.3362 635.644 41.8392 646.596 45.7228L647.034 44.697C636.18 40.85 625.926 35.369 616.029 30.0418C597.357 20.0323 577.986 9.68579 553.516 9.68579C529.047 9.68579 509.724 20.0323 491.003 30.0418C472.444 39.9707 453.252 50.2366 429.131 50.2366C405.011 50.2366 385.818 39.978 367.251 30.0418C348.578 20.0323 329.207 9.68579 304.738 9.68579V10.7849C328.858 10.7849 348.051 21.0435 366.618 30.9871C385.372 41.0185 404.71 51.3651 429.164 51.3651Z" fill="#FC5A57"/>
<path d="M429.164 43.9937C453.617 43.9937 472.955 33.6472 491.677 23.645C510.22 13.7088 529.42 3.44289 553.532 3.44289C577.645 3.44289 596.845 13.7088 615.412 23.667C625.358 28.9648 635.644 34.4679 646.596 38.3222L647.034 37.2963C636.18 33.4493 625.926 27.9683 616.029 22.6411C597.324 12.6756 577.986 2.34375 553.532 2.34375C529.079 2.34375 509.741 12.6903 491.019 22.6998C472.46 32.6286 453.268 42.8946 429.147 42.8946C405.027 42.8946 385.835 32.636 367.268 22.6998C348.595 12.6903 329.224 2.34375 304.754 2.34375V3.44289C328.875 3.44289 348.067 13.7015 366.634 23.645C385.372 33.6472 404.71 43.9937 429.164 43.9937Z" fill="#FC5A57"/>
<path d="M429.164 36.6219C453.617 36.6219 472.955 26.2754 491.677 16.2659C510.22 6.337 529.42 -3.92894 553.532 -3.92894C577.645 -3.92894 596.845 6.32968 615.412 16.2659C625.358 21.593 635.644 27.096 646.596 30.9943L647.034 29.9684C636.18 26.1141 625.926 20.6404 616.029 15.3133C597.357 5.31114 577.986 -5.0354 553.516 -5.0354C529.047 -5.0354 509.724 5.31114 491.003 15.3133C472.444 25.2495 453.252 35.5154 429.131 35.5154C405.011 35.5154 385.818 25.2568 367.251 15.3133C348.578 5.31114 329.207 -5.0354 304.738 -5.0354V-3.93626C328.858 -3.93626 348.051 6.32235 366.618 16.2585C385.372 26.2754 404.71 36.6219 429.164 36.6219Z" fill="#FC5A57"/>
<path d="M429.164 29.2503C453.617 29.2503 472.955 18.9038 491.677 8.8943C510.22 -1.03457 529.42 -11.3005 553.532 -11.3005C577.645 -11.3005 596.845 -1.03457 615.412 8.8943C625.358 14.2141 635.644 19.7171 646.596 23.6007L647.034 22.5822C636.18 18.7279 625.926 13.2469 616.029 7.92706C597.357 -2.07509 577.986 -12.4216 553.516 -12.4216C529.047 -12.4216 509.724 -2.07509 491.003 7.92706C472.444 17.8559 453.252 28.1292 429.131 28.1292C405.011 28.1292 385.818 17.8706 367.251 7.92706C348.578 -2.07509 329.207 -12.4216 304.738 -12.4216V-11.3225C328.858 -11.3225 348.051 -1.06388 366.618 8.87232C385.372 18.9038 404.71 29.2503 429.164 29.2503Z" fill="#FC5A57"/>
<path d="M429.164 21.8789C453.617 21.8789 472.955 11.525 491.677 1.52284C501.63 -3.81163 511.941 -9.30732 522.877 -13.1836L522.438 -14.2095C511.405 -10.3185 501.054 -4.77888 491.044 0.577586C472.476 10.4771 453.284 20.7797 429.164 20.7797C405.043 20.7797 385.851 10.5211 367.284 0.577586C357.273 -4.77888 346.922 -10.3185 335.848 -14.2095L335.402 -13.1836C346.403 -9.30732 356.697 -3.81163 366.699 1.52284C385.372 11.5323 404.71 21.8789 429.164 21.8789Z" fill="#FC5A57"/>
<path d="M646.596 16.2293L647.034 15.2108C636.18 11.3565 625.926 5.87543 616.029 0.555602C606.133 -4.76422 595.644 -10.3185 584.635 -14.2095L584.188 -13.1836C595.132 -9.30732 605.443 -3.81164 615.412 1.52284C625.382 6.85732 635.644 12.3457 646.596 16.2293Z" fill="#FC5A57"/>
<path d="M429.164 14.5002C453.617 14.5002 472.955 4.15367 491.677 -5.84847C496.28 -8.31787 501.046 -10.8605 505.811 -13.1761L505.227 -14.1433C500.445 -11.7838 495.671 -9.22649 491.052 -6.75709C472.476 3.1498 453.284 13.4084 429.164 13.4084C405.043 13.4084 385.851 3.1498 367.284 -6.79373C362.672 -9.26312 357.899 -11.8205 353.117 -14.1799L352.532 -13.2127C357.298 -10.8605 362.055 -8.31054 366.667 -5.88511C385.372 4.15368 404.71 14.5002 429.164 14.5002Z" fill="#FC5A57"/>
<path d="M646.596 8.85775L647.034 7.83189C636.18 3.98491 625.926 -1.49612 616.038 -6.82327C611.418 -9.29267 606.644 -11.85 601.862 -14.2095L601.278 -13.2422C606.044 -10.8901 610.809 -8.34008 615.412 -5.91465C625.358 -0.514223 635.644 4.97413 646.596 8.85775Z" fill="#FC5A57"/>
<path d="M429.164 7.12842C453.617 7.12842 472.955 -3.21812 491.677 -13.2203L491.052 -14.1655C472.493 -4.23666 453.3 6.02928 429.18 6.02928C405.059 6.02928 385.867 -4.22933 367.308 -14.1655L366.683 -13.2203C385.372 -3.21812 404.71 7.12842 429.164 7.12842Z" fill="#FC5A57"/>
<path d="M646.596 1.48644L647.034 0.460581C636.188 -3.3864 625.926 -8.8601 616.046 -14.1946L615.412 -13.2566C625.366 -7.89286 635.652 -2.39718 646.596 1.48644Z" fill="#FC5A57"/>
</g>
</g>
<defs>
<clipPath id="clip0_1195_232">
<path d="M0.781738 29.3343C0.781738 13.3684 13.7247 0.425537 29.6905 0.425537H965V208.241H29.6906C13.7247 208.241 0.781738 195.298 0.781738 179.332V29.3343Z" fill="white"/>
</clipPath>
<clipPath id="clip1_1195_232">
<rect width="321.779" height="211.167" fill="white" transform="translate(643.221 -0.691895)"/>
</clipPath>
<clipPath id="clip2_1195_232">
<rect width="320.697" height="211.034" fill="white" transform="translate(0.781738 -1.01978)"/>
</clipPath>
<clipPath id="clip3_1195_232">
<rect width="321.497" height="211.034" fill="white" transform="matrix(-1 0 0 1 642.975 -1.01978)"/>
</clipPath>
</defs>
</svg>
