<svg width="114" height="114" viewBox="0 0 114 114" fill="none" xmlns="http://www.w3.org/2000/svg">
<g clip-path="url(#clip0_1278_1642)">
<path d="M75.0493 21.7888H90.7547C90.7547 21.7888 89.3669 19.2327 85.3229 19.6047C81.4628 19.9599 81.2646 18.346 79.3035 18.1479C77.34 17.9498 75.7038 19.4719 75.0493 21.7888Z" fill="#E0E0E0"/>
<path d="M33.9976 63.7828C33.9976 63.7828 32.4235 64.6429 34.7142 67.9672C37.0049 71.2916 38.4954 72.8861 38.4954 72.8861C38.4954 72.8861 38.9278 73.6713 38.2542 73.896C37.5806 74.1207 36.0256 74.0869 35.8345 74.9856C35.6362 75.9157 36.3863 76.6647 37.7788 77.2179C39.169 77.7712 42.174 79.0975 42.4439 79.2183C42.709 79.3367 43.0076 79.6895 42.5752 79.9166C42.1405 80.1437 38.7701 80.982 39.2574 82.5765C39.7471 84.171 43.8723 85.0698 44.3213 85.1761C44.7704 85.2824 44.897 85.4515 44.8946 85.6931C44.8922 85.9347 43.7314 86.1086 42.7831 86.3865C41.8348 86.6643 40.7814 87.1548 41.1397 88.0511C41.498 88.9474 44.092 90.5733 49.8176 90.3462L52.4642 90.066L53.5917 87.6138C55.6889 82.219 55.0225 79.2063 54.3035 78.5685C53.5845 77.9306 52.7795 78.7762 52.2087 79.5904C51.6378 80.4046 51.0932 81.4555 50.8662 81.3782C50.6393 81.3009 50.5247 81.1245 50.5724 80.6607C50.6202 80.1968 51.1385 75.9592 49.8105 74.9687C48.4824 73.9781 46.5906 76.9232 46.2347 77.2614C45.8787 77.6021 45.6494 77.201 45.6255 76.9063C45.6017 76.6067 45.3509 73.3017 45.2911 71.7917C45.2314 70.2817 44.78 69.3178 43.846 69.2018C42.9455 69.0882 42.4654 70.5837 42.033 71.1539C41.6007 71.7216 41.0107 71.05 41.0107 71.05C41.0107 71.05 40.0098 69.1003 37.6618 65.8195C35.3114 62.5386 33.9642 63.7949 33.9642 63.7949" fill="#EBEBEB"/>
<path d="M52.689 90.6772C50.9715 88.2613 47.9929 83.915 45.4155 80.1944C42.8382 76.4762 40.5045 73.1132 38.799 70.6876C37.9462 69.4772 37.2559 68.4988 36.7782 67.8175C36.5417 67.4816 36.3578 67.2183 36.2288 67.0371C36.1691 66.9501 36.1213 66.8825 36.0879 66.8318C36.0568 66.7858 36.0425 66.7593 36.0425 66.7593C36.0425 66.7593 36.0616 66.781 36.095 66.8245C36.1309 66.8728 36.1786 66.9381 36.2431 67.025C36.3745 67.2038 36.5632 67.4647 36.8045 67.7957C37.2917 68.4674 37.9892 69.441 38.8468 70.6514C40.5642 73.0673 42.9075 76.4255 45.4824 80.1437C48.0598 83.8618 51.0312 88.2129 52.7343 90.6386" fill="#E0E0E0"/>
<path d="M38.0103 75.1233C38.0127 75.1185 38.0796 75.1281 38.2014 75.1499C38.3232 75.1716 38.4976 75.2079 38.715 75.2562C39.1473 75.3504 39.7397 75.4978 40.3918 75.6717C41.0343 75.8457 41.6148 76.0027 42.0591 76.1235C42.2597 76.1766 42.4293 76.2201 42.5655 76.2564C42.6849 76.2878 42.7518 76.3071 42.7494 76.3119C42.7494 76.3168 42.6801 76.3095 42.5583 76.2878C42.4365 76.266 42.2621 76.2298 42.0447 76.1791C41.6124 76.08 41.0224 75.9254 40.3703 75.7514C39.7278 75.5823 39.1449 75.4301 38.7006 75.3117C38.5 75.2586 38.3304 75.2151 38.1942 75.1813C38.0748 75.1475 38.0079 75.1281 38.0103 75.1233Z" fill="#E0E0E0"/>
<path d="M42.9051 76.1163C42.8836 76.1114 43.1296 74.86 43.4545 73.3234C43.7794 71.7845 44.0612 70.5427 44.0851 70.5475C44.1066 70.5523 43.863 71.8038 43.5357 73.3403C43.2109 74.8793 42.929 76.1211 42.9051 76.1163Z" fill="#E0E0E0"/>
<path d="M46.6074 82.0063C46.6026 82.0039 46.6337 81.9386 46.691 81.8275C46.7579 81.6995 46.8439 81.54 46.9442 81.3516C47.1568 80.9505 47.4506 80.3949 47.7492 79.7691C48.0502 79.1434 48.3034 78.5684 48.4849 78.1504C48.5709 77.9547 48.6425 77.788 48.6999 77.6552C48.75 77.5392 48.7811 77.474 48.7883 77.4764C48.793 77.4788 48.7739 77.5464 48.7309 77.6672C48.6879 77.788 48.6258 77.962 48.5398 78.1722C48.3726 78.5974 48.1266 79.1772 47.8256 79.8054C47.5247 80.4335 47.2237 80.9868 46.9968 81.3806C46.8821 81.5787 46.789 81.7357 46.7197 81.8444C46.6528 81.9507 46.6146 82.0111 46.6074 82.0063Z" fill="#E0E0E0"/>
<path d="M41.9829 82.0933C41.9829 82.0885 42.0474 82.0813 42.1644 82.0716C42.2982 82.0643 42.463 82.0547 42.6565 82.0426C43.0721 82.0209 43.6478 81.9991 44.2832 81.9798C44.9186 81.9605 45.4942 81.946 45.9122 81.9411C46.1057 81.9411 46.2729 81.9387 46.4067 81.9387C46.5237 81.9411 46.5882 81.9435 46.5882 81.9484C46.5882 81.9532 46.5237 81.9629 46.4067 81.9701C46.2729 81.9774 46.1081 81.987 45.9146 81.9991C45.499 82.0209 44.9233 82.0426 44.2856 82.0619C43.6502 82.0813 43.0745 82.0958 42.6565 82.1006C42.463 82.1006 42.2958 82.103 42.1621 82.103C42.0498 82.103 41.9829 82.0982 41.9829 82.0933Z" fill="#E0E0E0"/>
<path d="M44.5986 87.7128C44.5986 87.708 44.6798 87.6983 44.8303 87.6862C44.9951 87.6766 45.2077 87.6621 45.4609 87.6476C45.9936 87.6186 46.7317 87.5823 47.5462 87.5485C48.3608 87.5147 49.0988 87.4881 49.6339 87.4736C49.8895 87.4688 50.1021 87.464 50.2669 87.4615C50.4174 87.4615 50.4986 87.4615 50.4986 87.4688C50.4986 87.4736 50.4174 87.4833 50.2669 87.4954C50.1021 87.505 49.8895 87.5195 49.6363 87.534C49.1036 87.563 48.3655 87.5993 47.551 87.6331C46.7365 87.6669 45.9984 87.6935 45.4657 87.708C45.2101 87.7128 44.9975 87.7176 44.8327 87.7201C44.6822 87.7201 44.5986 87.7201 44.5986 87.7128Z" fill="#E0E0E0"/>
<path d="M50.3574 87.4351C50.3526 87.4326 50.3884 87.3505 50.4577 87.2055C50.5341 87.0461 50.6368 86.8407 50.7563 86.5919C51.0095 86.0724 51.3558 85.3549 51.7141 84.5504C52.0748 83.7459 52.3829 83.0114 52.6027 82.4751C52.7078 82.219 52.7962 82.0064 52.863 81.8421C52.9252 81.6923 52.961 81.6102 52.9681 81.6126C52.9729 81.615 52.9466 81.6996 52.8941 81.8542C52.8415 82.0064 52.7603 82.2263 52.6576 82.4968C52.4522 83.038 52.1512 83.7797 51.7905 84.5842C51.4299 85.3887 51.0763 86.1063 50.8088 86.6185C50.675 86.8745 50.5652 87.0799 50.4863 87.2224C50.4075 87.3626 50.3621 87.4375 50.3574 87.4351Z" fill="#E0E0E0"/>
<path d="M72.5698 51.7803C69.7249 48.555 69.9996 43.9019 71.0745 39.9156C71.2537 39.2512 71.3468 38.5264 71.8007 38.0118C72.2545 37.4996 73.0834 37.2725 73.6113 37.6977C74.0484 38.0505 74.1272 38.681 74.292 39.227C74.5094 39.9518 74.9322 40.6114 75.4959 41.1018C75.8661 41.4256 76.3558 41.6841 76.8288 41.5536C77.4761 41.3724 77.7293 40.5872 77.8822 39.9204C78.1664 38.6762 78.4483 37.4296 78.7325 36.1854C78.8854 35.5186 79.043 34.8348 79.3966 34.2526C79.7501 33.6679 80.3401 33.1896 81.0089 33.1606C81.6777 33.134 82.368 33.6848 82.3465 34.3686C82.337 34.6536 82.2175 34.9218 82.1698 35.2045C82.1244 35.4847 82.1793 35.823 82.4206 35.9631C82.6666 36.1032 82.9747 35.9776 83.216 35.8302C84.0544 35.3204 84.7185 34.5618 85.3538 33.8032C85.9868 33.0446 86.6127 32.2618 87.4033 31.6748C88.1939 31.0877 89.1828 30.7108 90.1407 30.8823C91.0985 31.0539 91.9656 31.885 91.9847 32.8803C92.0038 33.8781 91.2371 34.702 90.4703 35.3229C89.3309 36.2433 88.0602 36.9923 86.713 37.5431C86.4693 37.6422 86.2066 37.7509 86.0704 37.978C85.822 38.3887 86.1373 38.9299 86.5362 39.1811C86.9901 39.4638 87.5347 39.5411 88.0339 39.7247C88.5331 39.9083 89.0371 40.2731 89.116 40.8095C89.2258 41.556 88.4949 42.1358 87.8309 42.4717C86.5004 43.1433 85.0576 43.5806 83.5886 43.757C83.0607 43.8198 82.5137 43.856 82.0432 44.1073C81.5702 44.3585 81.1952 44.9021 81.3218 45.4288C81.4484 45.9555 82.0193 46.2526 82.5496 46.2768C83.0798 46.3034 83.6006 46.1343 84.1285 46.0642C85.115 45.9361 86.2711 46.2792 86.6676 47.2094C86.928 47.8206 86.7918 48.555 86.4526 49.13C86.1134 49.705 85.5975 50.1447 85.0672 50.5385C83.2112 51.9132 81.0256 52.8554 78.7516 53.0898C76.4728 53.3217 74.4783 53.0535 72.5698 51.7803Z" fill="#F5F5F5"/>
<path d="M73.1455 52.1693C73.6615 50.611 73.1216 51.3938 74.1846 49.5093C75.2451 47.6225 76.5756 45.6511 78.0375 43.6362C78.4053 43.1336 78.7684 42.6384 79.1267 42.1479C79.485 41.6599 79.8409 41.1767 80.2159 40.7274C80.9659 39.8214 81.7542 39.0096 82.5257 38.2607C83.2973 37.5117 84.0569 36.8304 84.7711 36.1974C85.4876 35.5669 86.166 34.9919 86.8062 34.4942C88.0841 33.494 89.2092 32.8127 89.9998 32.3754C90.3939 32.1555 90.7068 31.9961 90.9194 31.8898C91.0221 31.8391 91.101 31.8004 91.1631 31.7714C91.218 31.7448 91.2467 31.7327 91.2467 31.7352C91.2467 31.7376 91.2204 31.7545 91.1679 31.7835C91.1081 31.8149 91.0293 31.8584 90.9314 31.9139C90.7236 32.0275 90.4154 32.1942 90.0237 32.4189C89.2426 32.8682 88.1295 33.5592 86.8611 34.5642C86.2257 35.0644 85.5521 35.6418 84.8403 36.2772C84.1285 36.9126 83.3737 37.5963 82.6046 38.3452C81.8378 39.0942 81.0543 39.9059 80.3091 40.8071C79.9364 41.2564 79.5829 41.7348 79.2246 42.2228C78.8663 42.7108 78.5056 43.2085 78.1378 43.7086C76.6759 45.7211 75.3455 47.6853 74.2849 49.5649C73.2196 51.4421 73.7546 50.6473 73.2291 52.1959" fill="#E0E0E0"/>
<path d="M80.2517 40.7297C80.2421 40.7297 80.2445 40.6234 80.2541 40.4301C80.2636 40.2369 80.2851 39.959 80.3162 39.616C80.3783 38.9298 80.4953 37.9852 80.6315 36.9439C80.7652 35.9026 80.8703 34.958 80.9229 34.2719C80.9492 33.9288 80.9683 33.651 80.9802 33.4601C80.9922 33.2668 81.0017 33.1605 81.0113 33.1605C81.0208 33.1605 81.0256 33.2668 81.028 33.4601C81.0328 33.6534 81.0256 33.9312 81.0113 34.2767C80.9826 34.9652 80.8918 35.9147 80.7557 36.9584C80.6219 37.9852 80.4977 38.9153 80.4046 39.6256C80.364 39.9469 80.3305 40.2175 80.3042 40.435C80.278 40.6258 80.2612 40.7297 80.2517 40.7297Z" fill="#E0E0E0"/>
<path d="M89.1066 41.1574C89.1042 41.167 88.98 41.1501 88.7579 41.1163C88.5357 41.0849 88.2156 41.0342 87.8167 40.9883C87.0213 40.8868 85.9154 40.7853 84.69 40.7298C83.4646 40.6742 82.3563 40.6718 81.5513 40.6935C81.15 40.7008 80.8252 40.7177 80.6006 40.7249C80.3761 40.7346 80.2519 40.737 80.2495 40.7273C80.2495 40.7177 80.3713 40.7008 80.5959 40.6742C80.8204 40.65 81.1453 40.621 81.5465 40.6017C82.3515 40.5558 83.4646 40.5437 84.6924 40.5993C85.9202 40.6573 87.0285 40.7732 87.8239 40.8965C88.2228 40.9544 88.5429 41.0173 88.7626 41.0656C88.9872 41.1187 89.109 41.1501 89.1066 41.1574Z" fill="#E0E0E0"/>
<path d="M74.328 49.3741C74.3232 49.3741 74.3113 49.3354 74.2945 49.2557C74.2754 49.1614 74.2515 49.0479 74.2229 48.9102C74.1608 48.6106 74.0843 48.1733 73.9936 47.6346C73.8144 46.5546 73.6138 45.0543 73.4131 43.3946C73.2125 41.7348 73.0262 40.2345 72.8709 39.1522C72.7945 38.6255 72.73 38.193 72.6822 37.8693C72.6631 37.7292 72.6464 37.6156 72.632 37.519C72.6225 37.4392 72.6177 37.3958 72.6225 37.3958C72.6273 37.3958 72.6392 37.4368 72.6559 37.5141C72.675 37.6084 72.6989 37.7219 72.7276 37.8596C72.7897 38.1592 72.8661 38.5965 72.9569 39.1352C73.136 40.2152 73.3367 41.7155 73.5373 43.3752C73.738 45.035 73.9243 46.5329 74.0796 47.6177C74.1584 48.1443 74.2205 48.5768 74.2683 48.9005C74.2874 49.0407 74.3041 49.1566 74.3184 49.2508C74.328 49.333 74.3304 49.3741 74.328 49.3741Z" fill="#E0E0E0"/>
<path d="M86.4548 48.4005C86.4548 48.4053 86.4119 48.4125 86.333 48.4198C86.2375 48.4295 86.1204 48.4391 85.9795 48.4512C85.6547 48.4778 85.2151 48.514 84.6801 48.5575C83.5837 48.6469 82.0693 48.7894 80.3972 48.9489C78.7252 49.1083 77.2084 49.2364 76.1096 49.304C75.5602 49.3379 75.1159 49.3596 74.8078 49.3693C74.6669 49.3717 74.5474 49.3765 74.4543 49.3789C74.3731 49.3789 74.3301 49.3765 74.3301 49.3741C74.3301 49.3693 74.3731 49.362 74.4519 49.3548C74.5474 49.3451 74.6645 49.3354 74.8054 49.3234C75.1303 49.2968 75.5698 49.2605 76.1048 49.2171C77.2012 49.1277 78.7156 48.9851 80.3877 48.8257C82.0597 48.6662 83.5765 48.5382 84.6753 48.4705C85.2247 48.4367 85.669 48.415 85.9771 48.4053C86.1204 48.4029 86.2351 48.398 86.3306 48.3956C86.4119 48.3956 86.4548 48.398 86.4548 48.4005Z" fill="#E0E0E0"/>
<path d="M95.8613 72.9901C95.8636 72.9901 95.8493 73.0288 95.8206 73.1037C95.7872 73.1834 95.7442 73.2897 95.6893 73.425C95.5675 73.7149 95.3955 74.1232 95.1805 74.6402C94.7314 75.6911 94.0984 77.1745 93.3388 78.9478L93.3269 78.9744L93.2982 78.9793C91.5999 79.2619 89.6197 79.5929 87.5129 79.9456C86.8537 80.0544 86.204 80.1631 85.5734 80.267L85.485 80.2815L85.5065 80.1945C85.977 78.3125 86.4118 76.5802 86.782 75.1089L86.8083 75.1645C85.3966 74.5267 84.2309 74 83.4092 73.6279C83.0103 73.4443 82.695 73.2993 82.4705 73.1955C82.3678 73.1471 82.289 73.1085 82.2269 73.0795C82.1719 73.0529 82.1433 73.0384 82.1456 73.036C82.148 73.0336 82.1767 73.0433 82.234 73.0674C82.2985 73.094 82.3797 73.1278 82.4848 73.1713C82.7118 73.2679 83.0294 73.4056 83.4331 73.5796C84.2596 73.942 85.43 74.4566 86.8489 75.0775L86.8871 75.0944L86.8776 75.1355C86.5145 76.6092 86.0869 78.3439 85.6235 80.2283L85.5566 80.1558C86.1872 80.0519 86.8346 79.9432 87.4962 79.8345C89.603 79.489 91.5856 79.1629 93.2839 78.8826L93.2457 78.914C94.0196 77.148 94.6669 75.6718 95.1256 74.6233C95.3525 74.1111 95.534 73.7076 95.663 73.4201C95.7227 73.2873 95.7729 73.1834 95.8087 73.1037C95.8398 73.0239 95.8589 72.9877 95.8613 72.9901Z" fill="#E0E0E0"/>
<path d="M86.2542 79.5712L86.0966 79.9939L86.3498 80.3636L85.9055 80.3418L85.6356 80.6994L85.5185 80.2645L85.0981 80.1172L85.4708 79.8707L85.4803 79.4189L85.8291 79.7016L86.2542 79.5712Z" fill="#E0E0E0"/>
<path d="M82.2818 72.746L82.2029 72.9562L82.3295 73.1398L82.1098 73.1302L81.9736 73.3065L81.9163 73.0915L81.7085 73.0166L81.8924 72.8934L81.8972 72.6711L82.0716 72.8113L82.2818 72.746Z" fill="#E0E0E0"/>
<path d="M93.501 78.682L93.4222 78.8922L93.5488 79.0759L93.329 79.0638L93.1929 79.2426L93.1355 79.0275L92.9277 78.9526L93.1117 78.8294L93.1164 78.6047L93.2908 78.7449L93.501 78.682Z" fill="#E0E0E0"/>
<path d="M87.0278 74.9132L86.949 75.1233L87.0756 75.307L86.8534 75.2973L86.7197 75.4737L86.6623 75.2586L86.4521 75.1837L86.6385 75.0605L86.6432 74.8383L86.8152 74.9784L87.0278 74.9132Z" fill="#E0E0E0"/>
<path d="M96.1313 72.7798L96.0525 72.99L96.1791 73.1736L95.957 73.1615L95.8232 73.3403L95.7635 73.1253L95.5557 73.0504L95.742 72.9272L95.7468 72.7025L95.9187 72.8426L96.1313 72.7798Z" fill="#E0E0E0"/>
<path d="M23.7314 90.3607H36.236C36.236 90.3607 35.1301 88.3264 31.9126 88.6212C28.8384 88.9038 28.6831 87.621 27.1185 87.4615C25.5564 87.3045 24.2522 88.5173 23.7314 90.3607Z" fill="#E0E0E0"/>
<path d="M26.2158 40.5655H38.7204C38.7204 40.5655 37.6144 38.5313 34.3969 38.826C31.3227 39.1087 31.1675 37.8258 29.6029 37.6664C28.0384 37.5069 26.7365 38.7197 26.2158 40.5655Z" fill="#F5F5F5"/>
<path d="M89.7251 49.3596H99.9987C99.9987 49.3596 99.091 47.6877 96.4444 47.9317C93.9196 48.1637 93.7906 47.1079 92.5055 46.9798C91.2228 46.8494 90.1527 47.8448 89.7251 49.3596Z" fill="#F5F5F5"/>
<path d="M69.2089 69.8709C69.7201 65.9764 67.0114 62.7632 63.629 60.8328C60.2467 58.9025 56.3222 58.255 52.5863 57.1823C49.0631 56.1701 45.5589 54.6915 42.9481 52.0919C40.3373 49.4924 38.7728 45.5858 39.7115 42.0029C39.948 41.1042 40.3684 40.2006 41.1304 39.6812C41.8947 39.1617 43.0604 39.1762 43.6289 39.9058C44.8423 41.4617 42.4776 44.2473 43.9585 45.5447C44.2977 45.8418 44.7659 45.953 45.117 46.2356C46.0534 46.9894 45.75 48.4583 45.8814 49.6615C46.1418 52.0412 48.3489 53.6937 50.5154 54.6577C53.4176 55.9478 56.561 56.5566 59.64 57.3225C62.719 58.0883 65.8218 59.0523 68.3872 60.9367C70.9526 62.8212 73.1765 65.7711 73.1597 68.977C73.155 69.8733 73.0427 70.975 72.4861 71.6732C71.9296 72.3714 71.2226 72.5164 70.42 72.1347C69.6174 71.753 69.0608 71.1635 69.2089 69.8709Z" fill="#E8505B"/>
<g opacity="0.8">
<path d="M69.2089 69.8709C69.7201 65.9764 67.0114 62.7632 63.629 60.8328C60.2467 58.9025 56.3222 58.255 52.5863 57.1823C49.0631 56.1701 45.5589 54.6915 42.9481 52.0919C40.3373 49.4924 38.7728 45.5858 39.7115 42.0029C39.948 41.1042 40.3684 40.2006 41.1304 39.6812C41.8947 39.1617 43.0604 39.1762 43.6289 39.9058C44.8423 41.4617 42.4776 44.2473 43.9585 45.5447C44.2977 45.8418 44.7659 45.953 45.117 46.2356C46.0534 46.9894 45.75 48.4583 45.8814 49.6615C46.1418 52.0412 48.3489 53.6937 50.5154 54.6577C53.4176 55.9478 56.561 56.5566 59.64 57.3225C62.719 58.0883 65.8218 59.0523 68.3872 60.9367C70.9526 62.8212 73.1765 65.7711 73.1597 68.977C73.155 69.8733 73.0427 70.975 72.4861 71.6732C71.9296 72.3714 71.2226 72.5164 70.42 72.1347C69.6174 71.753 69.0608 71.1635 69.2089 69.8709Z" fill="white"/>
</g>
<path d="M52.8465 38.9177C52.7246 37.4754 53.7876 36.2191 54.9962 35.5451C56.2049 34.871 57.5879 34.598 58.8348 34.0013C61.9281 32.5179 63.8939 29.0292 64.0397 25.4488C64.1854 21.8683 62.6518 18.2927 60.2513 15.6618C59.2767 14.5939 58.0752 13.4753 58.0609 12.0161C58.0465 10.494 59.5036 9.29572 60.9607 9.31505C62.4178 9.33438 63.7602 10.3201 64.632 11.5619C65.5039 12.8037 65.9864 14.2823 66.457 15.7318C66.1226 15.1254 66.8105 14.3741 67.4721 14.4369C68.1338 14.5021 68.6569 15.0602 69.0654 15.6159C70.821 18.0052 71.6881 21.0759 71.4468 24.033C71.2056 26.9902 69.8536 29.8048 67.7444 31.752C65.3869 33.924 62.2697 34.9435 59.248 35.9075C57.1436 36.5791 55.0416 37.2507 52.9372 37.9224" fill="#E8505B"/>
<g opacity="0.8">
<path d="M52.8465 38.9177C52.7246 37.4754 53.7876 36.2191 54.9962 35.5451C56.2049 34.871 57.5879 34.598 58.8348 34.0013C61.9281 32.5179 63.8939 29.0292 64.0397 25.4488C64.1854 21.8683 62.6518 18.2927 60.2513 15.6618C59.2767 14.5939 58.0752 13.4753 58.0609 12.0161C58.0465 10.494 59.5036 9.29572 60.9607 9.31505C62.4178 9.33438 63.7602 10.3201 64.632 11.5619C65.5039 12.8037 65.9864 14.2823 66.457 15.7318C66.1226 15.1254 66.8105 14.3741 67.4721 14.4369C68.1338 14.5021 68.6569 15.0602 69.0654 15.6159C70.821 18.0052 71.6881 21.0759 71.4468 24.033C71.2056 26.9902 69.8536 29.8048 67.7444 31.752C65.3869 33.924 62.2697 34.9435 59.248 35.9075C57.1436 36.5791 55.0416 37.2507 52.9372 37.9224" fill="white"/>
</g>
<path d="M51.091 8.60964C50.4652 8.87539 50.1212 9.6799 50.3577 10.325C50.5942 10.97 51.3729 11.3517 52.0202 11.1416C52.6675 10.9314 53.0784 10.1607 52.8992 9.49629C52.7201 8.8319 51.9772 8.38495 51.3132 8.53716" fill="#E8505B"/>
<g opacity="0.8">
<path d="M51.091 8.60964C50.4652 8.87539 50.1212 9.6799 50.3577 10.325C50.5942 10.97 51.3729 11.3517 52.0202 11.1416C52.6675 10.9314 53.0784 10.1607 52.8992 9.49629C52.7201 8.8319 51.9772 8.38495 51.3132 8.53716" fill="white"/>
</g>
<path d="M58.8706 101.699C58.0967 100.078 58.7703 98.0556 60.0029 96.7558C61.2354 95.456 62.917 94.7143 64.5485 93.9896C68.1434 92.3878 71.9509 90.4792 73.7806 86.9615C74.3969 85.7753 74.748 84.4707 75.0943 83.1757C75.7655 80.6728 76.3938 77.8292 75.0442 75.6235C74.6548 74.9881 74.072 74.4252 73.3458 74.2947C72.5194 74.1473 71.669 74.6064 71.1578 75.2828C70.6491 75.9569 70.4293 76.8145 70.3242 77.6553C70.1236 79.2595 70.2908 80.8903 70.1236 82.4969C69.9564 84.1035 69.3759 85.785 68.0646 86.7103C66.4737 87.8337 64.2021 87.58 62.6543 88.7663C61.405 89.723 60.9297 91.3852 59.9551 92.6245C59.1334 93.6658 57.9868 94.3785 56.9335 95.1782C55.8825 95.9803 54.8649 96.9564 54.5066 98.2392C54.1363 99.5704 54.5997 101.102 55.646 101.994C56.6922 102.885 58.2615 103.09 59.4965 102.496" fill="#E8505B"/>
<g opacity="0.8">
<path d="M58.8706 101.699C58.0967 100.078 58.7703 98.0556 60.0029 96.7558C61.2354 95.456 62.917 94.7143 64.5485 93.9896C68.1434 92.3878 71.9509 90.4792 73.7806 86.9615C74.3969 85.7753 74.748 84.4707 75.0943 83.1757C75.7655 80.6728 76.3938 77.8292 75.0442 75.6235C74.6548 74.9881 74.072 74.4252 73.3458 74.2947C72.5194 74.1473 71.669 74.6064 71.1578 75.2828C70.6491 75.9569 70.4293 76.8145 70.3242 77.6553C70.1236 79.2595 70.2908 80.8903 70.1236 82.4969C69.9564 84.1035 69.3759 85.785 68.0646 86.7103C66.4737 87.8337 64.2021 87.58 62.6543 88.7663C61.405 89.723 60.9297 91.3852 59.9551 92.6245C59.1334 93.6658 57.9868 94.3785 56.9335 95.1782C55.8825 95.9803 54.8649 96.9564 54.5066 98.2392C54.1363 99.5704 54.5997 101.102 55.646 101.994C56.6922 102.885 58.2615 103.09 59.4965 102.496" fill="white"/>
</g>
<path d="M34.9534 19.8028C33.6874 18.8533 32.9135 17.2636 32.9422 15.6691C32.9708 14.0746 33.7997 12.5163 35.0967 11.6103C35.83 11.1005 36.7019 10.7865 37.354 10.1728C37.9344 9.62681 38.3119 8.87062 38.9616 8.41158C39.7689 7.84142 40.9394 7.86558 41.7228 8.47198C42.5063 9.07597 42.8383 10.2115 42.5063 11.1513C42.2077 11.9993 41.4553 12.6178 41.14 13.4609C40.8008 14.3669 41.0206 15.384 40.894 16.3432C40.7387 17.5246 40.0293 18.619 39.0213 19.2326C38.0133 19.8463 36.7258 19.9695 35.6198 19.554" fill="#E8505B"/>
<g opacity="0.8">
<path d="M34.9534 19.8028C33.6874 18.8533 32.9135 17.2636 32.9422 15.6691C32.9708 14.0746 33.7997 12.5163 35.0967 11.6103C35.83 11.1005 36.7019 10.7865 37.354 10.1728C37.9344 9.62681 38.3119 8.87062 38.9616 8.41158C39.7689 7.84142 40.9394 7.86558 41.7228 8.47198C42.5063 9.07597 42.8383 10.2115 42.5063 11.1513C42.2077 11.9993 41.4553 12.6178 41.14 13.4609C40.8008 14.3669 41.0206 15.384 40.894 16.3432C40.7387 17.5246 40.0293 18.619 39.0213 19.2326C38.0133 19.8463 36.7258 19.9695 35.6198 19.554" fill="white"/>
</g>
<path d="M36.6874 22.0521H36.3386C35.6244 22.0521 35.0464 21.4674 35.0464 20.7451V14.623H37.982V20.7451C37.982 21.465 37.4016 22.0521 36.6874 22.0521Z" fill="#E8505B"/>
<path d="M35.0464 14.623L36.513 11.9003L37.982 14.623H35.0464Z" fill="#FFBE9D"/>
<path d="M35.9326 12.9778C35.9326 12.9778 36.3793 13.6567 37.0959 12.9778L36.5154 11.9003L35.9326 12.9778Z" fill="#E8505B"/>
<path d="M38.0229 20.4454C38.0229 20.4792 37.3541 20.5058 36.53 20.5058C35.7059 20.5058 35.0371 20.4792 35.0371 20.4454C35.0371 20.4116 35.7059 20.385 36.53 20.385C37.3541 20.385 38.0229 20.4116 38.0229 20.4454Z" fill="#263238"/>
<path d="M37.9916 19.9913C37.9916 20.0251 37.3371 20.0517 36.5297 20.0517C35.7224 20.0517 35.0679 20.0251 35.0679 19.9913C35.0679 19.9575 35.7224 19.9309 36.5297 19.9309C37.3371 19.9309 37.9916 19.9575 37.9916 19.9913Z" fill="#263238"/>
<path d="M35.9088 14.6665C35.9423 14.6665 35.9686 15.8527 35.9686 17.3144C35.9686 18.776 35.9423 19.9623 35.9088 19.9623C35.8754 19.9623 35.8491 18.7785 35.8491 17.3144C35.8491 15.8527 35.8754 14.6665 35.9088 14.6665Z" fill="#FAFAFA"/>
<path d="M37.0958 14.6665C37.1293 14.6665 37.1556 15.8527 37.1556 17.3144C37.1556 18.776 37.1293 19.9623 37.0958 19.9623C37.0624 19.9623 37.0361 18.7785 37.0361 17.3144C37.0361 15.8527 37.0624 14.6665 37.0958 14.6665Z" fill="#FAFAFA"/>
<path d="M60.5501 98.2875L73.8883 98.8649L74.2108 99.6501L65.4684 114.001L49.689 113.535L60.5501 98.2875Z" fill="#263238"/>
<path d="M49.0894 112.136L64.9643 113.054L73.2553 100.039L67.4342 100.517L52.6986 105.767L49.0894 112.136Z" fill="#E0E0E0"/>
<path d="M46.8609 111.172L61.4388 111.404C60.8321 109.517 62.2605 106.862 64.2216 105.968C65.521 105.376 67.9646 104.608 69.2258 103.953C71.6216 102.709 73.7881 100.355 73.5994 98.3333L67.6111 98.14L59.9698 97.8405C59.3296 99.7587 57.9633 101.013 55.8852 101.769C54.0268 102.445 51.9105 102.443 50.0951 103.211C47.1762 104.453 45.7741 108.459 46.8609 111.172Z" fill="#EBEBEB"/>
<path d="M46.8608 111.172C46.8608 111.172 46.8464 111.14 46.8249 111.078C46.8011 111.01 46.7676 110.916 46.7246 110.792C46.6745 110.669 46.6434 110.505 46.6004 110.314C46.5479 110.123 46.5311 109.899 46.5001 109.642C46.4643 109.133 46.469 108.495 46.6147 107.768C46.7628 107.045 47.0447 106.229 47.5487 105.427C47.6801 105.231 47.8043 105.021 47.9691 104.835C48.0479 104.738 48.122 104.637 48.208 104.542C48.2963 104.451 48.3871 104.359 48.4779 104.267C48.5663 104.17 48.6666 104.086 48.7693 104.001C48.872 103.917 48.9723 103.827 49.0822 103.748C49.3115 103.603 49.5313 103.433 49.7916 103.32C50.802 102.805 52.0083 102.588 53.2647 102.358C53.8953 102.242 54.5427 102.122 55.1948 101.94C55.8445 101.754 56.4966 101.506 57.1152 101.158C57.4258 100.986 57.7267 100.788 58.0134 100.563C58.3 100.341 58.5675 100.087 58.8088 99.8023C59.2985 99.2418 59.6687 98.5605 59.9171 97.826L59.9314 97.7874L59.972 97.7898C62.0024 97.8671 64.1307 97.9492 66.3402 98.0362C68.5473 98.1232 70.8332 98.1836 73.1741 98.2633C73.3174 98.2681 73.4607 98.273 73.6017 98.2778L73.6542 98.2802L73.659 98.3334C73.6996 98.7996 73.616 99.2659 73.4655 99.696C73.3986 99.9158 73.2935 100.119 73.198 100.324C73.0857 100.52 72.9806 100.72 72.8492 100.904C72.3524 101.655 71.7146 102.283 71.0434 102.834C70.3651 103.383 69.6293 103.837 68.865 104.197C68.0958 104.547 67.3171 104.832 66.5552 105.117C65.7932 105.402 65.0384 105.673 64.3218 105.987C63.9706 106.151 63.6338 106.342 63.34 106.589C63.1848 106.7 63.0558 106.842 62.9149 106.968C62.7907 107.111 62.6521 107.239 62.5398 107.391C62.0693 107.975 61.7158 108.637 61.5199 109.328C61.3145 110.014 61.2906 110.742 61.4841 111.392L61.5032 111.457H61.4363C57.0197 111.377 53.377 111.312 50.8355 111.266C49.5671 111.239 48.5758 111.22 47.8951 111.206C47.5583 111.196 47.3027 111.191 47.1235 111.186C46.9491 111.179 46.8608 111.172 46.8608 111.172C46.8608 111.172 46.9515 111.169 47.1259 111.169C47.3027 111.169 47.5606 111.172 47.8974 111.174C48.5782 111.181 49.5695 111.193 50.8379 111.208C53.3818 111.244 57.0245 111.295 61.4411 111.355L61.3933 111.421C61.1903 110.749 61.2141 110 61.4243 109.299C61.6226 108.592 61.9809 107.917 62.4586 107.323C62.5709 107.168 62.7118 107.036 62.8384 106.891C62.9817 106.763 63.1131 106.618 63.2732 106.504C63.5717 106.25 63.9181 106.055 64.2764 105.886C64.9978 105.567 65.7526 105.296 66.5146 105.009C67.2765 104.724 68.0528 104.436 68.8148 104.091C69.572 103.735 70.2982 103.284 70.9694 102.742C71.6334 102.196 72.2616 101.576 72.7513 100.836C72.8803 100.658 72.983 100.459 73.0929 100.269C73.186 100.068 73.2864 99.8699 73.3532 99.6573C73.4966 99.2393 73.5778 98.79 73.5396 98.3454L73.5969 98.3986C73.4584 98.3938 73.3126 98.3889 73.1693 98.3841C70.8284 98.3044 68.5425 98.244 66.3354 98.1546C64.1283 98.0676 61.9976 97.983 59.9673 97.9033L60.0222 97.8647C59.769 98.6112 59.3916 99.307 58.89 99.8772C58.644 100.165 58.3693 100.423 58.0779 100.65C57.7888 100.88 57.4831 101.08 57.1654 101.252C56.5372 101.602 55.8755 101.851 55.221 102.039C54.5642 102.221 53.9121 102.341 53.2814 102.455C52.025 102.682 50.8235 102.895 49.8275 103.4C49.5719 103.511 49.3521 103.677 49.1276 103.818C49.0201 103.897 48.9198 103.984 48.8195 104.066C48.7167 104.149 48.6164 104.231 48.5304 104.327C48.4397 104.419 48.3513 104.509 48.2629 104.598C48.1769 104.69 48.1053 104.791 48.0264 104.885C47.864 105.071 47.7398 105.277 47.6084 105.47C47.1044 106.26 46.8202 107.067 46.6673 107.785C46.5168 108.505 46.5049 109.138 46.5359 109.645C46.5646 109.899 46.5789 110.123 46.6267 110.314C46.6673 110.505 46.6936 110.667 46.7413 110.792C46.7796 110.916 46.8106 111.012 46.8321 111.08C46.8536 111.138 46.8608 111.172 46.8608 111.172Z" fill="#263238"/>
<path d="M64.064 98.0821C64.0544 98.0797 64.0831 97.9879 64.0974 97.8188C64.1094 97.6521 64.0998 97.4008 63.9828 97.123C63.8705 96.85 63.646 96.5456 63.2949 96.3764C62.9461 96.2073 62.4875 96.1711 62.0671 96.3329C61.6443 96.49 61.3385 96.8379 61.1785 97.1979C61.0137 97.5578 60.9898 97.9299 61.0376 98.2246C61.0854 98.5218 61.1976 98.7465 61.286 98.889C61.3768 99.0316 61.4436 99.0992 61.4365 99.1065C61.4317 99.1113 61.3529 99.0533 61.2478 98.9156C61.1427 98.7779 61.0161 98.5508 60.954 98.2391C60.8943 97.9323 60.9062 97.5361 61.0782 97.152C61.2406 96.7702 61.5655 96.3909 62.0241 96.2218C62.4755 96.0503 62.97 96.0914 63.3426 96.2798C63.7224 96.4682 63.9541 96.8016 64.0616 97.094C64.1739 97.3911 64.1715 97.6545 64.1452 97.826C64.1309 97.913 64.1142 97.9782 64.0974 98.0217C64.0783 98.0628 64.0688 98.0845 64.064 98.0821Z" fill="#263238"/>
<path d="M66.3496 98.0821C66.3401 98.0797 66.3687 97.9879 66.3831 97.8188C66.395 97.6521 66.3855 97.4008 66.2684 97.123C66.1562 96.85 65.9316 96.5456 65.5805 96.3764C65.2318 96.2073 64.7731 96.1711 64.3527 96.3329C63.9299 96.49 63.6242 96.8379 63.4642 97.1979C63.2993 97.5578 63.2754 97.9299 63.3232 98.2246C63.371 98.5218 63.4833 98.7465 63.5716 98.889C63.6624 99.0316 63.7293 99.0992 63.7221 99.1065C63.7173 99.1113 63.6385 99.0533 63.5334 98.9156C63.4283 98.7779 63.3017 98.5508 63.2396 98.2391C63.1799 97.9323 63.1918 97.5361 63.3638 97.152C63.5263 96.7702 63.8511 96.3909 64.3097 96.2218C64.7612 96.0503 65.2556 96.0914 65.6283 96.2798C66.0081 96.4682 66.2398 96.8016 66.3472 97.094C66.4595 97.3911 66.4571 97.6545 66.4309 97.826C66.4165 97.913 66.3998 97.9782 66.3831 98.0217C66.3616 98.0628 66.352 98.0845 66.3496 98.0821Z" fill="#263238"/>
<path d="M68.0841 98.2029C68.0722 98.2005 68.0984 98.1063 68.1032 97.9371C68.1056 97.768 68.0817 97.5192 67.9503 97.2486C67.8237 96.9804 67.5825 96.6905 67.2194 96.5431C66.8635 96.3933 66.4001 96.3837 65.9916 96.5697C65.5784 96.7509 65.2918 97.1157 65.1532 97.4829C65.0075 97.8526 65.0075 98.2246 65.0696 98.517C65.1341 98.8117 65.2583 99.0292 65.3563 99.1644C65.4542 99.3022 65.5259 99.3674 65.5187 99.3746C65.5139 99.3795 65.4327 99.3263 65.3204 99.1934C65.2082 99.0606 65.0672 98.8431 64.9884 98.5363C64.9096 98.2319 64.9024 97.8381 65.0505 97.4443C65.1914 97.0529 65.4948 96.6567 65.9415 96.461C66.3834 96.2629 66.8778 96.275 67.26 96.4441C67.6494 96.6108 67.9002 96.9297 68.0244 97.2172C68.1534 97.5071 68.1653 97.7704 68.1486 97.9444C68.139 98.0314 68.1247 98.099 68.1104 98.1425C68.096 98.1811 68.0889 98.2029 68.0841 98.2029Z" fill="#263238"/>
<path d="M69.9445 98.3092C69.9325 98.3068 69.954 98.2125 69.9493 98.0434C69.9445 97.8743 69.9063 97.6279 69.7606 97.3646C69.6196 97.1036 69.364 96.8258 68.9938 96.6977C68.6307 96.5673 68.1697 96.5842 67.7684 96.7896C67.3648 96.9925 67.0996 97.3742 66.9802 97.7463C66.8536 98.1232 66.8727 98.4952 66.9515 98.7827C67.0303 99.0726 67.1665 99.2828 67.2716 99.4157C67.3767 99.5486 67.4507 99.609 67.4436 99.6162C67.4412 99.621 67.3552 99.5727 67.2358 99.4471C67.1163 99.3215 66.9658 99.1113 66.8703 98.8093C66.7771 98.5097 66.7485 98.1159 66.8751 97.7149C66.9945 97.3186 67.2764 96.9055 67.7135 96.6857C68.1458 96.4634 68.6379 96.4513 69.0296 96.5963C69.4285 96.7412 69.6937 97.0481 69.8322 97.3259C69.9755 97.6086 70.0018 97.8719 69.9947 98.0458C69.9899 98.1328 69.9803 98.2005 69.9684 98.244C69.9564 98.2874 69.9493 98.3116 69.9445 98.3092Z" fill="#263238"/>
<path d="M71.8077 98.2657C71.7957 98.2633 71.8149 98.1691 71.8053 97.9999C71.7957 97.8332 71.7504 97.5844 71.5975 97.3259C71.4494 97.0698 71.1866 96.7992 70.814 96.6808C70.4462 96.56 69.9851 96.589 69.591 96.8065C69.1921 97.0215 68.9389 97.408 68.829 97.7849C68.7144 98.1642 68.7431 98.5363 68.829 98.8214C68.9174 99.1089 69.0584 99.3166 69.1658 99.4447C69.2757 99.5751 69.3498 99.6331 69.345 99.6404C69.3426 99.6452 69.2566 99.5993 69.1324 99.4761C69.0106 99.3529 68.8529 99.1475 68.7502 98.8479C68.6475 98.5508 68.6093 98.1594 68.7239 97.7535C68.8338 97.3525 69.1037 96.9321 69.5337 96.7002C69.9589 96.4658 70.4533 96.4392 70.8474 96.5745C71.2487 96.7098 71.5234 97.007 71.6691 97.2824C71.8196 97.5602 71.8555 97.8236 71.8507 97.9975C71.8483 98.0845 71.8411 98.1521 71.8292 98.198C71.8196 98.2439 71.8125 98.2657 71.8077 98.2657Z" fill="#263238"/>
<path d="M73.3795 98.4783C73.3675 98.4759 73.389 98.3817 73.3866 98.2125C73.3842 98.0434 73.3484 97.7946 73.2051 97.5312C73.0666 97.2703 72.8157 96.9901 72.4479 96.8572C72.0848 96.7219 71.6238 96.734 71.2201 96.9345C70.8141 97.1326 70.5441 97.5095 70.4199 97.8816C70.2909 98.256 70.3029 98.6281 70.3793 98.918C70.4558 99.2103 70.5871 99.4205 70.6922 99.5534C70.7949 99.6863 70.869 99.7491 70.8618 99.7563C70.8594 99.7612 70.7734 99.7129 70.6564 99.5848C70.5394 99.4568 70.3889 99.2442 70.2981 98.9422C70.2073 98.6426 70.1835 98.2488 70.3148 97.8477C70.439 97.4515 70.7257 97.0432 71.1652 96.8282C71.5999 96.6108 72.092 96.6035 72.4837 96.7557C72.8802 96.9055 73.143 97.2148 73.2768 97.495C73.4177 97.7801 73.4416 98.0434 73.4296 98.2174C73.4248 98.3044 73.4129 98.372 73.401 98.4155C73.3914 98.4566 73.3819 98.4783 73.3795 98.4783Z" fill="#263238"/>
<path d="M80.2491 48.9875C79.6209 48.9706 78.9568 48.9923 78.2737 49.0769C74.158 49.5939 71.091 53.1695 71.0982 57.3636C71.1005 58.5861 71.2295 59.9511 71.6093 61.3137C72.7583 65.4353 73.1118 69.0665 72.9804 70.835L76.8261 72.9248C76.8261 72.9248 78.6057 70.3373 80.3255 69.2235C82.0453 68.1074 87.7685 65.1261 90.0354 62.0578C91.4972 60.0816 91.7767 56.0252 88.294 52.4761C86.1657 50.309 83.2683 49.0721 80.2491 48.9875Z" fill="#E8505B"/>
<path d="M71.1602 75.3359L74.6333 77.2325L72.3712 80.1389L70.0566 79.0734L71.1602 75.3359Z" fill="#455A64"/>
<path d="M71.3276 75.4518C71.2966 75.4398 71.6405 74.3985 72.0968 73.1229C72.553 71.8472 72.9471 70.8229 72.9782 70.8349C73.0092 70.847 72.6653 71.8883 72.209 73.1639C71.7552 74.4396 71.3587 75.4639 71.3276 75.4518Z" fill="#263238"/>
<path d="M74.4137 77.0899C74.385 77.073 74.9296 76.0873 75.6295 74.8889C76.3294 73.6906 76.9194 72.7339 76.948 72.7508C76.9767 72.7677 76.4321 73.7534 75.7322 74.9518C75.0323 76.1501 74.4423 77.1068 74.4137 77.0899Z" fill="#263238"/>
<g opacity="0.4">
<path d="M81.4077 49.0963C81.2524 49.1059 79.3415 51.3673 78.4959 52.899C75.6511 58.0522 75.5245 63.0653 74.7338 68.9119C74.6215 69.7478 74.2107 71.5477 74.2179 71.5067C74.6383 71.8401 76.0523 72.5044 76.0523 72.5044C76.0523 72.5044 77.3852 70.8761 77.9155 70.0571C80.039 66.7762 82.3417 64.2201 84.1594 60.7581C85.9772 57.296 87.7257 54.2253 86.0441 50.6932C86.0441 50.6956 83.1323 48.9996 81.4077 49.0963Z" fill="black"/>
</g>
<path d="M90.0495 62.5772C90.0472 62.5772 90.0304 62.5409 89.9994 62.4661C89.9683 62.3936 89.9301 62.28 89.8656 62.1399C89.7414 61.8596 89.536 61.4538 89.1944 60.9972C88.8528 60.5454 88.3751 60.0332 87.7182 59.6056C87.0733 59.1659 86.2397 58.818 85.2985 58.6996L85.2746 58.6972L85.2603 58.6778C84.8184 58.0763 84.312 57.4529 83.7077 56.8755C83.1057 56.3005 82.4011 55.7714 81.589 55.3994C80.7792 55.0346 79.9073 54.8727 79.0857 54.9162C78.264 54.9573 77.4924 55.223 76.8953 55.6555L76.8618 55.6796L76.8308 55.6506C76.1166 55.0152 75.2614 54.6867 74.4899 54.5997C73.7136 54.5103 73.0257 54.6529 72.5002 54.8558C71.9723 55.0587 71.5972 55.3197 71.3584 55.5057C71.2389 55.5999 71.1482 55.6772 71.0909 55.7328C71.0311 55.7859 71.0001 55.8125 70.9977 55.8101C70.9953 55.8077 71.024 55.7763 71.0789 55.7183C71.1338 55.6603 71.2198 55.5782 71.3369 55.4767C71.5734 55.2786 71.9436 55.008 72.4787 54.793C73.0089 54.578 73.7088 54.4233 74.5018 54.5079C75.2901 54.59 76.1667 54.9186 76.9024 55.5685L76.8356 55.5661C77.447 55.1191 78.2401 54.8437 79.0833 54.7978C79.9241 54.7495 80.815 54.9138 81.6415 55.2882C82.468 55.6651 83.1822 56.2039 83.7913 56.7886C84.4004 57.3732 84.9092 58.0038 85.3487 58.6102L85.3129 58.5884C86.2755 58.7141 87.1187 59.0765 87.7684 59.5282C88.43 59.9704 88.9078 60.4946 89.247 60.9561C89.5838 61.4224 89.782 61.8355 89.8991 62.123C89.9588 62.2655 89.9898 62.3815 90.0161 62.4564C90.04 62.5361 90.0519 62.5748 90.0495 62.5772Z" fill="#263238"/>
<path d="M82.9004 67.7111C82.8765 67.7184 82.8813 67.3608 82.5684 66.8655C82.4107 66.6263 82.1742 66.3533 81.8303 66.148C81.4935 65.9378 81.0444 65.7953 80.5571 65.8436L80.5094 65.8484L80.5022 65.8001C80.4257 65.3 80.2203 64.7685 79.8716 64.2974C79.5252 63.8287 79.0379 63.4107 78.4456 63.1764C77.9583 62.9807 77.4399 62.9106 76.955 62.9444C76.4678 62.9807 76.0115 63.1208 75.627 63.3237L75.5911 63.3431L75.5625 63.3117C75.1779 62.8961 74.6811 62.6618 74.2272 62.5796C73.771 62.4854 73.3554 62.5337 73.0305 62.6183C72.3736 62.7995 72.0941 63.1208 72.0798 63.0942C72.0774 63.0918 72.0941 63.0749 72.13 63.0411C72.1658 63.0097 72.216 62.9589 72.2924 62.9034C72.4429 62.7946 72.6794 62.6521 73.0114 62.5531C73.341 62.4564 73.7686 62.4008 74.2415 62.4902C74.7121 62.5675 75.2328 62.8019 75.6389 63.2368L75.5744 63.2247C75.9709 63.0097 76.4415 62.8623 76.9455 62.8236C77.4471 62.7874 77.9845 62.8575 78.4886 63.0604C79.1048 63.302 79.6064 63.7369 79.9623 64.2225C80.3206 64.7105 80.5285 65.2613 80.6025 65.7783L80.5476 65.7349C81.0611 65.689 81.5293 65.846 81.8733 66.0707C82.2268 66.2905 82.4633 66.5756 82.6185 66.8269C82.7714 67.0806 82.8407 67.3076 82.8741 67.4623C82.8908 67.5396 82.8932 67.6 82.898 67.6411C82.9028 67.6894 82.9052 67.7111 82.9004 67.7111Z" fill="#263238"/>
<path d="M73.9621 78.1481C73.9525 78.1553 73.9239 78.0998 73.8355 78.0635C73.7471 78.0249 73.6014 78.02 73.4294 78.0756C73.3411 78.0998 73.2407 78.1312 73.1213 78.1336C73.0019 78.136 72.8705 78.078 72.7773 77.9814C72.5934 77.7881 72.5217 77.5055 72.3498 77.3122C72.2638 77.218 72.1491 77.1672 72.0297 77.1769C71.9103 77.1817 71.7884 77.2228 71.6666 77.2494C71.5472 77.2784 71.4206 77.2977 71.3035 77.2687C71.1865 77.2445 71.0933 77.1865 71.0193 77.1213C70.8712 76.9909 70.8067 76.8362 70.79 76.7299C70.7733 76.6236 70.79 76.5632 70.7948 76.5632C70.8043 76.5632 70.8043 76.6212 70.8354 76.7178C70.864 76.8121 70.9357 76.945 71.0718 77.0537C71.1411 77.1068 71.2247 77.1527 71.3226 77.1696C71.4182 77.189 71.5257 77.172 71.6403 77.1406C71.755 77.1117 71.8792 77.0657 72.0249 77.0561C72.1706 77.044 72.333 77.1117 72.4358 77.2276C72.6388 77.4596 72.7009 77.7374 72.8562 77.9017C72.9326 77.9838 73.0258 78.0297 73.1237 78.0321C73.2216 78.037 73.3172 78.0104 73.4079 77.9935C73.5895 77.9452 73.7591 77.9621 73.8546 78.0225C73.9525 78.0804 73.9669 78.1481 73.9621 78.1481Z" fill="#263238"/>
<path d="M74.3608 77.5852C74.3464 77.6142 73.5868 77.2348 72.6672 76.7396C71.7476 76.2419 71.0119 75.8167 71.0286 75.7877C71.0429 75.7587 71.8025 76.138 72.7221 76.6333C73.6418 77.1285 74.3751 77.5562 74.3608 77.5852Z" fill="#263238"/>
<path d="M73.6708 78.4694C73.6732 78.479 73.6231 78.4935 73.5395 78.5322C73.4965 78.5515 73.4487 78.5805 73.3818 78.6071C73.3149 78.6361 73.2289 78.6457 73.1429 78.6385C72.9686 78.6264 72.756 78.5708 72.5697 78.4162C72.4789 78.3413 72.4001 78.2302 72.3523 78.1118C72.3021 77.9983 72.2615 77.8799 72.1851 77.7953C72.0274 77.6238 71.7695 77.6045 71.5569 77.6117C71.3371 77.619 71.1221 77.6262 70.9525 77.5537C70.7853 77.4837 70.685 77.3629 70.6468 77.2711C70.6086 77.1768 70.6205 77.1189 70.6277 77.1189C70.6372 77.1164 70.642 77.172 70.6874 77.2493C70.7328 77.3266 70.8307 77.4208 70.9812 77.474C71.1317 77.5271 71.3276 77.5151 71.5521 77.5006C71.7695 77.4885 72.0633 77.4933 72.2735 77.7132C72.3714 77.8243 72.412 77.9548 72.4598 78.0635C72.5052 78.1746 72.5649 78.2616 72.6437 78.3317C72.8014 78.4718 72.9925 78.5322 73.1525 78.5539C73.3125 78.5829 73.4296 78.5153 73.5251 78.4887C73.6159 78.4621 73.6684 78.4645 73.6708 78.4694Z" fill="#263238"/>
<path d="M47.4457 55.9068L53.4531 55.0056L50.582 50.8912L49.0413 50.983C48.0046 51.0459 47.0922 51.6933 46.6813 52.6573C46.464 53.1695 46.4019 53.7372 46.507 54.2832L47.4457 55.9068Z" fill="#E8505B"/>
<path opacity="0.4" d="M47.4457 55.9068L53.4531 55.0056L50.582 50.8912L49.0413 50.983C48.0046 51.0459 47.0922 51.6933 46.6813 52.6573C46.464 53.1695 46.4019 53.7372 46.507 54.2832L47.4457 55.9068Z" fill="black"/>
<path d="M73.2458 62.6377C73.3079 62.8116 73.3748 63.017 73.444 63.2634C73.5037 63.476 73.5229 63.6959 73.5085 63.9133C73.4918 64.1791 73.4536 64.5318 73.3724 64.7178C73.2744 64.9474 73.5037 65.1793 73.6972 65.0657C73.8907 64.9498 74.1797 64.3216 74.1606 63.5147C74.1439 62.7053 74.9584 63.6741 75.2618 64.022C75.5651 64.3699 76.554 65.4016 76.7332 65.3919C76.9959 65.3774 77.0294 65.0899 76.7189 64.7492C76.4036 64.4038 75.546 63.3214 75.7347 63.1692C75.9211 63.0194 77.4426 64.8096 77.4426 64.8096C77.4426 64.8096 77.7054 65.2469 77.9299 65.0754C78.336 64.7686 76.5803 62.9856 76.4083 62.8189C76.2889 62.7029 76.4896 62.529 76.6114 62.6594C76.7356 62.7947 78.0876 64.4835 78.5032 64.1742C78.8209 63.9375 77.0724 62.6933 76.984 62.1859C76.8956 61.6786 78.2165 63.2659 78.5104 63.0291C78.6202 62.9397 78.6895 62.86 77.8033 62.0579C77.3733 61.6689 75.7347 60.5092 75.7347 60.5092L70.8046 46.231L66.9971 48.4367L73.2458 62.6377Z" fill="#FFBE9D"/>
<path d="M43.8987 35.637L38.3905 28.9883C38.3188 28.7588 38.2328 28.5365 38.1206 28.3263C37.8459 27.8069 37.3896 27.3551 36.8211 27.2295C36.4724 27.1522 36.0711 27.1884 35.7988 26.9565C35.677 26.8526 35.5934 26.7052 35.4668 26.6086C35.3378 26.5119 35.1252 26.4926 35.0416 26.6327C34.9843 26.7318 35.0201 26.8574 35.0655 26.9637C35.2709 27.4542 35.6029 27.889 36.0209 28.2128C35.505 28.3722 34.7669 28.6114 34.7669 28.6114C34.7669 28.6114 33.6012 27.3334 33.0065 27.3382C32.4117 27.343 33.489 28.4785 33.489 28.4785C33.489 28.4785 32.5335 27.5846 32.2373 27.8383C31.9411 28.0896 32.7007 28.7515 32.7007 28.7515C32.4595 28.6211 32.1967 28.4858 31.9268 28.5317C31.6569 28.5776 31.4252 28.8989 31.5709 29.1332C31.6258 29.2226 31.7214 29.2782 31.8145 29.3289C32.3042 29.6044 32.7915 29.8798 33.2812 30.1552C33.5272 30.2929 33.7852 30.4354 34.0646 30.4451C34.8075 30.4693 35.3736 30.003 36.1189 30.0223C36.1189 30.0223 40.2727 38.8671 40.6931 39.3237C41.1135 39.7804 50.2406 40.4013 50.2406 40.4013L55.5219 35.7989L43.8987 35.637Z" fill="#FFBE9D"/>
<path d="M60.445 83.8184L66.0703 86.2971L63.0582 93.3928C62.4061 93.0594 62.6187 88.8049 62.6187 88.8049L58.9497 87.365L60.445 83.8184Z" fill="#E8505B"/>
<g opacity="0.6">
<path d="M63.247 86.4784C63.3426 86.3576 63.5361 86.3286 63.6579 86.4204C63.7821 86.5122 63.8131 86.7103 63.7176 86.8335C63.6244 86.9567 63.3927 86.9978 63.2805 86.8939C63.1682 86.79 63.1443 86.5533 63.2638 86.4566" fill="white"/>
</g>
<path opacity="0.6" d="M66.0728 86.2972L65.4971 86.0701L62.8242 92.9579C62.8242 92.9579 62.8266 93.3324 63.0607 93.3928L66.0728 86.2972Z" fill="white"/>
<path d="M62.535 88.9039C62.5709 88.9184 62.6592 88.7517 62.8408 88.6285C63.0199 88.5005 63.2063 88.4787 63.2063 88.4401C63.2134 88.4063 62.9865 88.3676 62.7691 88.5198C62.5494 88.6696 62.5016 88.8967 62.535 88.9039Z" fill="#263238"/>
<path d="M62.5231 89.7809C62.5517 89.8026 62.6759 89.6794 62.8694 89.6239C63.0629 89.5635 63.2325 89.6021 63.2444 89.5659C63.2635 89.5345 63.0725 89.4233 62.8312 89.4982C62.5923 89.5683 62.492 89.764 62.5231 89.7809Z" fill="#263238"/>
<path d="M63.2254 90.5855C63.2469 90.5565 63.0964 90.4357 62.8695 90.4429C62.6449 90.4478 62.5016 90.5807 62.5231 90.6072C62.5422 90.6386 62.6879 90.5782 62.8743 90.5734C63.0582 90.5662 63.2063 90.6193 63.2254 90.5855Z" fill="#263238"/>
<path d="M61.7351 88.4811C61.7733 88.4811 61.7924 88.2999 61.8879 88.1115C61.9811 87.9182 62.1101 87.795 62.0886 87.7636C62.0719 87.7322 61.8832 87.8264 61.7709 88.0511C61.661 88.2782 61.7016 88.4884 61.7351 88.4811Z" fill="#263238"/>
<path d="M60.9751 87.952C60.9895 87.9593 61.0683 87.8312 61.1232 87.5969C61.1519 87.4809 61.171 87.336 61.1686 87.1765C61.1686 87.0968 61.1615 87.0122 61.1471 86.9253C61.14 86.8842 61.1352 86.8359 61.1089 86.7827C61.0898 86.7296 61.0086 86.6668 60.9345 86.6885C60.8653 86.7006 60.8151 86.7561 60.7912 86.8069C60.7673 86.8576 60.7602 86.9059 60.753 86.947C60.7387 87.034 60.7339 87.1185 60.7339 87.2007C60.7363 87.3626 60.7673 87.5075 60.8079 87.6211C60.8891 87.8506 60.9919 87.9617 61.0038 87.9545C61.0229 87.9448 60.9489 87.8168 60.8963 87.5945C60.87 87.4834 60.8509 87.3505 60.8533 87.2007C60.8557 87.1258 60.8629 87.0485 60.8772 86.9687C60.8892 86.8842 60.9154 86.8214 60.9584 86.8165C60.9751 86.8141 60.9799 86.8165 60.9942 86.8407C61.0086 86.8649 61.0134 86.9035 61.0205 86.9446C61.0349 87.0243 61.042 87.104 61.0468 87.1789C61.054 87.3287 61.0468 87.4664 61.0301 87.58C61.0038 87.8071 60.956 87.9448 60.9751 87.952Z" fill="#263238"/>
<path d="M61.0422 87.9279C61.0518 87.9182 60.9586 87.795 60.7437 87.6863C60.6362 87.6331 60.4976 87.5872 60.3376 87.5679C60.2588 87.5582 60.1728 87.5582 60.0868 87.5655C60.0008 87.5775 59.8861 87.5872 59.8121 87.7153C59.7786 87.7853 59.8097 87.865 59.8479 87.9061C59.8861 87.9496 59.9243 87.9714 59.9602 87.9979C60.0366 88.0462 60.1178 88.0801 60.1967 88.1018C60.3543 88.1453 60.5048 88.1356 60.6242 88.1066C60.8655 88.0462 60.9682 87.9206 60.9562 87.9134C60.9443 87.894 60.8273 87.9859 60.6075 88.0173C60.5 88.0318 60.3662 88.0293 60.2301 87.9858C60.1632 87.9641 60.0939 87.9327 60.0295 87.8916C59.9602 87.8481 59.9124 87.7926 59.9315 87.7684C59.9458 87.7322 60.0271 87.6983 60.0987 87.6935C60.1775 87.6838 60.254 87.6839 60.3256 87.6887C60.4713 87.6983 60.6003 87.7322 60.7054 87.7732C60.918 87.8506 61.0303 87.9448 61.0422 87.9279Z" fill="#263238"/>
<path d="M56.1118 93.5667L58.4384 98.4976L59.1669 102.933C59.2194 103.252 59.5276 103.46 59.8405 103.385C60.0149 103.344 60.1582 103.221 60.2251 103.052C60.6526 101.981 62.2076 98.0313 62.0166 97.681C61.7968 97.2751 59.9026 92.3152 59.9026 92.3152L56.1118 93.5667Z" fill="#E8505B"/>
<path opacity="0.6" d="M59.8428 103.385L61.8707 97.3452L61.9639 97.5554C62.0451 97.739 62.0594 97.9444 62.0045 98.1352C61.8564 98.6498 61.4193 100.061 60.2417 103.044C60.1724 103.221 60.0219 103.349 59.8428 103.385Z" fill="white"/>
<g opacity="0.6">
<path d="M60.1439 96.1976C60.0579 96.3401 60.1032 96.5479 60.2394 96.6397C60.3756 96.7315 60.5858 96.688 60.6717 96.5479C60.7601 96.4078 60.7147 96.1565 60.569 96.0816C60.4233 96.0067 60.1797 96.0695 60.1295 96.229" fill="white"/>
</g>
<path d="M60.0006 100.696C59.9792 100.723 59.7522 100.513 59.3963 100.505C59.0404 100.488 58.7992 100.682 58.7801 100.653C58.7705 100.643 58.8159 100.575 58.9234 100.505C59.0309 100.435 59.2028 100.377 59.4011 100.385C59.597 100.392 59.7666 100.464 59.8693 100.539C59.9696 100.616 60.0102 100.687 60.0006 100.696Z" fill="#263238"/>
<path d="M59.9457 101.522C59.9314 101.554 59.7021 101.464 59.413 101.505C59.124 101.542 58.9258 101.689 58.9043 101.662C58.878 101.643 59.0691 101.431 59.3987 101.387C59.726 101.344 59.9648 101.498 59.9457 101.522Z" fill="#263238"/>
<path d="M60.273 99.5437C60.261 99.5776 59.9075 99.4374 59.4537 99.464C58.9998 99.4833 58.663 99.6573 58.6463 99.6235C58.6272 99.5993 58.9616 99.365 59.4489 99.3432C59.9338 99.3166 60.2921 99.5196 60.273 99.5437Z" fill="#263238"/>
<path d="M59.6902 97.9854C59.6902 98.0216 59.3677 98.0289 59.007 98.1787C58.6439 98.3212 58.4051 98.5411 58.3812 98.5145C58.3573 98.4952 58.5747 98.2222 58.964 98.0675C59.351 97.9081 59.6949 97.9564 59.6902 97.9854Z" fill="#263238"/>
<path d="M59.0429 96.5214C59.0405 96.5576 58.6918 96.5166 58.3263 96.7026C57.9561 96.8814 57.7769 97.1858 57.7459 97.1665C57.734 97.1592 57.7602 97.0722 57.8438 96.9539C57.9274 96.8355 58.0755 96.6929 58.2738 96.5939C58.472 96.4948 58.6751 96.4634 58.8184 96.4682C58.9617 96.4731 59.0453 96.5069 59.0429 96.5214Z" fill="#263238"/>
<path d="M58.2116 96.4199C58.2044 96.4223 58.1638 96.3619 58.1208 96.2339C58.0778 96.1083 58.0348 95.915 58.0492 95.6734C58.0611 95.5574 58.0635 95.4125 58.171 95.2844C58.2236 95.2192 58.3334 95.1878 58.4194 95.2264C58.5054 95.2651 58.5604 95.3376 58.5962 95.4149C58.7323 95.7338 58.5986 96.1614 58.2665 96.3668C57.9297 96.5673 57.5213 96.5069 57.2585 96.2991C57.1964 96.2411 57.1367 96.1663 57.1367 96.0648C57.1367 95.9633 57.2227 95.8836 57.2968 95.8643C57.452 95.8208 57.5834 95.8643 57.698 95.8884C57.9297 95.9488 58.0993 96.0455 58.2068 96.1228C58.3143 96.2001 58.3645 96.2556 58.3597 96.2605C58.3478 96.2822 58.1256 96.072 57.6789 95.9706C57.5691 95.9512 57.4401 95.9222 57.3302 95.9585C57.2776 95.9778 57.2418 96.0165 57.2418 96.0672C57.2418 96.1155 57.28 96.1735 57.3302 96.217C57.5476 96.3861 57.9226 96.4393 58.2044 96.2653C58.4863 96.0962 58.601 95.7193 58.4959 95.4608C58.4696 95.398 58.4266 95.3448 58.3764 95.3231C58.3287 95.3013 58.2761 95.3134 58.2379 95.3521C58.1591 95.4342 58.1423 95.5695 58.128 95.6806C58.0898 96.1421 58.2355 96.4151 58.2116 96.4199Z" fill="#263238"/>
<path d="M63.9536 84.4199L57.5735 80.076L59.6851 59.1079L53.6418 55.5396L48.1169 54.2446C48.1169 54.2446 45.8095 59.1007 44.7823 62.21C42.5991 68.8225 41.068 71.1901 41.4167 75.9834C41.5266 77.5006 47.0659 81.2937 50.5629 83.4028C50.6106 83.886 50.6727 84.3088 50.7492 84.6591C51.9435 90.124 55.591 97.3887 55.591 97.3887L61.135 94.7819L59.3459 88.585L61.2091 89.6843L63.9536 84.4199ZM50.2404 70.9002L50.9857 67.5396C50.828 69.6777 50.6847 71.9053 50.582 74.0434C50.2237 73.0552 50.0995 71.956 50.2404 70.9002Z" fill="#263238"/>
<path d="M55.5912 97.3863C55.5888 97.3863 55.5744 97.3573 55.5482 97.2969C55.5195 97.2317 55.4813 97.1447 55.4335 97.0336C55.3332 96.7944 55.1899 96.4513 55.006 96.0116C54.6381 95.1225 54.1102 93.8324 53.4772 92.2307C52.8466 90.6289 52.0942 88.7203 51.3394 86.5701C51.1507 86.0313 50.9668 85.4781 50.7924 84.9055C50.7159 84.6156 50.618 84.3305 50.5678 84.0237C50.5535 83.9488 50.5368 83.8715 50.5248 83.7966L50.4986 83.567C50.4819 83.4148 50.4651 83.2602 50.4484 83.1056C50.3839 82.4871 50.329 81.859 50.2908 81.2187C50.2717 80.8998 50.2525 80.5761 50.2406 80.2499C50.2287 79.9262 50.2143 79.5952 50.2334 79.2666C50.3266 76.6308 50.5463 74.1351 50.7255 71.8617C50.9142 69.5907 51.0814 67.5444 51.2247 65.8243C51.3633 64.1065 51.4588 62.7149 51.5137 61.751C51.5424 61.2702 51.5591 60.8957 51.5711 60.642C51.5782 60.5188 51.583 60.4246 51.5854 60.3545C51.5902 60.2893 51.5926 60.2555 51.595 60.2555C51.5974 60.2555 51.5974 60.2893 51.5974 60.3545C51.5974 60.4246 51.595 60.5212 51.5926 60.6445C51.5902 60.8981 51.5806 61.2726 51.5567 61.7558C51.5161 62.7198 51.4325 64.1138 51.3059 65.8339C51.1698 67.5541 51.0097 69.6004 50.833 71.8738C50.6586 74.1472 50.4436 76.6477 50.3505 79.2739C50.3314 79.6025 50.3457 79.9262 50.3576 80.2499C50.3696 80.5737 50.3863 80.895 50.4078 81.2139C50.4484 81.8517 50.501 82.4799 50.5631 83.0959C50.5798 83.2505 50.5965 83.4028 50.6132 83.555L50.6395 83.7821C50.6514 83.857 50.6682 83.9294 50.6825 84.0043C50.7303 84.2991 50.8258 84.5866 50.9023 84.8741C51.0742 85.4442 51.2558 85.9975 51.4445 86.5338C52.1945 88.6816 52.9374 90.5926 53.5584 92.1992C54.1866 93.7962 54.6978 95.0911 55.0537 95.9923C55.2281 96.4344 55.3666 96.7823 55.4622 97.0239C55.5052 97.1375 55.541 97.2268 55.5673 97.2921C55.584 97.3549 55.5936 97.3863 55.5912 97.3863Z" fill="#455A64"/>
<path d="M51.327 59.5501C51.3222 59.5573 51.2721 59.5138 51.1813 59.4317C51.0977 59.3423 50.9974 59.1949 50.9114 58.9944C50.7394 58.5909 50.6534 57.9869 50.6391 57.3298C50.6271 56.6703 50.6749 56.0759 50.7179 55.6507C50.7609 55.2231 50.7967 54.9598 50.8134 54.9622C50.8302 54.9622 50.823 55.2303 50.8015 55.658C50.78 56.0856 50.7466 56.6775 50.7585 57.3298C50.7704 57.9797 50.8445 58.5692 50.9902 58.9654C51.0619 59.1635 51.1479 59.3109 51.2171 59.4051C51.2936 59.4897 51.3318 59.5428 51.327 59.5501Z" fill="#455A64"/>
<path d="M48.941 54.5587C48.953 54.5563 49.0103 54.7786 48.9888 55.1458C48.9697 55.5082 48.8455 56.0204 48.5326 56.4891C48.2173 56.9578 47.7921 57.2598 47.4648 57.412C47.1352 57.5666 46.9107 57.5932 46.9083 57.5811C46.9035 57.5618 47.1185 57.5038 47.4266 57.3347C47.7348 57.168 48.1337 56.8684 48.4346 56.4214C48.7356 55.9745 48.867 55.4889 48.9076 55.1386C48.9482 54.7834 48.9219 54.5612 48.941 54.5587Z" fill="#455A64"/>
<path d="M58.854 66.7496C58.8564 66.7496 58.8564 66.7714 58.8516 66.8124C58.8468 66.8608 58.8421 66.9236 58.8373 66.9985C58.8206 67.17 58.7967 67.4116 58.7656 67.7136C58.6987 68.3442 58.6008 69.2405 58.4814 70.3446C58.233 72.5721 57.889 75.6355 57.5092 79.0179C57.3635 80.7114 57.5092 82.3422 57.8245 83.7773C57.9798 84.4972 58.1852 85.1665 58.4026 85.7849C58.6175 86.4034 58.8182 86.9808 58.9997 87.5099C59.3604 88.5585 59.6518 89.4113 59.8572 90.0104C59.9528 90.3004 60.0292 90.5275 60.0842 90.6917C60.108 90.7642 60.1248 90.8222 60.1415 90.8705C60.1534 90.9116 60.1582 90.9309 60.1558 90.9333C60.1534 90.9333 60.1439 90.914 60.1295 90.8754C60.1128 90.8295 60.0889 90.7715 60.0627 90.7014C60.0029 90.5395 59.9193 90.3124 59.8142 90.0274C59.5993 89.4306 59.2959 88.5826 58.9209 87.5389C58.7346 87.0122 58.5292 86.4372 58.3094 85.8188C58.0873 85.2003 57.877 84.5262 57.717 83.8039C57.3945 82.3591 57.2441 80.7163 57.3922 79.0082C57.7648 75.6162 58.135 72.5552 58.3978 70.3349C58.5315 69.2332 58.6414 68.3369 58.7179 67.7088C58.7585 67.4068 58.7895 67.1676 58.811 66.9961C58.823 66.9212 58.8301 66.8584 58.8373 66.81C58.8492 66.7714 58.854 66.7496 58.854 66.7496Z" fill="#455A64"/>
<path d="M48.1172 54.2036L49.0965 51.6765L51.3275 55.0419L48.3513 54.2906" fill="#FFBE9D"/>
<path d="M71.483 46.6029L68.834 40.5945C68.5163 39.6281 67.924 39.4783 67.4247 38.9178L60.7867 35.132C55.9497 33.1267 53.315 39.8503 53.315 39.8503L48.9175 49.9949C43.7461 51.7296 47.4079 55.7449 47.4079 55.7449C47.4079 55.7449 46.001 53.271 47.384 52.3795C48.8315 51.4445 50.4391 53.9064 51.9821 56.245C53.8047 59.004 59.7237 60.7967 59.7237 60.7967C60.4164 60.0574 60.223 57.4747 60.7652 56.088C60.9372 55.6483 65.0361 46.0449 65.0361 46.0449L66.6245 49.9394C66.6245 49.9394 68.662 47.5234 69.6486 47.1393C70.6327 46.7551 71.483 46.6029 71.483 46.6029Z" fill="#E8505B"/>
<path d="M59.7214 50.872C59.7262 50.8792 59.6545 50.9324 59.5208 51.0145C59.3846 51.0967 59.1816 51.203 58.9165 51.3044C58.391 51.5098 57.5955 51.6668 56.7356 51.534C55.8733 51.3987 55.1639 51.0049 54.7244 50.6497C54.5022 50.4734 54.3398 50.3091 54.2347 50.1907C54.1296 50.0699 54.0794 49.9998 54.0866 49.995C54.1033 49.9781 54.3255 50.2535 54.7769 50.5845C55.2212 50.9155 55.9187 51.2875 56.7571 51.418C57.5955 51.5485 58.3695 51.4083 58.8926 51.2271C59.4157 51.0435 59.7095 50.8527 59.7214 50.872Z" fill="#263238"/>
<path d="M48.7192 41.3435L52.8157 41.7348L59.3701 34.7286L55.5149 34.5957L48.6499 35.2818C48.6499 35.2794 49.259 38.1737 48.7192 41.3435Z" fill="#E8505B"/>
<path d="M54.4092 37.6518C54.414 37.6543 54.3949 37.6977 54.359 37.7799C54.316 37.8741 54.2611 37.9925 54.1942 38.1374C54.0437 38.4612 53.8383 38.9057 53.5851 39.4493C53.0763 40.5606 52.4003 42.1069 51.667 43.8222C50.9337 45.5375 50.2673 47.091 49.7633 48.2047C49.5125 48.7628 49.3047 49.2122 49.1542 49.519C49.0825 49.664 49.0252 49.7799 48.9798 49.8717C48.9392 49.9515 48.9153 49.9925 48.9129 49.9925C48.9081 49.9901 48.9249 49.9466 48.9583 49.8621C48.9989 49.7678 49.0491 49.647 49.1112 49.4997C49.2521 49.1711 49.448 48.7217 49.6844 48.1709C50.1693 47.033 50.8286 45.4868 51.5548 43.7763C52.2881 42.061 52.976 40.5172 53.5063 39.4155C53.769 38.8646 53.9888 38.4201 54.1488 38.1181C54.2229 37.9756 54.285 37.862 54.3328 37.7702C54.3805 37.6905 54.4044 37.6494 54.4092 37.6518Z" fill="#263238"/>
<path d="M66.9137 39.6909C66.9257 39.7102 66.6701 39.8455 66.3237 40.1427C66.1494 40.2901 65.9607 40.4882 65.7696 40.7225C65.5856 40.9617 65.4041 41.242 65.2488 41.556C65.1007 41.8725 64.9956 42.189 64.924 42.4838C64.8595 42.7809 64.8237 43.0515 64.8165 43.281C64.7998 43.7401 64.8523 44.0251 64.8308 44.03C64.8237 44.0324 64.8045 43.9623 64.7807 43.8319C64.7663 43.7666 64.7544 43.6893 64.7496 43.5951C64.7424 43.5033 64.7281 43.397 64.7329 43.2786C64.7281 43.0443 64.7568 42.764 64.8165 42.4572C64.8834 42.1528 64.9885 41.8266 65.1413 41.5005C65.299 41.1767 65.4877 40.8916 65.6836 40.65C65.8842 40.4133 66.0825 40.2176 66.2688 40.075C66.3572 39.9977 66.4479 39.9446 66.5244 39.8914C66.6008 39.8383 66.6701 39.7996 66.7274 39.7706C66.8445 39.7127 66.9089 39.6837 66.9137 39.6909Z" fill="#263238"/>
<path d="M68.0573 30.0657L64.214 37.3329C63.5858 38.5192 62.1598 39.012 60.944 38.4636C59.6063 37.8596 59.0545 36.2361 59.7377 34.9266C60.1008 34.2333 60.4017 33.6679 60.4017 33.6679C60.4017 33.6679 58.7297 32.5735 59.5132 30.747C60.2106 29.1187 62.7713 24.5187 63.3135 23.5475L66.5525 25.014C68.3727 25.9683 69.0534 28.2538 68.0573 30.0657Z" fill="#FFBE9D"/>
<path d="M60.4113 33.6389C60.4113 33.6389 61.5053 34.2453 63.0508 34.0255C63.0508 34.0255 61.9186 35.0812 60.1987 34.1076L60.4113 33.6389Z" fill="#EB996E"/>
<path d="M61.646 27.831C61.5816 27.9663 61.6389 28.133 61.7774 28.2055C61.916 28.278 62.0808 28.2272 62.1453 28.092C62.2098 27.9567 62.1524 27.79 62.0139 27.7175C61.8754 27.645 61.7105 27.6957 61.646 27.831Z" fill="#263238"/>
<path d="M61.6602 27.5991C61.677 27.6474 61.9349 27.5894 62.212 27.715C62.4891 27.8358 62.6276 28.0726 62.673 28.0509C62.6945 28.0436 62.6897 27.9663 62.63 27.8624C62.5727 27.7585 62.4509 27.6281 62.2789 27.5508C62.1069 27.4734 61.9325 27.4734 61.8227 27.5C61.7056 27.529 61.6507 27.5773 61.6602 27.5991Z" fill="#263238"/>
<path d="M64.2256 29.1138C64.1611 29.2491 64.2185 29.4158 64.357 29.4882C64.4956 29.5607 64.6604 29.51 64.7249 29.3747C64.7894 29.2394 64.732 29.0727 64.5935 29.0002C64.4573 28.9277 64.2925 28.9809 64.2256 29.1138Z" fill="#263238"/>
<path d="M64.3497 28.8795C64.3664 28.9278 64.6244 28.8698 64.9015 28.9954C65.1786 29.1162 65.3171 29.353 65.3625 29.3313C65.384 29.3216 65.3792 29.2467 65.3195 29.1428C65.2622 29.0389 65.1403 28.9085 64.9684 28.8312C64.7964 28.7538 64.622 28.7538 64.5121 28.7804C64.3951 28.8094 64.3401 28.8553 64.3497 28.8795Z" fill="#263238"/>
<path d="M62.4318 30.4958C62.4389 30.4813 62.2813 30.3726 62.0209 30.2107C61.954 30.172 61.8943 30.1261 61.9039 30.073C61.911 30.015 61.9731 29.9498 62.0448 29.8821C62.1881 29.7396 62.3362 29.5898 62.4939 29.4327C63.1245 28.7901 63.6165 28.2513 63.5903 28.2248C63.564 28.1982 63.0313 28.6983 62.4007 29.3409C62.2478 29.5004 62.0997 29.6526 61.9588 29.7976C61.8967 29.8676 61.8107 29.9377 61.7988 30.0609C61.794 30.1237 61.8298 30.1841 61.868 30.2179C61.9063 30.2518 61.9469 30.2711 61.9803 30.288C62.2502 30.4305 62.4246 30.5103 62.4318 30.4958Z" fill="#263238"/>
<path d="M63.158 31.0563C63.115 31.0321 62.9789 31.3365 62.6277 31.4356C62.2766 31.5347 61.9732 31.3559 61.9517 31.3994C61.9398 31.4163 61.9971 31.4912 62.1309 31.554C62.2599 31.6192 62.4725 31.6627 62.6874 31.6023C62.9024 31.5419 63.0481 31.3945 63.1126 31.2761C63.1795 31.1529 63.1795 31.0635 63.158 31.0563Z" fill="#263238"/>
<path d="M64.7609 27.7537C64.7537 27.843 65.0451 27.93 65.3533 28.1161C65.6638 28.2948 65.8811 28.5099 65.9552 28.4615C65.9886 28.4374 65.9743 28.3456 65.9026 28.2248C65.831 28.104 65.6948 27.959 65.5109 27.8479C65.327 27.7392 65.1335 27.6884 64.995 27.6836C64.8516 27.6788 64.7656 27.7102 64.7609 27.7537Z" fill="#263238"/>
<path d="M62.1188 26.8381C62.1403 26.9226 62.3577 26.9444 62.5893 27.0434C62.8234 27.1352 62.993 27.2778 63.0671 27.2319C63.1005 27.2077 63.0981 27.1304 63.0408 27.0338C62.9835 26.9371 62.8664 26.8236 62.7064 26.7583C62.5464 26.6931 62.3863 26.6883 62.2764 26.7173C62.1666 26.7438 62.1116 26.797 62.1188 26.8381Z" fill="#263238"/>
<path d="M66.8488 31.1553C66.8847 31.1553 68.2462 31.3437 67.6562 32.5686C67.0686 33.7935 65.9746 32.9431 65.9889 32.9068C66.0056 32.8706 66.8488 31.1553 66.8488 31.1553Z" fill="#FFBE9D"/>
<path d="M66.5837 32.6241C66.5909 32.6217 66.598 32.6483 66.6243 32.6845C66.6506 32.7183 66.7055 32.757 66.7796 32.7642C66.93 32.7787 67.1355 32.6265 67.2477 32.4091C67.3051 32.3004 67.3313 32.182 67.3361 32.0757C67.3433 31.967 67.3146 31.8776 67.2573 31.8341C67.2 31.7882 67.1355 31.8051 67.1044 31.8317C67.071 31.8583 67.0686 31.8872 67.0614 31.8848C67.0566 31.8872 67.0447 31.851 67.0781 31.8051C67.0949 31.7834 67.1235 31.7616 67.1617 31.752C67.2023 31.7423 67.2501 31.752 67.2931 31.7785C67.3839 31.8317 67.4245 31.9597 67.4221 32.0757C67.4245 32.1965 67.3958 32.3294 67.3313 32.4526C67.2047 32.6942 66.9683 32.8657 66.77 32.8295C66.6745 32.8101 66.6147 32.7497 66.5932 32.7014C66.5717 32.6555 66.5765 32.6241 66.5837 32.6241Z" fill="#EB996E"/>
<path d="M67.5509 31.4235C67.3836 31.293 66.9824 31.322 66.8247 31.4621C66.6671 31.6023 66.5596 31.7955 66.4019 31.9381C66.2443 32.0806 65.9935 32.1579 65.8262 32.0299C65.7116 31.9405 65.6734 31.7762 65.6949 31.6312C65.7188 31.4863 65.7928 31.3558 65.8692 31.2302C66.1989 30.6842 66.5739 30.1623 66.8534 29.5898C67.1352 29.0172 67.3215 28.3721 67.2379 27.7367C67.1543 27.1013 66.7602 26.4828 66.163 26.2702C65.7689 26.1277 65.3294 26.1712 64.9257 26.0528C64.448 25.9127 64.0443 25.5382 63.8652 25.0671C63.8413 25.0067 63.7075 24.7917 63.7075 24.7917C63.7219 24.7627 63.8628 24.5138 64.0061 24.4655C65.069 24.1031 66.5118 24.5187 67.3932 25.2217C68.2746 25.9248 68.8909 27.0554 68.9028 28.1909C68.9148 29.324 68.2077 30.5779 67.5509 31.4235Z" fill="#263238"/>
<path d="M67.5627 31.3003C67.8995 30.7229 68.4441 30.3025 68.8598 29.7807C69.2754 29.2588 69.562 28.522 69.2658 27.9228C69.1655 27.7174 69.0031 27.5459 68.9171 27.3333C68.8311 27.1207 68.8311 26.8839 68.8001 26.6544C68.6997 25.949 68.2578 25.3039 67.6439 24.956C67.2188 24.7168 66.7291 24.6178 66.2967 24.3883C65.6136 24.0259 65.1144 23.3518 64.3978 23.0667C64.1589 22.9725 63.8818 22.9242 63.6549 23.045C63.428 23.1634 63.3062 23.4968 63.471 23.6949C63.4423 23.4629 63.1437 23.3373 62.9335 23.4315C62.7233 23.5282 62.6158 23.7818 62.6302 24.0138C62.6445 24.2457 62.7592 24.4607 62.8905 24.654C63.3253 25.2846 63.9917 25.7484 64.7298 25.9345L66.378 25.804L67.7299 26.8163L68.7308 28.4277L66.9154 30.8123L67.5627 31.3003Z" fill="#263238"/>
<path d="M57.2466 21.7936C57.0388 18.5465 54.2703 16.0871 51.06 16.2948C47.8497 16.505 45.418 19.3051 45.6234 22.5522C45.7739 24.9029 47.2668 26.8405 49.2972 27.6522C49.3426 28.348 49.3927 29.1356 49.3927 29.1356L54.4853 28.8022C54.4853 28.8022 54.4638 27.9687 54.428 27.2246C56.2386 26.1278 57.3923 24.0694 57.2466 21.7936Z" fill="#E8505B"/>
<path d="M52.6434 28.8989C52.6434 28.8989 52.6434 28.8748 52.6434 28.8264C52.6458 28.7757 52.6482 28.7056 52.653 28.6138C52.6625 28.4254 52.6793 28.15 52.7079 27.7924C52.7366 27.4373 52.7772 27 52.8584 26.4999C52.9396 25.9998 53.0591 25.4296 53.2812 24.8305C53.3935 24.5309 53.5248 24.2216 53.704 23.9196C53.7972 23.7723 53.9142 23.6249 54.079 23.5331C54.2438 23.4413 54.454 23.4268 54.6308 23.5162C54.7192 23.5597 54.7956 23.6394 54.8291 23.736C54.8673 23.8327 54.8625 23.9438 54.8243 24.0404C54.7454 24.2313 54.583 24.3738 54.4015 24.4608C54.0265 24.6227 53.5822 24.6154 53.1881 24.4536C52.7915 24.2917 52.4643 23.9486 52.3043 23.5258C52.2278 23.3157 52.1777 23.0837 52.2254 22.8494C52.266 22.6174 52.4715 22.4 52.727 22.4073C52.8536 22.4073 52.9731 22.487 53.0352 22.5957C53.0997 22.702 53.1236 22.8325 53.1044 22.9557C53.0638 23.2045 52.9014 23.4002 52.7342 23.5669C52.3879 23.8979 51.9006 24.1008 51.4061 24.0525C50.9141 24.0066 50.4578 23.7095 50.2285 23.2794C50.1091 23.0692 50.0661 22.8059 50.1449 22.5691C50.1831 22.4532 50.2643 22.342 50.3838 22.2937C50.4984 22.2406 50.6346 22.2526 50.7445 22.3034C50.8543 22.3541 50.9475 22.4411 51.0072 22.545C51.0669 22.6488 51.1004 22.7624 51.1171 22.8784C51.1481 23.1079 51.1314 23.3398 51.0717 23.5548C50.9571 23.9897 50.68 24.369 50.3145 24.5937C49.9514 24.8208 49.5215 24.9029 49.1226 24.8401C48.9267 24.8087 48.7237 24.7435 48.5804 24.5937C48.4418 24.4463 48.3893 24.2023 48.5111 24.0308C48.5708 23.9462 48.6687 23.8979 48.7643 23.8834C48.8598 23.8713 48.9578 23.8834 49.0461 23.9196C49.2253 23.9945 49.3399 24.1492 49.4283 24.2989C49.5955 24.6082 49.7317 24.9102 49.8702 25.1977C50.4101 26.3525 50.8018 27.3068 51.0669 27.9688C51.1983 28.2998 51.2962 28.5583 51.3631 28.7346C51.3942 28.8216 51.4181 28.8868 51.4372 28.9352C51.4539 28.9811 51.4611 29.0052 51.4611 29.0052C51.4611 29.0052 51.4491 28.9835 51.4324 28.9376C51.4133 28.8893 51.387 28.824 51.3512 28.7395C51.2795 28.5631 51.1744 28.307 51.043 27.9784C50.7707 27.3213 50.3718 26.3694 49.8272 25.2194C49.6887 24.9343 49.5478 24.6275 49.3853 24.3255C49.2993 24.1806 49.1871 24.0356 49.0294 23.9704C48.8765 23.9051 48.6687 23.9196 48.566 24.0622C48.4657 24.2023 48.5087 24.4197 48.6305 24.5478C48.7571 24.6831 48.9458 24.7459 49.1369 24.7749C49.5191 24.8353 49.9371 24.7556 50.2835 24.5357C50.6322 24.3183 50.8997 23.9535 51.0072 23.5355C51.0645 23.3277 51.0789 23.103 51.0502 22.8856C51.0215 22.673 50.9188 22.4532 50.7182 22.3662C50.6226 22.3227 50.5104 22.313 50.4148 22.3565C50.3193 22.3976 50.25 22.487 50.2142 22.5909C50.1449 22.8011 50.1807 23.0451 50.2954 23.2432C50.5128 23.6515 50.9499 23.9341 51.4181 23.98C51.8886 24.0259 52.3592 23.8303 52.6912 23.5138C52.8536 23.3543 53.0065 23.1659 53.0423 22.9436C53.0591 22.8373 53.0376 22.7237 52.9826 22.6319C52.9277 22.5401 52.8345 22.4797 52.7318 22.4773C52.6291 22.4749 52.5264 22.5184 52.45 22.5909C52.3711 22.6609 52.3234 22.76 52.3019 22.8639C52.2565 23.0741 52.3019 23.2987 52.3759 23.4993C52.5264 23.9051 52.8417 24.2337 53.2215 24.3883C53.5965 24.5454 54.0289 24.5502 54.3824 24.4004C54.5544 24.3183 54.7072 24.1854 54.7765 24.0163C54.8506 23.8472 54.7717 23.6442 54.6117 23.5693C54.4564 23.4896 54.2606 23.5017 54.1125 23.5838C53.9596 23.6684 53.8473 23.8061 53.7565 23.9486C53.5798 24.2434 53.446 24.5526 53.3361 24.8474C53.1116 25.4417 52.9898 26.007 52.9062 26.5071C52.8226 27.0072 52.7772 27.4397 52.7462 27.7948C52.7175 28.1476 52.6936 28.423 52.6793 28.6138C52.6721 28.7056 52.6649 28.7757 52.6625 28.8264C52.6482 28.8748 52.6434 28.8989 52.6434 28.8989Z" fill="#263238"/>
<path d="M54.1557 29.7832L49.7821 30.0682C49.6005 30.0803 49.4453 29.9402 49.4333 29.7566C49.4214 29.573 49.5599 29.4159 49.7415 29.4038L54.1151 29.1188C54.2966 29.1067 54.4519 29.2468 54.4638 29.4304C54.4758 29.6116 54.3372 29.7711 54.1557 29.7832Z" fill="#263238"/>
<path d="M54.1749 30.073L49.8013 30.3581C49.6197 30.3702 49.4836 30.5272 49.4931 30.7108C49.5051 30.8944 49.6604 31.0321 49.8419 31.0225L50.322 30.9911L51.0362 32.1749C51.1174 32.3102 51.2679 32.3899 51.4232 32.3778L52.9853 32.2764C53.143 32.2667 53.2815 32.1676 53.346 32.0203L53.8859 30.7567L54.2131 30.735C54.3947 30.7229 54.5308 30.5659 54.5213 30.3822C54.5117 30.1986 54.3564 30.0609 54.1749 30.073Z" fill="#263238"/>
<g opacity="0.2">
<path d="M47.4626 18.6722C47.8305 18.2808 48.2222 17.9981 48.5757 17.8145C48.9292 17.6285 49.2374 17.5295 49.4547 17.4932C49.6721 17.4546 49.7987 17.4691 49.813 17.515C49.8441 17.6188 49.4141 17.8073 48.8456 18.247C48.2795 18.677 47.582 19.4139 47.1975 20.4117C46.8153 21.4119 46.8392 22.4314 46.9705 23.1345C47.0971 23.8472 47.2906 24.2772 47.1951 24.3328C47.1545 24.3569 47.0518 24.282 46.9156 24.1057C46.7795 23.9293 46.617 23.6467 46.4809 23.2698C46.3423 22.8929 46.242 22.4145 46.2301 21.8758C46.2181 21.337 46.3065 20.7378 46.5286 20.1508" fill="white"/>
</g>
<g opacity="0.2">
<path d="M51.227 17.6768C50.8591 17.6985 50.5271 17.6164 50.477 17.4231C50.4555 17.3265 50.5152 17.2178 50.6442 17.1284C50.7708 17.039 50.9642 16.9689 51.1864 16.9568C51.4061 16.9448 51.6068 16.9882 51.7429 17.0631C51.8815 17.138 51.9531 17.2371 51.9436 17.3361" fill="white"/>
</g>
<path d="M53.2744 32.129C53.2696 32.1411 53.1573 32.0976 52.9686 32.0541C52.7799 32.013 52.5124 31.9816 52.221 32.0082C51.9272 32.0372 51.6716 32.1169 51.4948 32.1942C51.3181 32.2716 51.213 32.3344 51.2082 32.3247C51.2034 32.3175 51.2989 32.2377 51.4757 32.1483C51.6525 32.0589 51.9152 31.9671 52.2162 31.9382C52.5172 31.9092 52.7942 31.9502 52.9829 32.0058C53.1716 32.0614 53.2791 32.1242 53.2744 32.129Z" fill="#455A64"/>
<path d="M53.9001 30.7712C53.9024 30.7905 53.1118 30.8582 52.1372 30.9234C51.1627 30.9862 50.3696 31.0225 50.3696 31.0031C50.3672 30.9838 51.1579 30.9162 52.1325 30.8509C53.107 30.7881 53.9001 30.7519 53.9001 30.7712Z" fill="#455A64"/>
<path d="M53.6615 31.3148C53.6615 31.3244 53.499 31.3534 53.2339 31.3873C52.9688 31.4211 52.6009 31.4622 52.1924 31.4936C51.784 31.525 51.4161 31.5443 51.1486 31.554C50.8811 31.5612 50.7163 31.5588 50.7139 31.5491C50.7139 31.5395 50.8787 31.5226 51.1438 31.5008C51.4329 31.4791 51.7888 31.4501 52.1853 31.4211C52.5818 31.3897 52.9377 31.3583 53.2267 31.3365C53.4942 31.3148 53.6591 31.3051 53.6615 31.3148Z" fill="#455A64"/>
<path d="M22.1694 60.9031L23.1201 62.442C23.1201 62.442 27.1713 58.6707 31.1914 59.7362C31.189 59.7362 27.5773 56.6389 22.1694 60.9031Z" fill="#E8505B"/>
<path d="M31.189 59.7361C31.189 59.7361 34.1628 56.4697 38.5245 57.2139L39.714 57.3951L39.3343 56.6993C39.3319 56.7017 31.7479 54.0755 31.189 59.7361Z" fill="#E8505B"/>
<path d="M24.9116 48.7242C24.9116 48.7242 18.9543 47.6877 15.0488 49.8258L21.2521 61.6399C21.2521 61.6399 26.3304 56.6896 31.1889 59.7385L24.9116 48.7242Z" fill="#F5F5F5"/>
<path d="M24.9114 48.7242C24.9114 48.7242 24.9233 48.7387 24.9424 48.7725C24.9639 48.8088 24.995 48.8595 25.0308 48.9223C25.112 49.06 25.2267 49.2557 25.3748 49.5094C25.6758 50.0312 26.1129 50.7874 26.667 51.7466C27.7778 53.6818 29.3543 56.4335 31.2341 59.712C31.2485 59.7386 31.2413 59.77 31.215 59.7845C31.1983 59.7941 31.1768 59.7941 31.1601 59.7845C30.4865 59.3665 29.7126 59.0476 28.8765 58.8978C28.4585 58.8277 28.0262 58.7987 27.5891 58.8084C27.1519 58.8253 26.71 58.8833 26.2705 58.9751C24.5101 59.3689 22.8022 60.3353 21.3428 61.6351L21.2926 61.6834C21.2687 61.7076 21.2305 61.7051 21.209 61.681C21.2042 61.6762 21.2018 61.6713 21.1994 61.6665C18.8944 57.2695 16.7589 53.1937 15.0057 49.8476C14.9937 49.8235 15.0009 49.7945 15.0248 49.7824H15.0272C16.3935 49.0673 17.7789 48.758 18.9971 48.5938C20.2201 48.4343 21.295 48.4295 22.174 48.4536C23.053 48.4826 23.7386 48.5551 24.2044 48.6131C24.4361 48.6421 24.6152 48.6687 24.7346 48.688C24.792 48.6976 24.835 48.7073 24.8708 48.7121C24.8971 48.7194 24.9114 48.7218 24.9114 48.7242C24.9114 48.7242 24.8947 48.7242 24.8636 48.7194C24.8302 48.7146 24.7848 48.7097 24.7275 48.7025C24.608 48.688 24.4289 48.6638 24.1972 48.6421C23.7314 48.5938 23.0459 48.5309 22.1692 48.5092C21.2926 48.4923 20.2201 48.5044 19.0043 48.6711C17.7932 48.8426 16.4174 49.1567 15.0702 49.867L15.0893 49.7993C16.8473 53.143 18.9899 57.2139 21.3021 61.6085L21.209 61.5964L21.2615 61.5457C21.9972 60.8789 22.7998 60.3208 23.6359 59.8594C24.4743 59.4027 25.3509 59.0524 26.2443 58.8591C26.6909 58.7649 27.14 58.7094 27.5843 58.69C28.0286 58.6828 28.4681 58.7118 28.8933 58.7843C29.7436 58.9389 30.5319 59.265 31.2126 59.6902L31.1386 59.7627C29.2778 56.4794 27.7181 53.7277 26.6217 51.7901C26.0771 50.8237 25.6471 50.0602 25.3533 49.5336C25.21 49.2751 25.0977 49.0745 25.0189 48.9344C24.9831 48.8692 24.9544 48.8184 24.9353 48.7798C24.9209 48.7435 24.9114 48.7242 24.9114 48.7242Z" fill="#263238"/>
<path d="M34.2749 46.2986C34.2749 46.2986 29.7699 43.3946 24.9878 48.7218L31.2652 59.7361C31.2652 59.7361 32.5455 55.2666 40.041 56.8201L34.2749 46.2986Z" fill="#F5F5F5"/>
<path d="M34.2749 46.2986C34.2749 46.2986 34.2869 46.3131 34.306 46.3445C34.3275 46.3807 34.3537 46.4266 34.3896 46.487C34.4636 46.6175 34.5687 46.8059 34.7049 47.0475C34.982 47.5452 35.3832 48.2676 35.892 49.1832C36.9096 51.0314 38.3595 53.6576 40.0865 56.7959C40.1008 56.8225 40.0913 56.8539 40.0674 56.8684C40.0578 56.8732 40.0459 56.8756 40.0339 56.8732H40.0316C39.6661 56.8128 39.2935 56.75 38.9161 56.6872C38.7274 56.6485 38.5339 56.6388 38.3404 56.6219C38.1469 56.6074 37.951 56.5905 37.7528 56.5736C37.5545 56.5495 37.3563 56.5543 37.1556 56.5591C36.955 56.5615 36.7519 56.5639 36.5489 56.5664C36.3459 56.5712 36.1428 56.6074 35.9374 56.6268C35.732 56.6533 35.5242 56.663 35.3211 56.721C35.1181 56.7669 34.9127 56.8152 34.7049 56.8611C34.5042 56.9312 34.3036 57.0036 34.1029 57.0737C33.8999 57.1438 33.716 57.2573 33.5177 57.3467C33.4174 57.3902 33.3266 57.4482 33.2359 57.5086L32.9612 57.6874C32.7796 57.8106 32.6172 57.9604 32.4476 58.1005C32.2971 58.2624 32.1275 58.4073 31.9961 58.5885C31.7143 58.9316 31.473 59.3278 31.3273 59.7482V59.7506C31.3154 59.782 31.2819 59.7989 31.2509 59.7868C31.2366 59.782 31.227 59.7723 31.2198 59.7603C31.141 59.6201 31.0526 59.4679 30.9666 59.3157C28.7476 55.414 26.679 51.7804 24.9496 48.7411C24.9377 48.7218 24.9425 48.6976 24.9568 48.6807C26.0174 47.509 27.1902 46.6175 28.3582 46.0956C29.5239 45.5617 30.6585 45.4288 31.5662 45.4868C32.4787 45.5448 33.169 45.7695 33.618 45.9507C33.8426 46.0425 34.0098 46.1294 34.1197 46.1898C34.1722 46.2212 34.2104 46.243 34.2415 46.2623C34.263 46.2889 34.2749 46.2986 34.2749 46.2986C34.2749 46.2986 34.2582 46.2913 34.2319 46.2768C34.2009 46.2599 34.1579 46.2382 34.1053 46.2116C33.9931 46.156 33.8259 46.0739 33.5989 45.9869C33.1475 45.8129 32.4595 45.6003 31.5542 45.552C30.6561 45.5013 29.5335 45.6414 28.3821 46.1778C27.2308 46.6996 26.0723 47.5911 25.0237 48.7556L25.0309 48.6976C26.7626 51.732 28.8384 55.3656 31.0622 59.2626C31.1482 59.4148 31.2342 59.567 31.3154 59.7071L31.2079 59.7192C31.3632 59.2674 31.6092 58.8712 31.8982 58.516C32.0344 58.33 32.2063 58.1802 32.3616 58.0159C32.536 57.8734 32.7032 57.7188 32.8895 57.5956L33.1714 57.4144C33.2645 57.3515 33.3577 57.2936 33.458 57.2477C33.6586 57.1559 33.8473 57.0423 34.0552 56.9698C34.2606 56.8973 34.466 56.8249 34.669 56.7548C34.8792 56.7065 35.0871 56.6606 35.2949 56.6123C35.5003 56.5543 35.7129 56.5446 35.9183 56.518C36.1261 56.4987 36.3315 56.4625 36.5394 56.4576C36.7448 56.4552 36.9502 56.4528 37.1532 56.4504C37.3563 56.4456 37.5593 56.4431 37.7576 56.4673C37.9558 56.4842 38.1541 56.5011 38.3499 56.5156C38.5458 56.5325 38.7417 56.5422 38.9304 56.5833C39.3102 56.6485 39.6852 56.7113 40.0531 56.7741L39.9957 56.8514C38.2855 53.7107 36.8523 51.0797 35.8443 49.2291C35.345 48.3062 34.9533 47.579 34.681 47.0765C34.5496 46.8301 34.4493 46.6392 34.3776 46.5063C34.3442 46.4435 34.3203 46.3952 34.3012 46.359C34.2821 46.3179 34.2749 46.301 34.2749 46.2986Z" fill="#263238"/>
<path d="M16.7256 44.146L23.4425 57.2284C23.4425 57.2284 28.9029 56.9868 31.2127 59.6782L24.9879 48.7242C24.9879 48.7242 21.3381 44.146 16.7256 44.146Z" fill="#F5F5F5"/>
<path d="M16.7255 44.146C16.7255 44.146 16.7804 44.146 16.8951 44.1508C17.0169 44.1557 17.1889 44.1629 17.4134 44.1726C17.4707 44.175 17.5328 44.1774 17.5949 44.1822C17.657 44.1919 17.7215 44.204 17.7908 44.2161C17.9293 44.2402 18.0774 44.2644 18.2399 44.291C18.4047 44.3103 18.5719 44.3658 18.7534 44.4142C18.9326 44.4697 19.1332 44.506 19.3291 44.5857C20.9343 45.1269 23.0888 46.4363 25.0236 48.6904L25.026 48.6952V48.6977C26.7984 51.8094 28.9434 55.5783 31.2604 59.6468C31.2771 59.6758 31.2675 59.712 31.2389 59.7289C31.215 59.7434 31.1863 59.7386 31.1672 59.7192L31.1648 59.7168C31.0812 59.6323 30.9905 59.5429 30.9021 59.4511C30.4029 58.9606 29.8105 58.5741 29.1823 58.3011C28.5564 58.0208 27.9115 57.8058 27.2618 57.6633C25.9624 57.3685 24.6677 57.2574 23.4423 57.2815H23.4399C23.4184 57.2815 23.3993 57.2695 23.3898 57.2501C21.4311 53.4088 19.759 50.1279 18.5719 47.8013C17.9867 46.6489 17.5233 45.7333 17.2008 45.1003C17.0455 44.7911 16.9237 44.5519 16.8401 44.3852C16.8019 44.3079 16.7708 44.2475 16.7493 44.2016C16.7326 44.1653 16.7231 44.146 16.7255 44.146C16.7278 44.146 16.7398 44.1677 16.7613 44.2112C16.7852 44.2571 16.8186 44.3199 16.8592 44.3997C16.9476 44.5688 17.0742 44.8104 17.2366 45.122C17.5663 45.755 18.0416 46.6707 18.6412 47.8255C19.8355 50.1351 21.5195 53.3919 23.4925 57.2042L23.4399 57.1752C24.6773 57.1487 25.9767 57.2574 27.2881 57.5545C27.9449 57.6971 28.597 57.9145 29.2324 58.1972C29.8702 58.475 30.4745 58.8664 30.9857 59.3689C31.0788 59.4631 31.1696 59.555 31.2556 59.6419L31.1601 59.712C28.8502 55.6387 26.71 51.8674 24.9424 48.7508L24.9472 48.7581C24.0013 47.6346 22.9694 46.7528 22.0068 46.0667C21.0346 45.3902 20.1078 44.9191 19.31 44.6461C19.1141 44.564 18.9182 44.5253 18.7391 44.4697C18.5576 44.419 18.3903 44.361 18.2279 44.3393C18.0679 44.3103 17.9198 44.2837 17.7812 44.2571C17.7144 44.2451 17.6475 44.233 17.5854 44.2209C17.5233 44.2136 17.4659 44.2112 17.411 44.2064C17.0049 44.1677 16.8162 44.1532 16.7255 44.146Z" fill="#263238"/>
<path d="M37.6954 81.2501L37.8388 81.4917C38.0012 81.7647 38.2353 81.9822 38.5171 82.1247L38.7679 82.2503L38.5291 82.3953C38.2592 82.5596 38.0442 82.7963 37.9033 83.0814L37.779 83.3351L37.6357 83.0935C37.4733 82.8205 37.2392 82.6031 36.9574 82.4605L36.7065 82.3349L36.9454 82.1899C37.2153 82.0256 37.4303 81.7889 37.5712 81.5038L37.6954 81.2501Z" fill="#E8505B"/>
<path d="M24.4503 31.4187L24.5936 31.6603C24.7561 31.9333 24.9902 32.1507 25.272 32.2933L25.5228 32.4189L25.284 32.5639C25.014 32.7281 24.7991 32.9649 24.6581 33.25L24.5339 33.5037L24.3906 33.2621C24.2282 32.9891 23.9941 32.7716 23.7122 32.6291L23.4614 32.5035L23.7003 32.3585C23.9702 32.1942 24.1852 31.9575 24.3261 31.6724L24.4503 31.4187Z" fill="#E8505B"/>
<path d="M85.7409 40.0146L85.8842 40.2562C86.0466 40.5292 86.2807 40.7467 86.5626 40.8892L86.8134 41.0149L86.5745 41.1598C86.3046 41.3241 86.0896 41.5609 85.9487 41.8459L85.8245 42.0996L85.6811 41.858C85.5187 41.585 85.2846 41.3676 85.0028 41.225L84.752 41.0994L84.9908 40.9545C85.2607 40.7902 85.4757 40.5534 85.6166 40.2683L85.7409 40.0146Z" fill="#E8505B"/>
<path d="M78.5031 84.3812L78.6464 84.6228C78.8088 84.8958 79.0429 85.1133 79.3248 85.2558L79.5756 85.3814L79.3367 85.5264C79.0668 85.6907 78.8518 85.9274 78.7109 86.2125L78.5867 86.4662L78.4433 86.2246C78.2809 85.9516 78.0468 85.7342 77.765 85.5916L77.5142 85.466L77.753 85.321C78.0229 85.1568 78.2379 84.92 78.3788 84.6349L78.5031 84.3812Z" fill="#E8505B"/>
<path d="M79.8815 93.7045L79.9508 93.7335C80.0272 93.7649 80.1132 93.7745 80.1944 93.7576L80.2684 93.7431L80.2398 93.8132C80.2087 93.8905 80.1992 93.9775 80.2159 94.0596L80.2302 94.1345L80.1609 94.1055C80.0845 94.0741 79.9985 94.0644 79.9173 94.0814L79.8433 94.0959L79.8719 94.0258C79.903 93.9485 79.9125 93.8615 79.8958 93.7794L79.8815 93.7045Z" fill="#E8505B"/>
<path d="M84.047 30.6625L84.1163 30.6915C84.1927 30.7229 84.2787 30.7325 84.3599 30.7156L84.434 30.7011L84.4053 30.7712C84.3743 30.8485 84.3647 30.9355 84.3814 31.0176L84.3957 31.0925L84.3265 31.0635C84.25 31.0321 84.1641 31.0225 84.0828 31.0394L84.0088 31.0539L84.0375 30.9838C84.0685 30.9065 84.0781 30.8195 84.0613 30.7374L84.047 30.6625Z" fill="#E8505B"/>
<path d="M27.1447 24.9077L27.2139 24.9367C27.2904 24.9681 27.3764 24.9778 27.4576 24.9609L27.5316 24.9464L27.503 25.0164C27.4719 25.0937 27.4624 25.1807 27.4791 25.2629L27.4934 25.3378L27.4241 25.3088C27.3477 25.2774 27.2617 25.2677 27.1805 25.2846L27.1064 25.2991L27.1351 25.229C27.1662 25.1517 27.1757 25.0648 27.159 24.9826L27.1447 24.9077Z" fill="#E8505B"/>
<path d="M34.1676 73.9927L34.2369 74.0217C34.3133 74.0531 34.3993 74.0627 34.4805 74.0458L34.5546 74.0313L34.5259 74.1014C34.4949 74.1787 34.4853 74.2657 34.502 74.3478L34.5164 74.4227L34.4471 74.3937C34.3706 74.3623 34.2847 74.3527 34.2034 74.3696L34.1294 74.3841L34.1581 74.314C34.1891 74.2367 34.1987 74.1497 34.1819 74.0676L34.1676 73.9927Z" fill="#E8505B"/>
<path d="M41.7802 92.9651C41.7802 92.9651 41.7587 92.9892 41.7157 93.0352C41.6679 93.0835 41.601 93.1487 41.5174 93.2357C41.3383 93.412 41.0779 93.6681 40.7459 93.9967C40.0675 94.6587 39.093 95.6106 37.8819 96.7895L37.8939 96.7606C38.03 99.7926 38.2139 103.912 38.4218 108.495L38.4265 108.599L38.3405 108.541C38.0133 108.318 37.6598 108.082 37.3063 107.843C34.9487 106.246 32.7153 104.733 30.7494 103.404L30.7351 103.395L30.7303 103.38C29.7534 100.426 28.9269 97.9347 28.3441 96.1759C28.0574 95.3013 27.8329 94.6104 27.6752 94.132C27.6012 93.8977 27.5415 93.7165 27.5009 93.5884C27.4818 93.5304 27.4698 93.4845 27.4579 93.4483C27.4483 93.4169 27.4435 93.4 27.4459 93.4C27.4483 93.4 27.4531 93.4145 27.465 93.4459C27.477 93.4797 27.4937 93.5256 27.5152 93.5836C27.5582 93.7092 27.6227 93.8904 27.7015 94.1223C27.8639 94.5983 28.098 95.2868 28.3942 96.159C28.9842 97.9154 29.8226 100.401 30.8163 103.351L30.7972 103.327C32.763 104.656 34.9988 106.163 37.3588 107.758C37.7123 107.997 38.0635 108.234 38.3931 108.456L38.3119 108.502C38.1184 103.919 37.944 99.7998 37.815 96.7678V96.7509L37.827 96.7388C39.0452 95.5695 40.0293 94.6248 40.7125 93.9701C41.0517 93.6488 41.3144 93.3975 41.4983 93.2236C41.5867 93.1415 41.6536 93.0786 41.7038 93.0327C41.7563 92.9868 41.7802 92.9651 41.7802 92.9651Z" fill="#E8505B"/>
<path d="M38.7299 107.115L38.7084 107.799L39.253 108.205L38.6033 108.396L38.3907 109.046L38.0109 108.478L37.335 108.476L37.7482 107.934L37.5428 107.282L38.1805 107.514L38.7299 107.115Z" fill="#E8505B"/>
<path d="M30.8328 102.472L30.8448 102.914L31.2126 103.156L30.8018 103.305L30.6895 103.733L30.422 103.383L29.9849 103.407L30.2309 103.042L30.0732 102.629L30.4936 102.752L30.8328 102.472Z" fill="#E8505B"/>
<path d="M27.4316 92.5858L27.7612 93.0134L28.2987 92.982L27.9977 93.4314L28.1936 93.9388L27.6753 93.7865L27.2596 94.132L27.2429 93.5884L26.7891 93.2961L27.2955 93.1101L27.4316 92.5858Z" fill="#E8505B"/>
<path d="M41.4507 92.1558L41.7803 92.5858L42.3178 92.552L42.0168 93.0038L42.2127 93.5087L41.6967 93.3589L41.2811 93.7044L41.262 93.1608L40.8105 92.8661L41.3146 92.6824L41.4507 92.1558Z" fill="#E8505B"/>
<path d="M37.7698 96.2991L37.9824 96.5721L38.324 96.5503L38.1305 96.8378L38.2571 97.1616L37.9274 97.0649L37.6623 97.2848L37.6504 96.9393L37.3613 96.7509L37.6838 96.6349L37.7698 96.2991Z" fill="#E8505B"/>
<path d="M25.1287 78.025C27.7592 78.025 29.8916 75.8681 29.8916 73.2075C29.8916 70.547 27.7592 68.3901 25.1287 68.3901C22.4982 68.3901 20.3657 70.547 20.3657 73.2075C20.3657 75.8681 22.4982 78.025 25.1287 78.025Z" fill="#E8505B"/>
<g opacity="0.3">
<path d="M24.5101 74.7127C24.5101 75.1475 24.1614 75.4979 23.7338 75.4979C23.3039 75.4979 22.9575 75.1451 22.9575 74.7127C22.9575 74.2778 23.3063 73.9275 23.7338 73.9275C24.1614 73.9275 24.5101 74.2778 24.5101 74.7127Z" fill="white"/>
</g>
<g opacity="0.3">
<path d="M23.4063 72.4442C23.4063 72.6978 23.2033 72.9008 22.9549 72.9008C22.7041 72.9008 22.5034 72.6954 22.5034 72.4442C22.5034 72.1905 22.7065 71.9875 22.9549 71.9875C23.2057 71.9875 23.4063 72.1929 23.4063 72.4442Z" fill="white"/>
</g>
<path d="M20.5065 74.3792C20.528 74.4638 16.4291 78.4405 17.4849 79.2885C18.5407 80.1365 22.9859 77.9621 26.7743 74.8672C30.5627 71.7724 34.0239 68.0132 33.0756 67.0178C32.1273 66.0224 27.393 68.9675 27.393 68.9675L27.9591 69.3323C27.9591 69.3323 30.8207 67.4744 31.7284 68.1968C32.6337 68.9168 30.0516 71.7338 26.4089 74.4227C22.7662 77.1117 19.2453 79.0009 18.6983 78.2641C18.1513 77.5272 20.7311 75.0702 20.7311 75.0702L20.5065 74.3792Z" fill="#E8505B"/>
<g opacity="0.3">
<path d="M20.5065 74.3792C20.528 74.4638 16.4291 78.4405 17.4849 79.2885C18.5407 80.1365 22.9859 77.9621 26.7743 74.8672C30.5627 71.7724 34.0239 68.0132 33.0756 67.0178C32.1273 66.0224 27.393 68.9675 27.393 68.9675L27.9591 69.3323C27.9591 69.3323 30.8207 67.4744 31.7284 68.1968C32.6337 68.9168 30.0516 71.7338 26.4089 74.4227C22.7662 77.1117 19.2453 79.0009 18.6983 78.2641C18.1513 77.5272 20.7311 75.0702 20.7311 75.0702L20.5065 74.3792Z" fill="black"/>
</g>
<g opacity="0.3">
<path d="M22.5037 69.8131C22.5419 69.859 22.2194 70.1368 21.8539 70.6925C21.4885 71.2409 21.1063 72.1082 21.0848 73.1133C21.0657 74.1207 21.4144 75.0026 21.7584 75.5655C22.1024 76.1356 22.4129 76.4256 22.3723 76.4715C22.3484 76.5053 21.9662 76.2806 21.541 75.7128C21.3308 75.4302 21.1206 75.0605 20.963 74.616C20.8053 74.1739 20.7074 73.6545 20.7169 73.106C20.7313 72.5576 20.8483 72.043 21.0227 71.6081C21.1971 71.1709 21.4216 70.8085 21.6437 70.5355C22.088 69.987 22.4798 69.7793 22.5037 69.8131Z" fill="white"/>
</g>
<path d="M80.3422 30.9436C81.9091 29.425 81.962 26.9092 80.4605 25.3244C78.959 23.7397 76.4717 23.6861 74.9048 25.2048C73.338 26.7235 73.2851 29.2393 74.7866 30.824C76.2881 32.4087 78.7754 32.4623 80.3422 30.9436Z" fill="#E8505B"/>
<g opacity="0.4">
<path d="M78.907 26.5529C78.9165 26.1954 79.2079 25.9127 79.5639 25.9199C79.9174 25.9296 80.1969 26.2243 80.1897 26.5843C80.1801 26.9419 79.8887 27.2246 79.5328 27.2173C79.1769 27.2076 78.8974 26.9105 78.907 26.5529Z" fill="black"/>
</g>
<g opacity="0.4">
<path d="M80.1871 28.0678C80.1919 27.86 80.3639 27.6957 80.5693 27.7005C80.7747 27.7054 80.9371 27.8793 80.9324 28.0871C80.9276 28.2949 80.7556 28.4592 80.5502 28.4543C80.3448 28.4471 80.1823 28.2755 80.1871 28.0678Z" fill="black"/>
</g>
<g opacity="0.4">
<path d="M79.6879 29.225C79.7643 29.2275 79.824 29.2903 79.8216 29.3676C79.8192 29.4449 79.7571 29.5053 79.6807 29.5029C79.6043 29.5005 79.5446 29.4377 79.5469 29.3603C79.5493 29.283 79.6114 29.2226 79.6879 29.225Z" fill="black"/>
</g>
</g>
<defs>
<clipPath id="clip0_1278_1642">
<rect width="114" height="114" fill="white"/>
</clipPath>
</defs>
</svg>
