<svg width="114" height="114" viewBox="0 0 114 114" fill="none" xmlns="http://www.w3.org/2000/svg">
<g clip-path="url(#clip0_1278_1641)">
<g opacity="0.3">
<path d="M35.1299 36.37C35.0149 36.4999 34.8141 36.5134 34.6821 36.4003C34.4252 36.1804 34.1552 35.9685 33.8786 35.7697C33.7389 35.6692 33.7071 35.4775 33.8062 35.3388C33.8075 35.3372 33.8087 35.3354 33.8097 35.3339C33.9132 35.1948 34.1118 35.1648 34.2534 35.2665C34.5443 35.4754 34.829 35.6989 35.0991 35.9302C35.2225 36.0359 35.2428 36.2153 35.1505 36.3443C35.1443 36.3532 35.1374 36.3617 35.1299 36.37ZM32.4657 34.8937C32.1645 34.7341 31.8536 34.5856 31.5411 34.4524C31.3805 34.3838 31.3066 34.2 31.3765 34.0423C31.4473 33.8839 31.6334 33.8119 31.7943 33.8805C32.123 34.0208 32.4504 34.177 32.7675 34.3452C32.9219 34.4269 32.9793 34.6162 32.896 34.7678C32.8901 34.7789 32.8832 34.7893 32.8761 34.7994C32.785 34.9265 32.6088 34.9697 32.4657 34.8937ZM29.967 33.905C29.6381 33.8156 29.3013 33.739 28.9654 33.6775C28.793 33.6459 28.6795 33.483 28.7116 33.3139C28.744 33.1448 28.9096 33.033 29.0821 33.0646C29.4357 33.1292 29.7905 33.2101 30.1367 33.3044C30.3057 33.3504 30.4045 33.5222 30.3577 33.6882C30.3478 33.7234 30.3319 33.7559 30.3116 33.7844C30.2368 33.8888 30.0999 33.9412 29.967 33.905ZM27.3059 33.49C26.9645 33.475 26.6183 33.4744 26.2775 33.4879C26.1023 33.4949 25.9545 33.3611 25.9473 33.1889C25.9404 33.0168 26.0767 32.8719 26.2516 32.8646C26.6108 32.8502 26.9751 32.8511 27.3343 32.8667C27.5095 32.8744 27.6452 33.0202 27.6371 33.1923C27.6343 33.2539 27.6134 33.3105 27.58 33.3574C27.5198 33.4416 27.4185 33.4949 27.3059 33.49ZM24.617 33.6677C24.2815 33.7274 23.9438 33.8018 23.6136 33.8894C23.4443 33.9341 23.2699 33.8358 23.2244 33.6695C23.1786 33.5032 23.279 33.332 23.4483 33.2873C23.7957 33.1951 24.1512 33.1167 24.5041 33.0539C24.6766 33.0232 24.8419 33.1356 24.873 33.3053C24.8889 33.3908 24.8674 33.4744 24.8203 33.5402C24.7739 33.6049 24.7025 33.6527 24.617 33.6677ZM22.0351 34.4254C21.7208 34.5565 21.4087 34.7026 21.1068 34.8597C20.9518 34.9403 20.7597 34.8821 20.6777 34.7302C20.5957 34.5779 20.6547 34.3893 20.8096 34.3087C21.1274 34.1436 21.4561 33.9899 21.7869 33.8517C21.9484 33.7844 22.1346 33.8582 22.2032 34.0168C22.2478 34.1197 22.2316 34.2331 22.1704 34.3182C22.1377 34.3638 22.0919 34.4018 22.0351 34.4254ZM14.5454 43.3671C14.3729 43.3353 14.2597 43.1723 14.2922 43.0029C14.3586 42.6562 14.4415 42.3077 14.5382 41.9671C14.5853 41.8011 14.7605 41.7043 14.9292 41.7505C15.0979 41.7968 15.1968 41.9689 15.1497 42.1346C15.0577 42.4581 14.9791 42.7891 14.9161 43.1184C14.9074 43.1634 14.8893 43.2045 14.8641 43.24C14.7945 43.3368 14.6717 43.3907 14.5454 43.3671ZM19.6899 35.7256C19.4133 35.9219 19.1423 36.1326 18.8838 36.3516C18.751 36.464 18.5505 36.4497 18.436 36.3195C18.3213 36.189 18.3369 35.9927 18.4691 35.8797C18.741 35.649 19.0266 35.4273 19.3179 35.2202C19.4601 35.1195 19.6584 35.1507 19.7613 35.2901C19.8427 35.4006 19.8395 35.5464 19.7638 35.6521C19.7441 35.6797 19.7192 35.7045 19.6899 35.7256ZM15.2919 40.7502C15.1313 40.6813 15.058 40.4975 15.1282 40.3395C15.2719 40.0163 15.4319 39.6947 15.6034 39.3842C15.6863 39.2323 15.8797 39.1765 16.0337 39.2586C16.1878 39.3407 16.2451 39.53 16.1616 39.6813C15.9988 39.9765 15.8466 40.2819 15.71 40.5891C15.7013 40.6087 15.6907 40.6268 15.6785 40.6436C15.5934 40.7631 15.4325 40.8109 15.2919 40.7502ZM17.6998 37.5076C17.4753 37.7596 17.2586 38.0246 17.0562 38.295C16.9524 38.4338 16.7537 38.4638 16.6125 38.3618C16.4731 38.261 16.4416 38.0696 16.5407 37.9315C16.542 37.9296 16.5432 37.9278 16.5448 37.9263C16.7578 37.6414 16.9857 37.3624 17.2221 37.0971C17.3378 36.9676 17.5383 36.9544 17.6702 37.0677C17.7933 37.1737 17.8133 37.3526 17.721 37.4812C17.7141 37.4901 17.7073 37.499 17.6998 37.5076Z" fill="url(#paint0_linear_1278_1641)"/>
<path d="M14.6519 45.4196C14.6878 45.3693 14.7093 45.3081 14.7096 45.2422C14.7102 45.0814 14.7146 44.9182 14.7221 44.7565C14.7302 44.5843 14.5945 44.4385 14.4193 44.4309C14.244 44.4229 14.0953 44.5562 14.0878 44.7283C14.08 44.8983 14.0753 45.0701 14.0747 45.2392C14.0738 45.4113 14.2153 45.5516 14.3906 45.5525C14.4982 45.5528 14.5939 45.5004 14.6519 45.4196Z" fill="url(#paint1_linear_1278_1641)"/>
</g>
<g opacity="0.3">
<path d="M18.3878 54.1894C18.4757 54.0663 18.4626 53.8951 18.3491 53.7869C18.2318 53.6748 18.1149 53.5585 18.0017 53.4412C17.881 53.3162 17.6802 53.3107 17.553 53.4292C17.4252 53.548 17.4202 53.745 17.5408 53.8699C17.66 53.9937 17.7831 54.1162 17.9066 54.2341C18.0323 54.3542 18.2334 54.3514 18.3556 54.228C18.3672 54.2157 18.3781 54.2029 18.3878 54.1894Z" fill="url(#paint2_linear_1278_1641)"/>
<path d="M36.751 52.9749C36.6434 53.1109 36.4438 53.1351 36.3054 53.0294C36.1669 52.9238 36.1423 52.7281 36.2499 52.5918C36.455 52.3329 36.6518 52.0619 36.838 51.7822C36.9331 51.6386 37.1308 51.5976 37.2773 51.6919C37.4242 51.7862 37.4654 51.9795 37.3693 52.1234C37.2889 52.2444 37.2065 52.3639 37.1227 52.4812C37.0029 52.6487 36.8779 52.8147 36.751 52.9749ZM37.7928 50.7893C37.6344 50.7155 37.567 50.5295 37.6422 50.3739C37.7865 50.0753 37.9197 49.7675 38.0376 49.4588C38.0987 49.2977 38.2823 49.2159 38.4464 49.2765C38.6104 49.3372 38.6936 49.517 38.6319 49.6781C38.5078 50.003 38.3678 50.3271 38.2156 50.6413C38.2078 50.6576 38.1985 50.6729 38.1885 50.6873C38.1012 50.8092 37.9347 50.8554 37.7928 50.7893ZM35.5975 54.2411C35.3446 54.4831 35.0774 54.718 34.8036 54.9388C34.668 55.0482 34.4681 55.0289 34.3568 54.8956C34.2454 54.7627 34.2654 54.5664 34.4007 54.4567C34.6608 54.2469 34.9143 54.0243 35.1544 53.7942C35.2801 53.6742 35.4809 53.6766 35.6034 53.8001C35.7117 53.9091 35.7219 54.0763 35.6359 54.1967C35.6247 54.2123 35.6119 54.227 35.5975 54.2411ZM38.7482 48.2851C38.5773 48.2471 38.4698 48.0802 38.5084 47.9123C38.5823 47.5904 38.6431 47.2615 38.689 46.9347C38.713 46.7641 38.8733 46.6449 39.0469 46.6685C39.2206 46.6921 39.3419 46.8495 39.3179 47.0198C39.2696 47.3641 39.2057 47.7105 39.1277 48.0495C39.1184 48.0906 39.1012 48.128 39.0778 48.1601C39.0064 48.2606 38.8776 48.3139 38.7482 48.2851ZM33.3954 55.9235C33.0945 56.1048 32.7817 56.2761 32.4652 56.4323C32.3087 56.5098 32.1179 56.4479 32.039 56.2938C31.9601 56.1401 32.0234 55.9526 32.1799 55.8751C32.4805 55.7266 32.7777 55.5639 33.0633 55.3918C33.2127 55.3018 33.4082 55.3477 33.4999 55.4944C33.5682 55.6038 33.5597 55.7382 33.489 55.8368C33.4649 55.8708 33.4335 55.9006 33.3954 55.9235ZM30.8712 57.0908C30.5366 57.2035 30.193 57.3033 29.8503 57.3882C29.6803 57.4301 29.5076 57.3288 29.4648 57.1618C29.4221 56.9946 29.525 56.8252 29.6953 56.7833C30.0208 56.7027 30.3473 56.6078 30.6654 56.5006C30.8313 56.4448 31.0118 56.5315 31.0686 56.6944C31.1029 56.7928 31.0842 56.896 31.0277 56.975C30.9906 57.0274 30.937 57.0687 30.8712 57.0908ZM28.1477 57.6902C27.7956 57.7285 27.4383 57.7527 27.0853 57.7622C26.9101 57.7668 26.7641 57.6311 26.7594 57.4589C26.7548 57.2865 26.8929 57.1435 27.0682 57.1389C27.4037 57.13 27.7433 57.107 28.0778 57.0706C28.2522 57.0516 28.409 57.175 28.4283 57.3459C28.4374 57.4246 28.4156 57.4997 28.3725 57.5594C28.322 57.6302 28.2419 57.6798 28.1477 57.6902ZM25.3562 57.6917C25.0042 57.6537 24.6499 57.6001 24.3029 57.5331C24.1308 57.4997 24.0188 57.3358 24.0528 57.1667C24.0865 56.998 24.2536 56.888 24.4257 56.9211C24.755 56.9848 25.0915 57.0353 25.4258 57.0718C25.6001 57.0908 25.7257 57.2448 25.7064 57.4158C25.7002 57.47 25.6805 57.519 25.6509 57.5606C25.5867 57.6507 25.4753 57.7046 25.3562 57.6917ZM22.6312 57.0902C22.2972 56.9771 21.9639 56.8485 21.6402 56.7076C21.4799 56.6381 21.4073 56.4537 21.4784 56.2963C21.5491 56.1395 21.7366 56.0675 21.8971 56.1373C22.2046 56.2709 22.5214 56.3931 22.8385 56.5006C23.0041 56.5566 23.0924 56.7343 23.035 56.8969C23.025 56.9254 23.0113 56.9514 22.9948 56.9747C22.9153 57.0859 22.7681 57.1367 22.6312 57.0902ZM20.1094 55.9171C19.8877 55.7832 19.6676 55.6408 19.4549 55.4941C19.3779 55.4408 19.3018 55.3872 19.2264 55.3327C19.0851 55.2307 19.0508 55.0353 19.1587 54.8969C19.2625 54.7581 19.4612 54.7284 19.6024 54.8304C19.6741 54.8822 19.7465 54.9333 19.8198 54.9838C20.0218 55.1232 20.2311 55.2586 20.4419 55.386C20.5912 55.476 20.6377 55.6684 20.546 55.8148C20.5426 55.8203 20.5388 55.8258 20.5351 55.831C20.4397 55.9649 20.2532 56.0041 20.1094 55.9171Z" fill="url(#paint3_linear_1278_1641)"/>
<path d="M39.3793 45.4955C39.4155 45.4446 39.437 45.3831 39.437 45.3163C39.437 45.1475 39.4332 44.9754 39.4261 44.8051C39.4189 44.633 39.2711 44.4994 39.0958 44.5065C38.9206 44.5135 38.7843 44.6587 38.7918 44.8308C38.7987 44.9929 38.8021 45.1561 38.8021 45.3163C38.8021 45.4884 38.9443 45.6281 39.1195 45.6281C39.2268 45.6281 39.3219 45.5754 39.3793 45.4955Z" fill="url(#paint4_linear_1278_1641)"/>
</g>
<path d="M35.5348 41.712C35.5176 41.6522 35.4637 41.6093 35.4007 41.606L33.598 41.5028C33.1908 40.7775 32.6629 40.1104 32.023 39.5346L32.3451 37.7903C32.3563 37.729 32.327 37.6678 32.2718 37.6371L30.3831 36.5955C30.3279 36.5651 30.259 36.5722 30.2119 36.6135L28.8636 37.7918C28.0298 37.555 27.1754 37.4595 26.3328 37.4956L25.3044 36.0377C25.2682 35.9866 25.2034 35.9636 25.1422 35.9804L23.0568 36.5556C22.9959 36.5725 22.9523 36.6255 22.9489 36.6873L22.8438 38.458C22.1054 38.858 21.4262 39.3765 20.84 40.005L19.0644 39.6886C19.0021 39.6776 18.9394 39.7064 18.9085 39.7606L17.848 41.6158C17.8171 41.67 17.8246 41.7377 17.8664 41.7839L19.066 43.1083C18.825 43.9273 18.7277 44.7665 18.7645 45.5941L17.2802 46.6042C17.2281 46.6398 17.2047 46.7035 17.2219 46.7635L17.8075 48.812C17.8246 48.8717 17.8786 48.9143 17.9416 48.9179L19.7445 49.0211C20.1518 49.7464 20.6797 50.4135 21.3196 50.9893L20.9975 52.7336C20.9862 52.7949 21.0155 52.8565 21.0707 52.8868L22.9595 53.9284C23.0147 53.9588 23.0836 53.9517 23.1307 53.9104L24.479 52.7321C25.3128 52.9689 26.1672 53.0644 27.0098 53.0283L28.0382 54.4862C28.0743 54.5373 28.1392 54.5603 28.2003 54.5435L30.2858 53.9683C30.3466 53.9514 30.39 53.8984 30.3937 53.8366L30.4988 52.0659C31.2372 51.6659 31.9164 51.1474 32.5026 50.5189L34.2781 50.8353C34.3405 50.8463 34.4029 50.8175 34.434 50.7633L35.4946 48.9081C35.5254 48.8539 35.5183 48.7862 35.4762 48.74L34.2766 47.4156C34.5176 46.5966 34.6149 45.7574 34.5781 44.9298L36.0624 43.9197C36.1145 43.8841 36.1379 43.8204 36.1207 43.7604L35.5348 41.712Z" fill="#FF4F5B"/>
<path opacity="0.56" d="M28.2512 46.7338C27.4252 47.5895 26.0444 47.6254 25.1732 46.814C24.751 46.4211 24.5102 45.89 24.4949 45.319C24.4794 44.7481 24.6914 44.2054 25.0915 43.7907C25.9175 42.9349 27.2983 42.8991 28.1695 43.7104C28.9622 44.4486 29.0638 45.6379 28.4536 46.4909C28.3934 46.5751 28.3257 46.6566 28.2512 46.7338ZM25.0026 45.3056C25.0144 45.7436 25.199 46.1506 25.5227 46.452C26.1907 47.0741 27.2493 47.0465 27.8826 46.3904C28.5163 45.7344 28.4879 44.6945 27.8199 44.0722C27.152 43.4501 26.0934 43.4777 25.46 44.1337C25.4027 44.1931 25.3503 44.2562 25.3032 44.3221C25.0986 44.6082 24.9929 44.95 25.0026 45.3056Z" fill="white"/>
<path opacity="0.56" d="M31.0013 48.3023C31.1061 48.1559 31.204 48.0034 31.2944 47.845C31.3228 47.7951 31.3505 47.7449 31.3774 47.6943C31.5096 47.4444 31.6215 47.1844 31.7113 46.9185C31.7126 46.9148 31.7138 46.9111 31.7151 46.9078C31.7185 46.8974 31.7219 46.8873 31.7254 46.8768C31.7319 46.8566 31.7385 46.8367 31.7447 46.8165C31.7612 46.7635 31.7403 46.7081 31.6967 46.6778C31.6861 46.6704 31.6739 46.6646 31.6608 46.6606C31.5938 46.6404 31.523 46.6775 31.5021 46.743C31.3958 47.0818 31.2514 47.4113 31.0733 47.7228C30.189 49.2708 28.5865 50.1786 26.9036 50.2711C25.9675 50.3226 25.0064 50.1219 24.1299 49.6386C23.9762 49.5538 23.8281 49.4622 23.6859 49.3639C22.7286 48.7029 22.0375 47.7467 21.717 46.6254C21.3487 45.3371 21.5131 43.9852 22.1797 42.8186C23.5571 40.4093 26.6713 39.5508 29.1232 40.9031C29.2744 40.9864 29.4207 41.077 29.5616 41.1744C30.1722 41.5962 30.6823 42.1441 31.0527 42.7812C31.0624 42.7977 31.0752 42.8112 31.0899 42.8213C31.1288 42.8483 31.1818 42.8523 31.2258 42.8274C31.2866 42.7931 31.3081 42.7172 31.2729 42.6572C30.8837 41.9882 30.3483 41.4127 29.7072 40.9701C29.5594 40.8678 29.4057 40.7729 29.247 40.6853C26.6728 39.2657 23.4024 40.1686 21.9577 42.6964C21.2577 43.9212 21.0852 45.3405 21.4719 46.6928C21.8084 47.8701 22.534 48.8738 23.539 49.5679C23.6884 49.6711 23.844 49.7673 24.0052 49.8561C25.2522 50.5437 26.6972 50.7134 28.0739 50.3336C29.2728 50.0028 30.295 49.2898 31.0013 48.3023Z" fill="white"/>
<g opacity="0.3">
<path d="M48.2242 32.3623C48.2728 32.294 48.2725 32.1999 48.217 32.1316C48.1132 32.0036 48.0043 31.8771 47.8927 31.7555C47.8203 31.6765 47.6966 31.6701 47.6158 31.7411C47.535 31.8122 47.5288 31.9341 47.6011 32.0131C47.7075 32.1289 47.8113 32.2496 47.9102 32.3718C47.9775 32.4548 48.101 32.4686 48.1858 32.4024C48.2011 32.3905 48.2136 32.377 48.2242 32.3623Z" fill="url(#paint5_linear_1278_1641)"/>
<path d="M47.1676 31.309C47.0965 31.3892 46.9731 31.3981 46.8911 31.3283C46.6846 31.1525 46.4663 30.9849 46.2428 30.8309C46.1957 30.7984 46.148 30.7662 46.0996 30.7344C46.0098 30.675 45.9858 30.5555 46.0463 30.467C46.1068 30.3858 46.2284 30.3552 46.3185 30.4146C46.3691 30.448 46.4189 30.4814 46.4682 30.5157C46.7027 30.6774 46.9313 30.8529 47.148 31.0373C47.2247 31.1025 47.2372 31.2134 47.1801 31.2933C47.1761 31.2986 47.172 31.3038 47.1676 31.309ZM45.2409 30.2391C44.9453 30.0918 44.6381 29.961 44.3272 29.8507C44.2253 29.8146 44.1726 29.7043 44.2093 29.6042C44.2461 29.5046 44.3584 29.4523 44.4604 29.4884C44.7862 29.6039 45.1083 29.7408 45.4183 29.8955C45.515 29.9435 45.5533 30.0596 45.5044 30.1546C45.5 30.1628 45.495 30.1708 45.4897 30.1782C45.4345 30.2557 45.3288 30.2829 45.2409 30.2391ZM43.3712 29.5766C43.0484 29.5049 42.7179 29.4526 42.388 29.4207C42.2804 29.4103 42.2015 29.316 42.2121 29.2103C42.2227 29.104 42.3184 29.0268 42.4263 29.0376C42.7721 29.0709 43.1189 29.1261 43.4572 29.2008C43.5629 29.2244 43.6294 29.3273 43.6053 29.4311C43.5994 29.4562 43.5888 29.4795 43.5745 29.4994C43.5305 29.5613 43.451 29.5944 43.3712 29.5766ZM41.3932 29.3855C41.0621 29.3938 40.7281 29.4226 40.4016 29.4706C40.2944 29.4863 40.1946 29.414 40.1787 29.3086C40.1628 29.2036 40.2364 29.1056 40.3433 29.0896C40.686 29.0391 41.0359 29.0091 41.3833 29.0002C41.4915 28.9974 41.5816 29.0817 41.5844 29.1879C41.5853 29.2308 41.5722 29.2706 41.5488 29.3034C41.5142 29.3518 41.4578 29.384 41.3932 29.3855ZM39.4275 29.6746C39.1085 29.7619 38.792 29.8691 38.4864 29.9938C38.3866 30.0345 38.2719 29.988 38.2301 29.8896C38.1886 29.7913 38.2357 29.6786 38.3361 29.6379C38.656 29.5074 38.9878 29.3947 39.3224 29.3031C39.4269 29.2746 39.5348 29.3347 39.5638 29.437C39.5803 29.4948 39.5678 29.554 39.5354 29.5996C39.5101 29.6351 39.4727 29.6624 39.4275 29.6746ZM37.5927 30.4238C37.3052 30.5843 37.0252 30.7641 36.7601 30.9583C36.6735 31.022 36.5506 31.0042 36.4857 30.9191C36.4212 30.8339 36.4386 30.7135 36.5256 30.6495C36.8032 30.4459 37.0972 30.2575 37.3988 30.0887C37.4929 30.0364 37.6127 30.0685 37.666 30.161C37.7047 30.2281 37.6981 30.308 37.656 30.3671C37.6401 30.3895 37.6186 30.4091 37.5927 30.4238ZM36.0008 31.5901C35.7629 31.8143 35.5362 32.0566 35.327 32.3096C35.2587 32.392 35.1352 32.4045 35.051 32.3375C34.9668 32.2704 34.9553 32.1503 35.0223 32.0664C35.2419 31.8012 35.4795 31.5473 35.7292 31.312C35.8075 31.2385 35.9316 31.241 36.0065 31.3175C36.0726 31.3849 36.0782 31.4875 36.0255 31.5613C36.0183 31.5721 36.0102 31.5816 36.0008 31.5901ZM34.0117 34.0579C33.9135 34.0129 33.8711 33.8983 33.9169 33.8018C34.0438 33.535 34.1876 33.2704 34.3441 33.0162C34.3678 32.9773 34.3918 32.9393 34.4161 32.901C34.4707 32.8098 34.5948 32.7837 34.6865 32.8404C34.7782 32.8971 34.8059 33.0156 34.7482 33.1059C34.7252 33.1415 34.7027 33.1776 34.6803 33.2147C34.5306 33.4582 34.3934 33.7106 34.2724 33.9648C34.2674 33.9752 34.2615 33.985 34.2549 33.9942C34.2013 34.0695 34.099 34.098 34.0117 34.0579Z" fill="url(#paint6_linear_1278_1641)"/>
</g>
<g opacity="0.3">
<path d="M48.4532 42.1938C48.253 42.4657 48.0345 42.7282 47.8031 42.9739C47.7295 43.052 47.6054 43.0566 47.5259 42.9843C47.4464 42.912 47.4429 42.7904 47.5153 42.712C47.7357 42.478 47.9443 42.2275 48.1355 41.968C48.1988 41.8817 48.3213 41.8624 48.4093 41.9245C48.4963 41.9864 48.5165 42.1052 48.4551 42.1913C48.4542 42.1922 48.4536 42.1928 48.4532 42.1938ZM48.737 41.417C48.6422 41.3656 48.6079 41.2483 48.6606 41.1555C48.8184 40.8755 48.9603 40.5833 49.0828 40.2871C49.1237 40.1894 49.2378 40.141 49.3382 40.1812C49.4386 40.221 49.4866 40.3334 49.4461 40.432C49.3179 40.7426 49.1689 41.0486 49.0036 41.342C49.0002 41.3481 48.9964 41.3539 48.9924 41.3597C48.9353 41.4391 48.8256 41.4651 48.737 41.417ZM47.0606 43.671C46.7993 43.8875 46.5224 44.0906 46.2377 44.2737C46.147 44.3319 46.0254 44.3071 45.9661 44.2183C45.9066 44.1295 45.9321 44.0103 46.0226 43.9515C46.2945 43.7766 46.5586 43.5831 46.8077 43.3766C46.8904 43.308 47.0142 43.3184 47.084 43.3996C47.1426 43.4679 47.1448 43.5647 47.0946 43.6345C47.0853 43.6477 47.074 43.66 47.0606 43.671ZM49.5328 39.6112C49.4283 39.5836 49.3663 39.4779 49.3943 39.375C49.4788 39.066 49.5449 38.749 49.5905 38.4326C49.6057 38.3275 49.7049 38.254 49.8119 38.2687C49.9191 38.2837 49.9937 38.3811 49.9787 38.4865C49.931 38.8185 49.8618 39.1511 49.7729 39.4752C49.7667 39.4975 49.7567 39.5181 49.7439 39.5358C49.6981 39.6001 49.6145 39.6326 49.5328 39.6112ZM45.3465 44.7736C45.0406 44.9218 44.7222 45.0532 44.4001 45.1641C44.2978 45.1993 44.1859 45.1464 44.15 45.0462C44.1142 44.9457 44.1678 44.8358 44.2701 44.8006C44.5772 44.6949 44.881 44.5696 45.1728 44.4281C45.2698 44.3809 45.3874 44.4202 45.4354 44.5157C45.4681 44.581 45.4597 44.656 45.4198 44.7117C45.4017 44.7375 45.3771 44.7589 45.3465 44.7736ZM43.4129 45.4404C43.0789 45.5124 42.7378 45.5654 42.3985 45.5975C42.2909 45.6076 42.1949 45.5301 42.1846 45.4245C42.174 45.3188 42.2529 45.2245 42.3611 45.2143C42.6845 45.1837 43.01 45.1332 43.3287 45.0643C43.4344 45.0413 43.5392 45.1072 43.5623 45.211C43.5744 45.2658 43.5616 45.3203 43.5311 45.3632C43.5039 45.4012 43.4625 45.4297 43.4129 45.4404ZM41.372 45.633C41.0299 45.6245 40.6857 45.5954 40.3486 45.5464C40.2413 45.5307 40.1674 45.4327 40.1833 45.3277C40.1992 45.2226 40.299 45.15 40.4059 45.1653C40.7274 45.2122 41.0558 45.2401 41.3817 45.2477C41.4899 45.2505 41.5756 45.3387 41.5728 45.4453C41.5719 45.4848 41.5588 45.5209 41.5373 45.551C41.5011 45.6021 41.4403 45.6349 41.372 45.633Z" fill="url(#paint7_linear_1278_1641)"/>
<path d="M50.0253 37.579C50.0471 37.5486 50.0599 37.5116 50.0608 37.4718C50.0639 37.307 50.0618 37.1413 50.0549 36.9792C50.0502 36.873 49.9592 36.7903 49.851 36.7949C49.7431 36.7995 49.6589 36.8889 49.6632 36.9952C49.6698 37.1495 49.6717 37.3076 49.6689 37.465C49.667 37.5713 49.7534 37.6592 49.8616 37.661C49.9289 37.662 49.9891 37.6295 50.0253 37.579Z" fill="url(#paint8_linear_1278_1641)"/>
</g>
<path d="M47.4672 34.9087C47.4557 34.8686 47.4198 34.8401 47.3774 34.8376L46.1709 34.7684C45.8984 34.283 45.5451 33.8367 45.117 33.4514L45.3324 32.2841C45.3399 32.2431 45.3203 32.2021 45.2835 32.1818L44.0196 31.4847C43.9828 31.4642 43.9367 31.4691 43.9052 31.497L43.0031 32.2854C42.4452 32.127 41.8733 32.063 41.3096 32.0872L40.6214 31.1117C40.5974 31.0774 40.5537 31.0621 40.5128 31.0734L39.1174 31.4587C39.0766 31.47 39.0476 31.5053 39.0451 31.5469L38.9746 32.7319C38.4804 32.9996 38.026 33.3466 37.6338 33.7672L36.4457 33.5552C36.4039 33.5479 36.3621 33.5672 36.3416 33.6033L35.6318 34.8447C35.6109 34.8808 35.6162 34.9262 35.6443 34.9571L36.4469 35.8432C36.2857 36.3911 36.2206 36.9528 36.2452 37.5066L35.2517 38.1826C35.2168 38.2062 35.2012 38.249 35.2127 38.2892L35.6047 39.6598C35.6162 39.6999 35.6521 39.7284 35.6945 39.7309L36.901 39.8001C37.1735 40.2855 37.5268 40.7318 37.9549 41.1171L37.7395 42.2844C37.732 42.3254 37.7516 42.3664 37.7884 42.3867L39.0523 43.0838C39.089 43.104 39.1352 43.0991 39.1667 43.0715L40.0688 42.2831C40.6267 42.4415 41.1986 42.5055 41.7623 42.4813L42.4505 43.4568C42.4745 43.4911 42.5182 43.5064 42.559 43.4951L43.9545 43.1101C43.9953 43.0988 44.0243 43.0635 44.0268 43.0219L44.0973 41.8369C44.5915 41.5692 45.0459 41.2222 45.4381 40.8016L46.6262 41.0136C46.668 41.0209 46.7098 41.0016 46.7303 40.9655L47.4401 39.7241C47.4606 39.688 47.456 39.6426 47.4276 39.6117L46.6249 38.7256C46.7862 38.1777 46.8513 37.616 46.8267 37.0622L47.8199 36.3862C47.8548 36.3626 47.8704 36.3198 47.8588 36.2796L47.4672 34.9087Z" fill="#FF4F5B"/>
<path opacity="0.56" d="M42.6122 38.2867C42.3397 38.5691 41.9714 38.7305 41.5754 38.7406C41.1794 38.751 40.803 38.6092 40.5155 38.3415C39.9221 37.789 39.8975 36.8667 40.4597 36.282C41.0225 35.6992 41.963 35.6747 42.5564 36.2275C42.8439 36.4952 43.0079 36.8569 43.0185 37.2459C43.0269 37.562 42.9331 37.8655 42.7513 38.1197C42.7095 38.1779 42.663 38.2337 42.6122 38.2867ZM40.7849 38.0619C40.9963 38.2588 41.2732 38.3632 41.5648 38.3556C41.856 38.3479 42.127 38.2294 42.3275 38.0217C42.5277 37.8138 42.634 37.5421 42.6266 37.2557C42.6191 36.9696 42.4981 36.7035 42.2867 36.5068C41.8501 36.1004 41.1585 36.1182 40.7444 36.547C40.707 36.5856 40.6733 36.6263 40.643 36.6689C40.3368 37.0961 40.388 37.6922 40.7849 38.0619Z" fill="white"/>
<path opacity="0.56" d="M44.5262 39.3783C44.5976 39.2784 44.6643 39.1746 44.7264 39.0662C44.8495 38.8509 44.9506 38.623 45.0266 38.3884C45.0301 38.3776 45.0332 38.3672 45.0366 38.3565C45.0625 38.2747 45.0298 38.189 44.9621 38.1421C44.9456 38.1308 44.9272 38.1216 44.9069 38.1155C44.8034 38.0842 44.6939 38.1415 44.6618 38.2429C44.5929 38.4625 44.4994 38.676 44.3843 38.8772C44.378 38.8882 44.3715 38.8993 44.3653 38.9103C44.0884 39.3841 43.7017 39.7722 43.2402 40.0509C42.9898 40.2022 42.717 40.3213 42.4273 40.404C42.4248 40.4046 42.4226 40.4053 42.4201 40.4062C42.4129 40.408 42.4058 40.4102 42.3986 40.4123C41.5495 40.6463 40.6586 40.5419 39.8896 40.118C39.7902 40.0631 39.6941 40.0037 39.6021 39.9403C38.9825 39.5124 38.5351 38.8934 38.3274 38.1672C38.0888 37.3332 38.1955 36.4582 38.627 35.7029C39.0586 34.9482 39.764 34.4027 40.6131 34.1684C41.4622 33.9341 42.3531 34.0388 43.122 34.4627C43.2199 34.5166 43.3147 34.5754 43.4058 34.6382C43.8012 34.9111 44.1311 35.2661 44.3712 35.6784C44.3862 35.7038 44.4058 35.7246 44.4286 35.7402C44.4887 35.7819 44.5704 35.7883 44.6387 35.75C44.7326 35.697 44.7656 35.5797 44.7117 35.4872C44.4432 35.0257 44.074 34.6287 43.6319 34.3233C43.5296 34.2529 43.4239 34.1874 43.3144 34.127C42.4541 33.6526 41.4572 33.5356 40.5074 33.7978C39.5575 34.0599 38.7683 34.6688 38.2856 35.5145C37.8026 36.3595 37.6835 37.3384 37.9504 38.2717C38.1827 39.0839 38.6832 39.7765 39.3764 40.2552C39.4793 40.3262 39.5865 40.3927 39.6979 40.454C41.363 41.3719 43.4507 40.8815 44.5262 39.3783Z" fill="white"/>
<path d="M74.1571 35.4196V111.999C74.1571 112.504 73.9488 112.961 73.594 113.243C73.3249 113.457 72.985 113.594 72.6105 113.58L71.7567 113.549C70.8935 113.517 70.1152 112.741 70.1152 111.855V35.5491L74.1571 35.4196Z" fill="#FF4F5B"/>
<path d="M75.7821 32.6722C75.7821 33.9644 75.1136 35.1213 74.107 35.8019C73.5404 36.185 72.8669 36.4169 72.1462 36.438C71.7886 36.4484 71.4421 36.4071 71.116 36.3186C70.8706 36.2527 70.6361 36.1608 70.4153 36.046C70.3595 36.0163 70.304 35.9862 70.2491 35.9532C69.2194 35.344 68.5347 34.2184 68.5347 32.9102C68.5347 30.9019 70.1487 29.2167 72.1459 29.1441C74.1507 29.0715 75.7821 30.6501 75.7821 32.6722Z" fill="#FF4F5B"/>
<path opacity="0.3" d="M74.1171 32.5396C74.1171 33.5443 73.5973 34.4438 72.8146 34.9728C72.374 35.2708 71.8505 35.4509 71.2901 35.4674C71.012 35.4757 70.7425 35.4432 70.4893 35.3746C70.2985 35.3235 70.1164 35.2518 69.9446 35.1627C69.9012 35.1394 69.8579 35.1164 69.8155 35.0904C69.0147 34.6169 68.4824 33.7415 68.4824 32.7246C68.4824 31.1632 69.7375 29.8529 71.2901 29.7965C72.8486 29.7402 74.1171 30.9678 74.1171 32.5396Z" fill="#FF4F5B"/>
<path d="M44.941 38.1563L45.2513 38.3137L51.1314 34.7725L79.9273 38.9536L83.9551 39.4063L83.7175 40.1447C83.6854 40.224 79.1028 43.504 79.1028 43.504L82.6695 48.102L82.498 48.5749C82.4777 48.631 82.4216 48.6653 82.3645 48.6564L78.6616 48.0928L49.8495 43.7089C49.7687 43.6967 49.6945 43.6584 49.6371 43.5993L45.0034 38.835C44.9426 38.7725 44.9108 38.6862 44.9161 38.5974L44.941 38.1563Z" fill="url(#paint9_linear_1278_1641)"/>
<path d="M51.4563 34.4616L83.9548 39.4065C83.985 39.4111 83.9938 39.4513 83.9685 39.4693L79.389 42.7598C79.327 42.8045 79.3104 42.8912 79.3516 42.9552L82.6267 48.0364C82.6429 48.0616 82.622 48.0949 82.593 48.0903L50.074 43.1426C49.9813 43.1285 49.8956 43.085 49.8285 43.0186L44.9822 38.197C44.9616 38.1765 44.9662 38.1416 44.9915 38.1269L51.1635 34.5185C51.2523 34.4662 51.3556 34.4463 51.4563 34.4616Z" fill="#FF4F5B"/>
<path d="M47.7681 68.0069L48.0977 68.0863L52.8212 63.4081L80.9791 60.8745L84.7369 60.4132C84.8149 60.4037 84.8828 60.4656 84.8788 60.5428L84.8464 61.1464C84.8345 61.2288 81.2632 65.3683 81.2632 65.3683L85.7032 68.9169L85.6518 69.4033C85.6456 69.4609 85.601 69.5059 85.5448 69.5105L81.918 69.8119L53.6974 72.1571C53.6185 72.1635 53.5393 72.1442 53.4714 72.1014L47.9851 68.6354C47.9131 68.5901 47.8632 68.5154 47.847 68.4302L47.7681 68.0069Z" fill="url(#paint10_linear_1278_1641)"/>
<path d="M53.0553 63.0407L84.7924 60.403C84.8575 60.3975 84.8968 60.4722 84.8547 60.5212L81.3601 64.5988C81.3124 64.6545 81.3168 64.7418 81.3701 64.7927L85.6496 68.8663C85.6705 68.8862 85.658 68.9211 85.6287 68.9235L53.7772 71.5708C53.6865 71.5784 53.5954 71.5567 53.5165 71.5086L47.8161 68.0369C47.7914 68.0218 47.7877 67.9882 47.8083 67.9682L52.7915 63.1608C52.8642 63.0913 52.9568 63.049 53.0553 63.0407Z" fill="#FF4F5B"/>
<path opacity="0.56" d="M71.9045 65.0108L54.2159 66.3689C54.1504 66.3738 54.0924 66.3254 54.0874 66.2611L54.0238 65.4617C54.0188 65.3973 54.0681 65.3404 54.1335 65.3355L71.8222 63.9774C71.8877 63.9725 71.9457 64.0209 71.9507 64.0852L72.0143 64.8846C72.0196 64.9489 71.97 65.0059 71.9045 65.0108Z" fill="white"/>
<path opacity="0.56" d="M71.9171 67.753L54.3697 69.1003C54.3042 69.1052 54.2462 69.0568 54.2412 68.9925L54.182 68.2467C54.177 68.1824 54.2263 68.1254 54.2918 68.1205L71.8391 66.7732C71.9046 66.7683 71.9626 66.8167 71.9676 66.881L72.0269 67.6268C72.0322 67.6911 71.9829 67.7481 71.9171 67.753Z" fill="white"/>
<path d="M99.0003 52.3833L98.6582 52.5171L92.7304 48.7477L61.8802 51.0727L57.5845 51.3134L57.7597 51.9735C57.7872 52.0522 62.3685 55.5157 62.3685 55.5157L58.2025 59.7436L58.3441 60.2104C58.3609 60.2658 58.4174 60.302 58.4785 60.2971L62.4477 59.9733L93.3322 57.4535C93.4186 57.4465 93.5006 57.4137 93.5664 57.3604L98.8765 53.0351C98.946 52.9784 98.9872 52.8969 98.989 52.8109L99.0003 52.3833Z" fill="#FF4F5B"/>
<path d="M92.4125 48.4279L57.6486 51.2641C57.5912 51.2687 57.57 51.3401 57.6155 51.3747L62.1279 54.78C62.1894 54.8262 62.1997 54.9123 62.1507 54.9714L58.2541 59.6817C58.2348 59.705 58.2535 59.7399 58.2841 59.7375L93.1421 56.8933C93.2416 56.8854 93.3361 56.8483 93.4125 56.788L98.953 52.4203C98.9758 52.4023 98.9739 52.3673 98.949 52.352L92.7177 48.5005C92.6279 48.4447 92.5204 48.4193 92.4125 48.4279Z" fill="#FF4F5B"/>
<path opacity="0.56" d="M91.9282 51.7527L74.6515 53.0792C74.586 53.0841 74.528 53.0357 74.523 52.9714L74.4569 52.1398C74.4519 52.0755 74.5012 52.0185 74.5667 52.0136L91.8434 50.6871C91.9089 50.6822 91.9668 50.7306 91.9718 50.7949L92.0379 51.6265C92.0433 51.6908 91.9937 51.7478 91.9282 51.7527Z" fill="white"/>
<path opacity="0.56" d="M91.9522 54.5794L74.8136 55.8952C74.7481 55.9001 74.6901 55.8517 74.6851 55.7874L74.6234 55.0109C74.6184 54.9466 74.6677 54.8896 74.7332 54.8847L91.8717 53.5689C91.9372 53.564 91.9952 53.6124 92.0002 53.6768L92.0619 54.4532C92.0672 54.5175 92.0177 54.5742 91.9522 54.5794Z" fill="white"/>
<path d="M72.1287 43.4275C72.8104 43.4275 73.3629 42.8847 73.3629 42.2152C73.3629 41.5457 72.8104 41.0029 72.1287 41.0029C71.4471 41.0029 70.8945 41.5457 70.8945 42.2152C70.8945 42.8847 71.4471 43.4275 72.1287 43.4275Z" fill="url(#paint11_linear_1278_1641)"/>
<path d="M72.213 42.7663C72.6313 42.7663 72.9704 42.4332 72.9704 42.0223C72.9704 41.6114 72.6313 41.2783 72.213 41.2783C71.7947 41.2783 71.4556 41.6114 71.4556 42.0223C71.4556 42.4332 71.7947 42.7663 72.213 42.7663Z" fill="url(#paint12_linear_1278_1641)"/>
<path d="M71.9328 55.696C72.5893 55.696 73.1215 55.1732 73.1215 54.5284C73.1215 53.8836 72.5893 53.3608 71.9328 53.3608C71.2763 53.3608 70.7441 53.8836 70.7441 54.5284C70.7441 55.1732 71.2763 55.696 71.9328 55.696Z" fill="url(#paint13_linear_1278_1641)"/>
<path d="M72.014 55.0591C72.4168 55.0591 72.7434 54.7384 72.7434 54.3427C72.7434 53.9471 72.4168 53.6263 72.014 53.6263C71.6112 53.6263 71.2847 53.9471 71.2847 54.3427C71.2847 54.7384 71.6112 55.0591 72.014 55.0591Z" fill="url(#paint14_linear_1278_1641)"/>
<path d="M72.0063 66.7856C72.6883 66.7856 73.2411 66.2426 73.2411 65.5728C73.2411 64.9029 72.6883 64.3599 72.0063 64.3599C71.3243 64.3599 70.7715 64.9029 70.7715 65.5728C70.7715 66.2426 71.3243 66.7856 72.0063 66.7856Z" fill="url(#paint15_linear_1278_1641)"/>
<path d="M72.0907 66.124C72.5092 66.124 72.8485 65.7908 72.8485 65.3798C72.8485 64.9687 72.5092 64.6355 72.0907 64.6355C71.6723 64.6355 71.333 64.9687 71.333 65.3798C71.333 65.7908 71.6723 66.124 72.0907 66.124Z" fill="url(#paint16_linear_1278_1641)"/>
<path opacity="0.56" d="M68.4323 40.2991L52.6224 37.8488C52.5576 37.8387 52.5127 37.7783 52.523 37.7146L52.6424 36.9704C52.6527 36.9067 52.7141 36.8626 52.779 36.8727L68.5888 39.3229C68.6537 39.333 68.6986 39.3934 68.6883 39.4571L68.5689 40.2014C68.5589 40.2651 68.4972 40.3092 68.4323 40.2991Z" fill="white"/>
<path opacity="0.56" d="M67.836 42.8461L52.1527 40.4154C52.0878 40.4053 52.0429 40.345 52.0532 40.2813L52.1646 39.5876C52.1748 39.5238 52.2363 39.4797 52.3011 39.4898L67.9844 41.9205C68.0493 41.9306 68.0942 41.991 68.0839 42.0547L67.9726 42.7484C67.9623 42.8124 67.9008 42.8562 67.836 42.8461Z" fill="white"/>
<path d="M45.6248 74.8281C35.8375 74.5776 25.0109 77.1599 25.0109 77.1599C22.4334 91.1305 23.5675 106.933 24.0062 111.719C24.0885 112.615 24.7708 113.343 25.672 113.505C30.7295 114.418 36.0633 113.864 38.7462 113.463C39.7899 113.307 40.6247 112.533 40.8464 111.519C42.6194 103.413 47.6844 85.5297 47.6844 85.5297C52.4728 84.9916 56.4258 83.673 59.6878 81.9116C57.2403 79.0705 56.1084 75.4741 55.6223 73.35C52.151 74.3739 48.6436 74.9056 45.6248 74.8281Z" fill="#FF4F5B"/>
<path d="M74.6767 60.9371C73.7262 59.7873 72.8335 59.8372 72.8335 59.8372C71.3348 65.8003 63.4051 71.054 55.6226 73.3502C56.1087 75.4743 57.2406 79.071 59.6881 81.9118C72.6352 74.9203 74.6767 60.9371 74.6767 60.9371Z" fill="url(#paint17_linear_1278_1641)"/>
<path d="M74.4407 61.2251C74.5383 61.5402 73.3684 62.0076 72.6948 60.7163C72.6767 60.1001 72.3212 57.4584 72.7007 56.96C74.722 54.3067 78.6232 50.9933 78.6232 50.9933C79.2709 51.6331 78.7261 52.2506 78.7261 52.2506L76.8309 54.1532C77.2166 54.8537 77.6899 55.4464 77.906 56.2911C78.0698 56.9309 77.9594 57.6121 77.6254 58.1898C77.2902 58.7696 76.8334 59.5233 76.4027 60.1123C75.5876 61.2272 74.4407 61.2251 74.4407 61.2251Z" fill="url(#paint18_linear_1278_1641)"/>
<path d="M75.9979 55.3916L74.2738 56.7996L73.7231 58.2125L75.2318 59.8882C75.2318 59.8882 75.7718 57.0798 76.1588 56.4746C76.5458 55.8694 76.3509 55.5729 75.9979 55.3916Z" fill="url(#paint19_linear_1278_1641)"/>
<path d="M28.6748 86.505L25.0109 77.1599C25.0109 77.1599 15.8083 83.1763 14.2295 90.899C15.9561 91.0401 19.0952 91.5109 22.1577 93.0659C22.8693 89.419 28.6748 86.505 28.6748 86.505Z" fill="#FF4F5B"/>
<path d="M36.5802 95.3404C36.5802 95.3404 26.2593 100.943 22.8427 96.0442C22.1333 95.027 21.9711 94.0215 22.1576 93.0659C19.0951 91.5109 15.956 91.0401 14.2294 90.8989C13.7536 93.227 13.969 95.7101 15.3398 98.2302C21.3013 109.189 37.9142 97.839 37.9142 97.839L36.5802 95.3404Z" fill="url(#paint20_linear_1278_1641)"/>
<path d="M35.7857 66.9296L32.5851 75.7475C32.5321 75.8936 32.5919 76.0566 32.7291 76.1328C33.5736 76.6017 36.6195 77.9632 40.328 75.7022C40.7144 75.4667 40.9794 75.0792 41.0421 74.6366L42.1251 66.9887L35.7857 66.9296Z" fill="url(#paint21_linear_1278_1641)"/>
<path d="M42.6419 58.8002C42.6419 58.8002 46.0006 65.1559 45.5375 67.7063C45.0744 70.2568 40.8373 70.0335 37.1559 67.9241L34.6357 61.0716L42.6419 58.8002Z" fill="url(#paint22_linear_1278_1641)"/>
<path d="M37.3526 64.5724C37.5035 64.5084 37.5609 64.328 37.472 64.192C37.202 63.7782 36.6965 62.9347 36.5396 62.1987C36.5396 62.1987 35.9285 61.806 38.1131 61.3141C40.2978 60.8222 43.5563 60.0571 44.257 58.2412C44.9405 56.4705 43.2336 51.9859 40.4066 55.5201C40.299 55.6546 40.091 55.6555 39.9863 55.5189C39.5341 54.9293 38.3426 53.7035 36.6644 54.4242C35.094 55.0987 34.9069 56.2224 34.9231 56.79C34.9278 56.9569 34.7747 57.0852 34.6079 57.0525C33.8186 56.8969 31.9231 56.752 31.0188 58.6552C30.2741 60.2228 30.7397 61.1187 31.1672 61.5585C31.3056 61.7009 31.242 61.9331 31.0496 61.9889C30.5286 62.1402 29.8535 62.5668 29.909 63.7629C29.9857 65.4165 31.8688 65.2888 32.4051 65.2183C32.4931 65.207 32.5813 65.2373 32.6399 65.3023C33.0943 65.8058 35.1433 67.9452 37.3806 68.2215C37.5743 68.2453 37.7265 68.0588 37.6647 67.8769L36.7224 65.1004C36.6787 64.9715 36.7426 64.8312 36.8696 64.7773L37.3526 64.5724Z" fill="url(#paint23_linear_1278_1641)"/>
<path d="M37.7382 64.9691C37.7382 64.9691 35.3191 63.305 35.1276 64.6854C34.9365 66.0659 37.3011 66.7078 38.4804 66.2034L37.7382 64.9691Z" fill="url(#paint24_linear_1278_1641)"/>
<path d="M34.4708 104.194L40.093 84.9089C40.1569 84.6899 40.3468 84.5303 40.5773 84.504C41.596 84.3873 44.5474 84.0595 47.9557 83.7762C52.0606 83.435 56.8278 83.1588 59.6766 83.394C60.0817 83.4274 60.3264 83.8482 60.1462 84.206C58.5263 87.425 51.8629 100.52 48.526 104.809C48.4153 104.951 48.2444 105.034 48.0623 105.033L35.0177 104.914C34.6382 104.91 34.3663 104.552 34.4708 104.194Z" fill="url(#paint25_linear_1278_1641)"/>
<path d="M35.8291 99.5347C35.8291 99.5347 35.0458 96.3714 35.3617 95.2491C35.6776 94.1269 36.2897 92.684 38.33 93.0047C40.3702 93.3254 42.7769 94.1695 42.7769 94.1695C42.7769 94.1695 42.6553 95.6314 41.1046 95.1597L42.0662 95.8905C42.0662 95.8905 41.9287 97.0608 40.6191 96.4357L41.5134 97.4048C41.5134 97.4048 40.9508 98.3662 39.9873 97.7496C39.0238 97.1331 38.5619 99.9157 35.8291 99.5347Z" fill="url(#paint26_linear_1278_1641)"/>
<path d="M47.5806 89.5332C47.5806 90.4284 48.3196 91.1543 49.2311 91.1543C50.1425 91.1543 50.8816 90.4287 50.8816 89.5332C50.8816 88.6379 50.1425 87.912 49.2311 87.912C48.3196 87.9123 47.5806 88.6379 47.5806 89.5332Z" fill="url(#paint27_linear_1278_1641)"/>
<path d="M40.7291 90.6018L41.8738 86.7877C42.0141 86.3193 42.3977 85.9677 42.8741 85.8697C46.462 85.1346 56.2817 84.9784 56.3805 84.9772L56.374 84.5463C55.9689 84.5524 46.413 84.7046 42.7846 85.4483C42.1497 85.5784 41.6393 86.0449 41.4528 86.6658L40.3081 90.4799L40.7291 90.6018Z" fill="white"/>
<path d="M73.7304 113.462C73.6147 113.443 73.5124 113.379 73.4454 113.285C72.4703 111.904 65.4037 101.113 75.5801 91.7733C85.2405 82.9063 89.5456 81.1587 90.2852 75.7938C90.3716 75.1674 91.2416 75.0437 91.5079 75.6192C93.4974 79.921 96.49 89.9077 85.3104 96.0494C72.9783 102.824 73.7145 110.699 74.2268 112.947C74.2948 113.243 74.036 113.513 73.7304 113.462Z" fill="#FF4F5B"/>
<path d="M75.2245 113.71C74.9504 113.664 74.739 113.449 74.7053 113.177C74.4762 111.333 73.9903 104.451 79.1947 102.793C84.9239 100.968 89.3281 106.293 93.6238 102.369C93.8499 102.162 94.2122 102.36 94.1502 102.657C93.7105 104.764 91.9 109.618 84.5244 110.375C76.6296 111.185 75.7163 112.043 75.8391 113.147C75.8769 113.487 75.5682 113.767 75.2245 113.71Z" fill="#FF4F5B"/>
<path opacity="0.47" d="M89.7709 81.2542C89.6537 81.6392 89.5034 82.0046 89.3313 82.3636C89.1601 82.7222 88.9714 83.0726 88.7681 83.4147C88.5651 83.7572 88.3484 84.0919 88.1133 84.4145C87.8797 84.7376 87.6365 85.0549 87.3774 85.3593C86.3471 86.5826 85.1251 87.647 83.7926 88.5444C83.1275 88.9922 82.424 89.3971 81.7196 89.7674C81.0258 90.134 80.3566 90.5469 79.7142 90.9968C78.4298 91.8976 77.2514 92.9463 76.2152 94.1164C75.1781 95.2857 74.29 96.5816 73.5838 97.9673C72.8762 99.352 72.3661 100.836 72.091 102.363C71.8151 103.89 71.7745 105.458 71.9551 107.003C72.1322 108.55 72.5432 110.069 73.1051 111.53C73.1213 111.572 73.1001 111.618 73.0577 111.635C73.0162 111.65 72.9695 111.63 72.952 111.59C72.3361 110.137 71.8893 108.607 71.6735 107.038C71.5622 106.255 71.511 105.462 71.5188 104.67C71.5316 103.878 71.5977 103.085 71.7312 102.303C71.9913 100.736 72.4933 99.2096 73.199 97.7811C73.9046 96.3516 74.8176 95.0254 75.8707 93.8232C76.9259 92.6217 78.1261 91.5445 79.4373 90.6167C80.0931 90.1533 80.7773 89.7273 81.4885 89.3478L82.0121 89.0672C82.1864 88.9766 82.3564 88.8776 82.526 88.779L82.7811 88.6317L83.0311 88.4764L83.2812 88.3211L83.5266 88.1591C84.1802 87.7257 84.8117 87.2592 85.4066 86.7502C86.0019 86.2421 86.5685 85.7002 87.0877 85.1159C87.6131 84.537 88.0911 83.9167 88.5255 83.2677C88.9555 82.6181 89.3428 81.9299 89.6272 81.2113L89.6291 81.2064C89.644 81.1684 89.6877 81.1495 89.7264 81.1642C89.7628 81.1779 89.7819 81.2175 89.7709 81.2542Z" fill="white"/>
<path opacity="0.47" d="M74.9873 112.453C75.0001 112.389 74.9982 112.326 74.9976 112.263L74.9985 112.074C75.0001 111.949 75.0035 111.823 75.0079 111.697C75.0175 111.446 75.0325 111.195 75.0528 110.944C75.0939 110.442 75.156 109.942 75.243 109.446C75.4192 108.454 75.6855 107.47 76.1273 106.554C76.3475 106.096 76.6166 105.658 76.9431 105.262C77.268 104.866 77.6603 104.518 78.1043 104.249C78.5499 103.983 79.0479 103.8 79.5621 103.714C79.8187 103.671 80.0791 103.646 80.3388 103.645C80.5989 103.64 80.8583 103.658 81.1159 103.687C81.3747 103.719 81.6245 103.763 81.8771 103.805L82.6326 103.936C83.1359 104.026 83.638 104.121 84.1394 104.219C85.1422 104.415 86.141 104.629 87.1435 104.81C87.6446 104.899 88.1476 104.98 88.6521 105.029C89.1563 105.078 89.664 105.095 90.1632 105.039C90.6621 104.986 91.1505 104.847 91.5911 104.612C92.0332 104.38 92.424 104.058 92.7713 103.698C92.7969 103.672 92.8393 103.671 92.8661 103.695C92.8929 103.72 92.8942 103.762 92.8693 103.788C92.5191 104.16 92.1209 104.496 91.6637 104.743C91.2082 104.993 90.6986 105.144 90.1829 105.204C89.6662 105.265 89.1467 105.247 88.635 105.199C88.1226 105.15 87.6156 105.071 87.1117 104.982C86.1039 104.803 85.1051 104.591 84.1032 104.399C83.1029 104.207 82.095 104.021 81.0922 103.875C80.8428 103.845 80.5914 103.825 80.3407 103.829C80.0897 103.828 79.8396 103.85 79.5929 103.89C79.099 103.968 78.6222 104.14 78.1932 104.392C77.766 104.647 77.3852 104.978 77.0672 105.361C76.7475 105.743 76.4819 106.169 76.2617 106.616C75.8189 107.512 75.5445 108.483 75.3599 109.465C75.2689 109.957 75.2021 110.453 75.1563 110.951C75.1335 111.201 75.1161 111.45 75.1042 111.7C75.0986 111.825 75.0939 111.95 75.0911 112.075L75.0883 112.263C75.0877 112.325 75.0861 112.388 75.1017 112.449C75.1098 112.48 75.0908 112.511 75.0596 112.519C75.0284 112.527 74.9966 112.508 74.9885 112.478C74.986 112.47 74.9857 112.461 74.9873 112.453Z" fill="white"/>
</g>
<defs>
<linearGradient id="paint0_linear_1278_1641" x1="29.5209" y1="32.0001" x2="19.3592" y2="46.7238" gradientUnits="userSpaceOnUse">
<stop stop-color="#B37CFF"/>
<stop offset="1" stop-color="#F895E7"/>
</linearGradient>
<linearGradient id="paint1_linear_1278_1641" x1="14.7022" y1="44.5664" x2="14.1087" y2="45.4263" gradientUnits="userSpaceOnUse">
<stop stop-color="#B37CFF"/>
<stop offset="1" stop-color="#F895E7"/>
</linearGradient>
<linearGradient id="paint2_linear_1278_1641" x1="18.1579" y1="53.5413" x2="17.7506" y2="54.1314" gradientUnits="userSpaceOnUse">
<stop stop-color="#B37CFF"/>
<stop offset="1" stop-color="#F895E7"/>
</linearGradient>
<linearGradient id="paint3_linear_1278_1641" x1="35.1281" y1="43.9214" x2="24.6613" y2="59.0872" gradientUnits="userSpaceOnUse">
<stop stop-color="#B37CFF"/>
<stop offset="1" stop-color="#F895E7"/>
</linearGradient>
<linearGradient id="paint4_linear_1278_1641" x1="39.4143" y1="44.6475" x2="38.8283" y2="45.4965" gradientUnits="userSpaceOnUse">
<stop stop-color="#B37CFF"/>
<stop offset="1" stop-color="#F895E7"/>
</linearGradient>
<linearGradient id="paint5_linear_1278_1641" x1="48.0537" y1="31.8605" x2="47.764" y2="32.2802" gradientUnits="userSpaceOnUse">
<stop stop-color="#B37CFF"/>
<stop offset="1" stop-color="#F895E7"/>
</linearGradient>
<linearGradient id="paint6_linear_1278_1641" x1="43.4294" y1="28.4182" x2="37.7526" y2="36.6435" gradientUnits="userSpaceOnUse">
<stop stop-color="#B37CFF"/>
<stop offset="1" stop-color="#F895E7"/>
</linearGradient>
<linearGradient id="paint7_linear_1278_1641" x1="48.768" y1="37.5225" x2="42.2888" y2="46.9106" gradientUnits="userSpaceOnUse">
<stop stop-color="#B37CFF"/>
<stop offset="1" stop-color="#F895E7"/>
</linearGradient>
<linearGradient id="paint8_linear_1278_1641" x1="50.089" y1="36.9105" x2="49.6459" y2="37.5525" gradientUnits="userSpaceOnUse">
<stop stop-color="#B37CFF"/>
<stop offset="1" stop-color="#F895E7"/>
</linearGradient>
<linearGradient id="paint9_linear_1278_1641" x1="66.1791" y1="26.4333" x2="62.6714" y2="52.6824" gradientUnits="userSpaceOnUse">
<stop stop-color="#FDF53F"/>
<stop offset="1" stop-color="#D93C65"/>
</linearGradient>
<linearGradient id="paint10_linear_1278_1641" x1="65.4176" y1="48.1023" x2="66.8456" y2="71.7527" gradientUnits="userSpaceOnUse">
<stop stop-color="#A737D5"/>
<stop offset="1" stop-color="#EF497A"/>
</linearGradient>
<linearGradient id="paint11_linear_1278_1641" x1="72.9117" y1="38.6708" x2="69.4422" y2="54.9523" gradientUnits="userSpaceOnUse">
<stop stop-color="#A737D5"/>
<stop offset="1" stop-color="#EF497A"/>
</linearGradient>
<linearGradient id="paint12_linear_1278_1641" x1="72.151" y1="39.2475" x2="72.2282" y2="42.8247" gradientUnits="userSpaceOnUse">
<stop stop-color="#A737D5"/>
<stop offset="1" stop-color="#EF497A"/>
</linearGradient>
<linearGradient id="paint13_linear_1278_1641" x1="72.687" y1="51.1146" x2="69.3452" y2="66.7966" gradientUnits="userSpaceOnUse">
<stop stop-color="#A737D5"/>
<stop offset="1" stop-color="#EF497A"/>
</linearGradient>
<linearGradient id="paint14_linear_1278_1641" x1="71.9544" y1="51.67" x2="72.0287" y2="55.1155" gradientUnits="userSpaceOnUse">
<stop stop-color="#A737D5"/>
<stop offset="1" stop-color="#EF497A"/>
</linearGradient>
<linearGradient id="paint15_linear_1278_1641" x1="72.7895" y1="62.0261" x2="69.318" y2="78.3173" gradientUnits="userSpaceOnUse">
<stop stop-color="#A737D5"/>
<stop offset="1" stop-color="#EF497A"/>
</linearGradient>
<linearGradient id="paint16_linear_1278_1641" x1="72.0286" y1="62.6032" x2="72.1058" y2="66.1825" gradientUnits="userSpaceOnUse">
<stop stop-color="#A737D5"/>
<stop offset="1" stop-color="#EF497A"/>
</linearGradient>
<linearGradient id="paint17_linear_1278_1641" x1="55.6473" y1="70.7751" x2="74.5797" y2="70.9582" gradientUnits="userSpaceOnUse">
<stop stop-color="#F9B776"/>
<stop offset="1" stop-color="#F47960"/>
</linearGradient>
<linearGradient id="paint18_linear_1278_1641" x1="70.3913" y1="67.9729" x2="57.795" y2="96.4141" gradientUnits="userSpaceOnUse">
<stop stop-color="#F9B776"/>
<stop offset="1" stop-color="#F47960"/>
</linearGradient>
<linearGradient id="paint19_linear_1278_1641" x1="74.6092" y1="58.5564" x2="79.8546" y2="50.5139" gradientUnits="userSpaceOnUse">
<stop stop-color="#F9B776"/>
<stop offset="1" stop-color="#F47960"/>
</linearGradient>
<linearGradient id="paint20_linear_1278_1641" x1="13.9631" y1="96.904" x2="37.9214" y2="97.1357" gradientUnits="userSpaceOnUse">
<stop stop-color="#F9B776"/>
<stop offset="1" stop-color="#F47960"/>
</linearGradient>
<linearGradient id="paint21_linear_1278_1641" x1="32.604" y1="71.9182" x2="42.0767" y2="72.0098" gradientUnits="userSpaceOnUse">
<stop stop-color="#F9B776"/>
<stop offset="1" stop-color="#F47960"/>
</linearGradient>
<linearGradient id="paint22_linear_1278_1641" x1="44.3869" y1="66.1086" x2="34.1368" y2="59.6071" gradientUnits="userSpaceOnUse">
<stop stop-color="#F9B776"/>
<stop offset="1" stop-color="#F47960"/>
</linearGradient>
<linearGradient id="paint23_linear_1278_1641" x1="28.5832" y1="53.1434" x2="41.7479" y2="63.9375" gradientUnits="userSpaceOnUse">
<stop stop-color="#2B3582"/>
<stop offset="1" stop-color="#150E42"/>
</linearGradient>
<linearGradient id="paint24_linear_1278_1641" x1="41.6289" y1="68.4098" x2="32.4068" y2="62.5603" gradientUnits="userSpaceOnUse">
<stop stop-color="#F9B776"/>
<stop offset="1" stop-color="#F47960"/>
</linearGradient>
<linearGradient id="paint25_linear_1278_1641" x1="44.3456" y1="81.9512" x2="57.1247" y2="136.161" gradientUnits="userSpaceOnUse">
<stop stop-color="#2B3582"/>
<stop offset="1" stop-color="#150E42"/>
</linearGradient>
<linearGradient id="paint26_linear_1278_1641" x1="35.2868" y1="96.2651" x2="42.777" y2="96.2651" gradientUnits="userSpaceOnUse">
<stop stop-color="#F9B776"/>
<stop offset="1" stop-color="#F47960"/>
</linearGradient>
<linearGradient id="paint27_linear_1278_1641" x1="49.6736" y1="87.722" x2="47.7638" y2="95.8235" gradientUnits="userSpaceOnUse">
<stop stop-color="#53D8FF"/>
<stop offset="1" stop-color="#3840F7"/>
</linearGradient>
<clipPath id="clip0_1278_1641">
<rect width="114" height="114" fill="white"/>
</clipPath>
</defs>
</svg>
