<svg width="114" height="114" viewBox="0 0 114 114" fill="none" xmlns="http://www.w3.org/2000/svg">
<g clip-path="url(#clip0_1278_1727)">
<path d="M68.9787 100.742C68.9787 100.742 75.517 76.8942 82.1693 85.2023C82.1693 85.2023 88.9087 73.2567 94.3843 77.4874C99.8599 81.7181 91.5201 103.619 91.5201 103.619C91.5201 103.619 100.534 95.0745 97.5855 107.767C97.5855 107.767 101.377 104.937 103.82 105.854C106.263 106.771 104.157 113.91 104.157 113.91H67.269L68.9787 100.742Z" fill="#7FC6A6"/>
<path d="M60.2543 114.001C59.8331 113.669 53.0285 100.642 48.4802 106.862C48.4802 106.862 41.6581 84.0545 32.3093 85.1324C22.9605 86.2108 30.8777 103.13 30.8777 103.13C30.8777 103.13 22.8764 99.8952 24.7296 108.438C24.7296 108.438 14.5385 106.613 15.2966 113.829L60.2543 114.001Z" fill="#7FC6A6"/>
<path d="M22.8717 96.2296C23.6774 95.5719 23.3198 93.8381 22.073 92.357C20.8263 90.8759 19.1624 90.2084 18.3568 90.8661C17.5511 91.5237 17.9087 93.2575 19.1554 94.7386C20.4022 96.2197 22.066 96.8872 22.8717 96.2296Z" fill="#7FC6A6"/>
<path d="M20.6438 100.559C21.1208 100.17 20.9091 99.1436 20.171 98.2668C19.4329 97.39 18.448 96.9948 17.971 97.3842C17.4941 97.7735 17.7057 98.7999 18.4438 99.6767C19.1819 100.553 20.1669 100.949 20.6438 100.559Z" fill="#7FC6A6"/>
<path d="M31.2481 104.879C31.2717 104.873 31.294 104.86 31.3085 104.838C31.3385 104.794 31.3264 104.734 31.2814 104.704C31.1997 104.651 29.2604 103.391 27.5585 103.755C27.558 103.755 27.558 103.755 27.5575 103.755C27.5048 103.766 27.4715 103.818 27.4826 103.87C27.4942 103.922 27.5459 103.955 27.5991 103.944C27.5991 103.944 27.5996 103.944 27.6001 103.944C29.2203 103.597 31.1538 104.852 31.1731 104.865C31.1958 104.88 31.2229 104.884 31.2481 104.879Z" fill="black"/>
<path d="M29.9444 105.023C29.9685 105.018 29.9903 105.004 30.0053 104.982C30.0353 104.938 30.0227 104.878 29.9777 104.849C29.9405 104.824 29.0446 104.254 27.4544 104.351C27.4002 104.354 27.3596 104.4 27.363 104.453C27.3664 104.506 27.4128 104.546 27.4665 104.543C28.9919 104.45 29.8612 105.004 29.8699 105.009C29.8926 105.024 29.9197 105.028 29.9444 105.023Z" fill="black"/>
<path d="M93.9624 81.5791C93.9552 81.6272 93.9131 81.6643 93.8623 81.6643C93.8063 81.6643 93.7613 81.6196 93.7608 81.5648C93.7593 80.1684 92.935 79.3357 92.9268 79.3276C92.8876 79.2885 92.8876 79.2252 92.9273 79.1866C92.9669 79.1476 93.0307 79.1476 93.0704 79.1866C93.1066 79.2223 93.9624 80.0822 93.9639 81.5648C93.9639 81.5691 93.9634 81.5739 93.9624 81.5791Z" fill="black"/>
<path d="M93.4255 82.6851C93.4183 82.7346 93.3743 82.7717 93.322 82.7703C93.266 82.7684 93.2224 82.7227 93.2239 82.6674C93.2703 81.2267 92.6345 80.2316 92.6282 80.2216C92.5983 80.1755 92.6118 80.1136 92.6587 80.084C92.7056 80.0545 92.7684 80.0679 92.7984 80.114C92.826 80.1564 93.4748 81.1686 93.426 82.6741C93.4265 82.6774 93.426 82.6812 93.4255 82.6851Z" fill="black"/>
<path d="M60.5792 90.102C60.5792 90.102 61.0748 94.2013 58.2333 96.9018C55.3918 99.6024 53.806 99.4724 53.5415 100.513H61.8895V89.4507L60.5792 90.102Z" fill="#FF9E29"/>
<path d="M63.1994 90.102C63.1994 90.102 62.7038 94.2013 65.5453 96.9018C68.3868 99.6024 69.9727 99.4724 70.2372 100.513H61.8892V89.4507L63.1994 90.102Z" fill="#F7AB48"/>
<path d="M56.0957 87.5934C52.5498 86.8683 49.5743 84.3872 47.49 80.4184C45.9486 77.4826 45.4342 74.7869 45.4134 74.6736C45.3694 74.4384 45.4342 74.1965 45.5894 74.0127C45.7446 73.8289 45.9747 73.7228 46.2179 73.7228H51.9889V75.3335H47.2507C47.5214 76.3324 48.0538 77.9945 48.9618 79.7147C50.8367 83.2669 53.3485 85.3871 56.4279 86.017L56.0957 87.5934Z" fill="#F99247"/>
<path d="M67.6832 87.5934L67.3506 86.0165C70.43 85.3866 72.9422 83.2664 74.8167 79.7142C75.7247 77.994 76.2575 76.3319 76.5278 75.333H71.7895V73.7223H77.5605C77.8032 73.7223 78.0334 73.8285 78.1886 74.0122C78.3438 74.196 78.4086 74.4379 78.3646 74.6731C78.3433 74.7864 77.8293 77.4817 76.288 80.4179C74.2046 84.3872 71.2287 86.8682 67.6832 87.5934Z" fill="#F99247"/>
<path d="M61.8895 71.0356H51.1299C51.1299 71.0356 51.9001 90.4272 61.8895 91.0781V71.0356Z" fill="#FF9E29"/>
<path d="M72.6488 71.0356H61.8892V91.0781C71.8786 90.4272 72.6488 71.0356 72.6488 71.0356Z" fill="#F7AB48"/>
<path d="M61.8893 90.8833H60.1593C59.9224 90.8833 59.73 91.0728 59.73 91.3061C59.73 91.5394 59.9224 91.7289 60.1593 91.7289H61.8893V90.8833Z" fill="#FF9E29"/>
<path d="M61.8892 90.8833H63.6191C63.856 90.8833 64.0484 91.0728 64.0484 91.3061C64.0484 91.5394 63.856 91.7289 63.6191 91.7289H61.8892V90.8833Z" fill="#F7AB48"/>
<path d="M72.6688 100.513H51.1099V102.032H72.6688V100.513Z" fill="#223749"/>
<path d="M73.399 71.0356H50.3799V72.6625H73.399V71.0356Z" fill="#FF8D10"/>
<path d="M73.3987 72.6873H50.3545V71.0114H51.527C51.541 71.0114 51.5521 71.0223 51.5521 71.0361C51.5521 71.0499 51.541 71.0609 51.527 71.0609H50.4043V72.6387H73.3983C73.4123 72.6387 73.4234 72.6497 73.4234 72.6635C73.4234 72.6773 73.4123 72.6873 73.3987 72.6873Z" fill="black"/>
<path d="M72.2537 102.032H51.5254V110.404H72.2537V102.032Z" fill="#F7AB48"/>
<path d="M75.9247 112.291H47.854V113.755H75.9247V112.291Z" fill="#223749"/>
<path d="M73.1347 112.291H50.6445L51.5255 110.404H72.2538L73.1347 112.291Z" fill="#FF9E29"/>
<g opacity="0.6">
<path d="M61.8895 76.7618L63.1751 79.3271L66.0494 79.7385L63.9695 81.7348L64.4602 84.5539L61.8895 83.2227L59.3183 84.5539L59.8095 81.7348L57.7295 79.7385L60.6039 79.3271L61.8895 76.7618Z" fill="#FDE79D"/>
</g>
<path d="M70.9808 99.2554H52.7324C52.5651 99.2554 52.4292 99.3892 52.4292 99.5539V100.215C52.4292 100.379 52.5651 100.513 52.7324 100.513H70.9813C71.1486 100.513 71.2845 100.379 71.2845 100.215V99.5539C71.284 99.3892 71.1481 99.2554 70.9808 99.2554Z" fill="#FF8D10"/>
<g opacity="0.6">
<path d="M69.8818 107.822V105.165C69.3717 105.165 68.9588 104.758 68.9588 104.256H54.9694C54.9694 104.758 54.556 105.165 54.0464 105.165V107.822C54.5565 107.822 54.9694 108.229 54.9694 108.731H68.9588C68.9588 108.229 69.3717 107.822 69.8818 107.822Z" fill="#FDE79D"/>
</g>
<path d="M69.8813 104.482C69.8813 104.603 69.7817 104.701 69.6594 104.701C69.5371 104.701 69.4375 104.603 69.4375 104.482C69.4375 104.362 69.5371 104.264 69.6594 104.264C69.7817 104.264 69.8813 104.361 69.8813 104.482Z" fill="#223749"/>
<path d="M69.8813 108.512C69.8813 108.633 69.7817 108.731 69.6594 108.731C69.5371 108.731 69.4375 108.633 69.4375 108.512C69.4375 108.392 69.5371 108.294 69.6594 108.294C69.7817 108.294 69.8813 108.391 69.8813 108.512Z" fill="#223749"/>
<path d="M54.4902 104.482C54.4902 104.603 54.3906 104.701 54.2683 104.701C54.1455 104.701 54.0464 104.603 54.0464 104.482C54.0464 104.362 54.146 104.264 54.2683 104.264C54.3906 104.264 54.4902 104.361 54.4902 104.482Z" fill="#223749"/>
<path d="M54.4902 108.512C54.4902 108.633 54.3906 108.731 54.2683 108.731C54.1455 108.731 54.0464 108.633 54.0464 108.512C54.0464 108.392 54.146 108.294 54.2683 108.294C54.3906 108.294 54.4902 108.391 54.4902 108.512Z" fill="#223749"/>
<path d="M65.8361 105.434H57.5186V105.648H65.8361V105.434Z" fill="#FF8D10"/>
<path d="M66.7444 106.218H56.6113V106.432H66.7444V106.218Z" fill="#FF8D10"/>
<path d="M65.8361 107.002H57.5186V107.216H65.8361V107.002Z" fill="#FF8D10"/>
<path d="M52.9934 99.2849C52.9794 99.2849 52.9683 99.2739 52.9683 99.2601C52.9683 99.2463 52.9794 99.2354 52.9934 99.2354L70.6361 99.2306C70.6501 99.2306 70.6612 99.2415 70.6612 99.2553C70.6612 99.2692 70.6501 99.2801 70.6361 99.2801L52.9934 99.2849Z" fill="black"/>
<path d="M63.6188 90.9077H60.1594C60.1454 90.9077 60.1343 90.8967 60.1343 90.8829C60.1343 90.8691 60.1454 90.8582 60.1594 90.8582H63.6188C63.6328 90.8582 63.644 90.8691 63.644 90.8829C63.644 90.8967 63.6328 90.9077 63.6188 90.9077Z" fill="black"/>
<path d="M63.6188 91.7533H60.1594C60.1454 91.7533 60.1343 91.7423 60.1343 91.7285C60.1343 91.7147 60.1454 91.7037 60.1594 91.7037H63.6188C63.6328 91.7037 63.644 91.7147 63.644 91.7285C63.644 91.7423 63.6328 91.7533 63.6188 91.7533Z" fill="black"/>
<path d="M57.6573 97.4513C57.649 97.4513 57.6403 97.447 57.636 97.4394C57.6287 97.4279 57.6326 97.4127 57.6447 97.4056C57.651 97.4017 58.2587 97.0347 58.9172 96.1558C59.525 95.344 60.3005 93.918 60.5456 91.7317C60.5471 91.7184 60.5597 91.7079 60.5732 91.7098C60.5867 91.7112 60.5969 91.7236 60.5954 91.737C60.3489 93.9356 59.568 95.3707 58.9559 96.1872C58.2921 97.0732 57.6771 97.4441 57.6708 97.4475C57.666 97.4503 57.6616 97.4513 57.6573 97.4513Z" fill="black"/>
<path d="M68.733 99.2849C68.7296 99.2849 68.7258 99.284 68.7224 99.2825C68.7117 99.2778 67.6282 98.7764 65.7885 97.1624C65.7784 97.1534 65.7774 97.1376 65.7866 97.1276C65.7958 97.1176 65.8117 97.1167 65.8219 97.1257C67.6553 98.734 68.7325 99.233 68.7432 99.2378C68.7557 99.2435 68.7611 99.2582 68.7552 99.2706C68.7514 99.2797 68.7427 99.2849 68.733 99.2849Z" fill="black"/>
<path d="M65.3086 98.5122C65.3023 98.5122 65.296 98.5098 65.2912 98.5055L64.7782 98.0199C64.768 98.0103 64.768 97.9946 64.7777 97.9851C64.7874 97.9751 64.8028 97.9751 64.813 97.9846L65.326 98.4703C65.3361 98.4798 65.3361 98.4955 65.3265 98.505C65.3216 98.5093 65.3149 98.5122 65.3086 98.5122Z" fill="black"/>
<path d="M65.3086 98.8806C65.3023 98.8806 65.296 98.8782 65.2912 98.8739L64.7782 98.3883C64.768 98.3787 64.768 98.363 64.7777 98.3535C64.7874 98.3435 64.8028 98.3435 64.813 98.353L65.326 98.8387C65.3361 98.8482 65.3361 98.8639 65.3265 98.8734C65.3216 98.8782 65.3149 98.8806 65.3086 98.8806Z" fill="black"/>
<path d="M56.5095 88.318C56.5022 88.318 56.495 88.3152 56.4901 88.309C55.4033 87.0077 54.4517 85.3752 53.6617 83.4569C53.0298 81.9229 52.4994 80.2036 52.085 78.3468C51.3796 75.1854 51.2544 72.6882 51.2529 72.6634C51.2525 72.6501 51.2631 72.6382 51.2766 72.6377C51.2907 72.6372 51.3023 72.6477 51.3027 72.661C51.3037 72.6858 51.4294 75.1797 52.1339 78.3373C52.7837 81.2501 54.0741 85.339 56.5283 88.278C56.537 88.2885 56.5356 88.3042 56.525 88.3128C56.5206 88.3166 56.5148 88.318 56.5095 88.318Z" fill="black"/>
<path d="M70.8353 81.432C70.8324 81.432 70.8295 81.4315 70.8266 81.4306C70.8136 81.4258 70.8068 81.412 70.8116 81.3992C71.7994 78.7291 72.4951 72.7206 72.5019 72.6601C72.5034 72.6468 72.5159 72.6368 72.5295 72.6382C72.543 72.6396 72.5532 72.652 72.5517 72.6653C72.5449 72.7258 71.8482 78.7401 70.8585 81.4158C70.8547 81.4258 70.8455 81.432 70.8353 81.432Z" fill="black"/>
<path d="M77.303 75.3577H73.8079C73.7938 75.3577 73.7827 75.3468 73.7827 75.333C73.7827 75.3192 73.7938 75.3082 73.8079 75.3082H77.303C77.317 75.3082 77.3282 75.3192 77.3282 75.333C77.3282 75.3468 77.317 75.3577 77.303 75.3577Z" fill="black"/>
<path d="M73.511 81.8424C73.5057 81.8424 73.5009 81.841 73.4965 81.8377C73.4854 81.8296 73.483 81.8144 73.4912 81.8034C73.512 81.7753 75.5997 78.942 76.5039 75.3273C76.5072 75.314 76.5208 75.3059 76.5343 75.3092C76.5479 75.3126 76.5561 75.3259 76.5527 75.3387C75.6457 78.9634 73.5526 81.8039 73.5318 81.832C73.5265 81.8391 73.5188 81.8424 73.511 81.8424Z" fill="black"/>
<path d="M49.2511 75.3577H46.5725C46.5585 75.3577 46.5474 75.3468 46.5474 75.333C46.5474 75.3192 46.5585 75.3082 46.5725 75.3082H49.2511C49.2651 75.3082 49.2762 75.3192 49.2762 75.333C49.2757 75.3468 49.2646 75.3577 49.2511 75.3577Z" fill="black"/>
<path d="M49.4577 80.6203C49.4495 80.6203 49.4412 80.616 49.4364 80.6088C49.4214 80.5855 47.9419 78.223 47.2263 75.3392C47.223 75.3259 47.2312 75.3126 47.2447 75.3097C47.2583 75.3064 47.2718 75.3145 47.2747 75.3278C47.9883 78.204 49.464 80.5598 49.4789 80.5831C49.4862 80.5946 49.4828 80.6098 49.4707 80.6169C49.4669 80.6188 49.462 80.6203 49.4577 80.6203Z" fill="black"/>
<path d="M55.9363 87.5839C55.9349 87.5839 55.9339 87.5839 55.9325 87.5834C55.9117 87.5801 53.8061 87.2553 51.6192 85.5532C51.6086 85.5447 51.6066 85.5294 51.6153 85.5185C51.624 85.508 51.6395 85.5061 51.6506 85.5147C53.8268 87.2087 55.9194 87.5315 55.9402 87.5348C55.9537 87.5367 55.9634 87.5496 55.9615 87.5629C55.959 87.5753 55.9484 87.5839 55.9363 87.5839Z" fill="black"/>
<path d="M70.9004 86.3918C70.8917 86.3918 70.883 86.387 70.8787 86.3789C70.8719 86.367 70.8763 86.3522 70.8888 86.3456C70.9062 86.3361 72.6574 85.3848 73.7888 83.9888C73.7975 83.9783 73.8135 83.9764 73.8241 83.985C73.8347 83.9936 73.8367 84.0088 73.828 84.0198C72.6898 85.4233 70.9304 86.3799 70.9125 86.3894C70.9086 86.3903 70.9043 86.3918 70.9004 86.3918Z" fill="black"/>
<path d="M70.5472 75.942C70.5404 75.942 70.5332 75.9391 70.5283 75.9334L69.3714 74.6117C69.3622 74.6012 69.3636 74.586 69.3738 74.5769C69.3844 74.5679 69.3999 74.5693 69.4091 74.5793L70.5656 75.901C70.5748 75.9115 70.5733 75.9267 70.5632 75.9358C70.5588 75.9401 70.553 75.942 70.5472 75.942Z" fill="black"/>
<path d="M70.6424 76.9185C70.6356 76.9185 70.6284 76.9157 70.6236 76.91L69.4666 75.5883C69.4574 75.5778 69.4588 75.5626 69.469 75.5535C69.4796 75.5445 69.4951 75.5459 69.5043 75.5559L70.6613 76.8776C70.6705 76.8881 70.669 76.9033 70.6589 76.9123C70.654 76.9166 70.6482 76.9185 70.6424 76.9185Z" fill="black"/>
<path d="M59.318 84.5787C59.3166 84.5787 59.3151 84.5787 59.3137 84.5782C59.3001 84.5758 59.2909 84.563 59.2934 84.5496L59.7846 81.7306C59.787 81.7173 59.7996 81.7082 59.8136 81.7106C59.8271 81.713 59.8363 81.7258 59.8339 81.7392L59.3427 84.5582C59.3407 84.5701 59.3301 84.5787 59.318 84.5787Z" fill="black"/>
<path d="M57.7295 79.7628C57.7174 79.7628 57.7068 79.7542 57.7048 79.7418C57.7029 79.7285 57.7121 79.7161 57.7261 79.7137L60.6005 79.3024C60.614 79.3005 60.6266 79.3095 60.629 79.3233C60.6309 79.3367 60.6218 79.349 60.6077 79.3514L57.7334 79.7628C57.7319 79.7628 57.7305 79.7628 57.7295 79.7628Z" fill="black"/>
<path d="M63.1748 79.3515C63.1656 79.3515 63.1569 79.3463 63.1525 79.3377L61.8669 76.7729C61.8606 76.7605 61.866 76.7458 61.878 76.74C61.8906 76.7339 61.9056 76.7391 61.9114 76.751L63.197 79.3158C63.2033 79.3282 63.198 79.343 63.1859 79.3487C63.182 79.351 63.1782 79.3515 63.1748 79.3515Z" fill="black"/>
<path d="M63.9694 81.7596C63.9631 81.7596 63.9564 81.7572 63.9515 81.752C63.9419 81.7425 63.9419 81.7268 63.952 81.7172L66.032 79.7209C66.0417 79.7114 66.0576 79.7119 66.0673 79.7214C66.077 79.7309 66.077 79.7466 66.0668 79.7561L63.9868 81.7525C63.982 81.7572 63.9757 81.7596 63.9694 81.7596Z" fill="black"/>
<path d="M64.46 84.5787C64.4561 84.5787 64.4523 84.5778 64.4484 84.5759L61.8777 83.2446C61.8656 83.2385 61.8607 83.2232 61.867 83.2113C61.8733 83.1994 61.8883 83.1946 61.9009 83.2008L64.4716 84.532C64.4837 84.5382 64.4885 84.5535 64.4822 84.5654C64.4779 84.5739 64.4692 84.5787 64.46 84.5787Z" fill="black"/>
<path d="M72.6691 102.056C72.655 102.056 72.6439 102.045 72.6439 102.031V100.538H51.1348V102.031C51.1348 102.045 51.1236 102.056 51.1096 102.056C51.0956 102.056 51.0845 102.045 51.0845 102.031V100.488H72.6932V102.031C72.6942 102.045 72.6826 102.056 72.6691 102.056Z" fill="black"/>
<path d="M69.8814 105.189C69.8804 105.189 69.8799 105.189 69.879 105.189C69.0101 105.112 68.939 104.422 68.9332 104.28H54.969C54.955 104.28 54.9438 104.269 54.9438 104.255C54.9438 104.242 54.955 104.231 54.969 104.231H68.984L68.983 104.256C68.9821 104.289 68.9666 105.058 69.8833 105.14C69.8968 105.141 69.907 105.153 69.906 105.166C69.9051 105.18 69.8939 105.189 69.8814 105.189Z" fill="black"/>
<path d="M66.6105 108.756H54.969C54.955 108.756 54.9438 108.745 54.9438 108.731C54.9438 108.717 54.955 108.706 54.969 108.706H66.6105C66.6246 108.706 66.6357 108.717 66.6357 108.731C66.6357 108.744 66.6246 108.756 66.6105 108.756Z" fill="black"/>
<path d="M73.1344 112.316C73.1247 112.316 73.116 112.311 73.1117 112.302L72.2375 110.429H51.5251C51.5111 110.429 51.5 110.418 51.5 110.404C51.5 110.391 51.5111 110.38 51.5251 110.38H72.2694L72.2762 110.394L73.1571 112.281C73.1629 112.294 73.1576 112.308 73.145 112.314C73.1416 112.316 73.1378 112.316 73.1344 112.316Z" fill="black"/>
<path d="M74.0929 112.316H57.7156C57.7016 112.316 57.6904 112.305 57.6904 112.291C57.6904 112.277 57.7016 112.266 57.7156 112.266H74.0929C74.107 112.266 74.1181 112.277 74.1181 112.291C74.1176 112.305 74.1065 112.316 74.0929 112.316Z" fill="black"/>
<path d="M51.8306 111.358C51.8224 111.358 51.8147 111.354 51.8098 111.347C51.8021 111.335 51.8055 111.32 51.8171 111.313L52.626 110.791C52.6376 110.783 52.653 110.786 52.6603 110.798C52.668 110.809 52.6646 110.824 52.653 110.832L51.8442 111.354C51.8403 111.356 51.8355 111.358 51.8306 111.358Z" fill="black"/>
<path d="M51.8306 111.789C51.8224 111.789 51.8147 111.786 51.8098 111.778C51.8021 111.767 51.8055 111.752 51.8171 111.745L52.626 111.222C52.6376 111.215 52.653 111.218 52.6603 111.23C52.668 111.241 52.6646 111.256 52.653 111.263L51.8442 111.786C51.8403 111.788 51.8355 111.789 51.8306 111.789Z" fill="black"/>
<path d="M75.9249 112.316H57.7156C57.7016 112.316 57.6904 112.305 57.6904 112.291C57.6904 112.277 57.7016 112.266 57.7156 112.266H75.9249C75.9389 112.266 75.95 112.277 75.95 112.291C75.95 112.305 75.9389 112.316 75.9249 112.316Z" fill="black"/>
<path d="M77.1047 69.1373C76.6526 68.8493 76.5269 68.2499 76.7894 67.7871L78.4232 64.9066C78.4744 64.8161 78.4618 64.7038 78.3912 64.6271C78.2878 64.5138 78.1045 64.5219 78.0122 64.6438L75.0479 68.5455C74.7085 68.9926 74.1205 69.0188 73.7415 68.6036C73.3624 68.1884 73.33 67.4828 73.6699 67.0358L76.6927 63.0569C76.7628 62.9645 76.757 62.836 76.6787 62.7503L76.6231 62.6893C76.5322 62.5898 76.377 62.5817 76.2764 62.6712L72.114 66.3559C71.7137 66.7106 71.0924 66.7225 70.7071 66.3516C70.285 65.9455 70.3048 65.2799 70.7366 64.898L74.9246 61.1905C75.0256 61.101 75.0339 60.9482 74.943 60.8492L74.767 60.6563C74.6848 60.5659 74.547 60.5502 74.4455 60.6187L70.1327 63.5359C69.6888 63.8363 69.0714 63.7682 68.7383 63.3516C68.3733 62.895 68.4806 62.2375 68.9593 61.9137C68.9593 61.9137 75.293 57.1174 76.2213 56.2885L73.3827 55.6024C72.8253 55.5733 72.3974 55.1044 72.4269 54.5554C72.4564 54.0065 72.9326 53.5851 73.4901 53.6141L79.9868 53.2085C80.3504 53.2275 80.8387 53.7598 81.1278 54.2802C85.443 58.3377 86.7639 58.32 87.8252 59.5194L86.8654 60.3321L82.2515 64.2353C80.8421 65.4003 79.6604 66.8087 78.763 68.3903L78.5377 68.7874C78.2549 69.2868 77.6002 69.453 77.1047 69.1373Z" fill="#FE9F73"/>
<path d="M88.8128 42.4507L79.1328 53.2623L85.426 61.5504C85.426 61.5504 91.1176 56.5403 97.01 51.1412L88.8128 42.4507Z" fill="#FE9F73"/>
<path d="M80.5293 50.4851C80.5293 50.4851 84.2827 57.1378 88.0355 60.0945L100.603 51.513C100.603 51.513 94.745 42.7521 89.5556 41L80.5293 50.4851Z" fill="#4CB7D8"/>
<path d="M79.8075 58.0415C79.5164 58.0415 79.25 58.0077 79.0141 57.9567C77.9436 57.7258 77.2672 57.1212 77.2392 57.0955C77.2053 57.0645 77.2034 57.0126 77.2343 56.9793C77.2653 56.946 77.318 56.9436 77.3523 56.9745C77.3591 56.9802 78.0287 57.5782 79.0571 57.7977C80.4327 58.0915 81.7666 57.6054 83.0213 56.3532C83.0537 56.3208 83.1064 56.3203 83.1393 56.3522C83.1721 56.3841 83.1721 56.436 83.1402 56.4684C81.9073 57.6982 80.7334 58.0415 79.8075 58.0415Z" fill="#F07162"/>
<path d="M80.7911 61.9609C80.7616 61.9609 80.733 61.9456 80.718 61.9185C79.3512 59.4718 77.659 58.6762 77.6421 58.6681C77.6005 58.649 77.5821 58.6 77.6015 58.5591C77.6208 58.5181 77.6706 58.5 77.7122 58.5191C77.7832 58.5514 79.4687 59.3413 80.8641 61.8395C80.8863 61.879 80.8718 61.929 80.8312 61.9509C80.8186 61.9575 80.8046 61.9609 80.7911 61.9609Z" fill="#F07162"/>
<path d="M88.0336 60.1959L87.9857 60.1607C84.0863 57.2897 80.4911 50.5908 80.4553 50.5237L80.4277 50.4718L87.6579 42.8744C87.6893 42.8411 87.742 42.8397 87.7759 42.8706C87.8097 42.9016 87.8112 42.9535 87.7797 42.9868L80.6313 50.4984C80.9726 51.1255 84.3682 57.2597 88.0379 59.9931L90.5192 58.2991C90.5569 58.2734 90.6091 58.2824 90.6352 58.32C90.6614 58.3571 90.6522 58.4086 90.6145 58.4343L88.0336 60.1959Z" fill="#21111D"/>
<path d="M89.7615 58.998C89.7412 58.998 89.7204 58.9909 89.7044 58.9757C89.6633 58.9376 85.5614 55.123 83.698 51.5016C83.6772 51.4612 83.6936 51.4117 83.7347 51.3912C83.7758 51.3707 83.8261 51.3869 83.8469 51.4274C85.6967 55.0225 89.7774 58.8181 89.8185 58.8562C89.8519 58.8871 89.8538 58.939 89.8224 58.9723C89.8059 58.9895 89.7837 58.998 89.7615 58.998Z" fill="#21111D"/>
<path d="M96.3763 52.4229C96.37 52.4229 96.3642 52.4224 96.3579 52.4209C96.3129 52.4109 96.2849 52.3671 96.295 52.3229L96.9284 49.5486C96.9386 49.5043 96.9835 49.4767 97.028 49.4867C97.073 49.4967 97.101 49.5405 97.0909 49.5847L96.4575 52.3591C96.4488 52.3971 96.4145 52.4229 96.3763 52.4229Z" fill="#21111D"/>
<path d="M95.2888 53.2909C95.2835 53.2909 95.2782 53.2904 95.2729 53.2895C95.2274 53.2809 95.1984 53.2376 95.2071 53.1933L95.8004 50.2062C95.8091 50.1614 95.8526 50.1324 95.898 50.1414C95.9435 50.15 95.9725 50.1933 95.9638 50.2376L95.3705 53.2247C95.3628 53.2638 95.328 53.2909 95.2888 53.2909Z" fill="#21111D"/>
<path d="M38.7985 75.0855C39.034 74.6084 38.8261 74.0318 38.3576 73.77L35.4445 72.1393C35.3532 72.0883 35.3048 71.9855 35.3246 71.8841C35.3536 71.7341 35.5142 71.6479 35.6578 71.7051L40.2456 73.5305C40.7712 73.7395 41.288 73.4619 41.3934 72.9134C41.4993 72.365 41.1556 71.7451 40.63 71.5361L35.9512 69.6749C35.8424 69.6316 35.7801 69.5188 35.8018 69.4054L35.8173 69.325C35.8424 69.1936 35.9711 69.1074 36.1045 69.1326L41.6033 70.161C42.1322 70.2601 42.6699 69.9535 42.8043 69.4397C42.9517 68.877 42.5848 68.318 42.0142 68.2114L36.4816 67.1768C36.3482 67.152 36.2607 67.0254 36.2863 66.894L36.3356 66.6392C36.3588 66.5197 36.4676 66.4359 36.5909 66.4431L41.8146 66.7383C42.3522 66.7687 42.8449 66.3955 42.9102 65.8694C42.9817 65.2928 42.5446 64.7852 41.9649 64.7524C41.9649 64.7524 34.024 63.8811 32.794 63.6454L34.861 61.6105C35.3227 61.3011 35.4421 60.6816 35.1278 60.2274C34.8136 59.7727 34.1846 59.6551 33.7233 59.9646L27.9528 62.9317C27.6521 63.1336 27.5138 63.8378 27.5404 64.4305C25.984 70.102 24.8444 70.7609 24.5679 72.3283L25.8163 72.534L31.8159 73.5186C33.6343 73.7966 35.386 74.3975 36.9854 75.2931L37.3872 75.5178C37.8934 75.8006 38.5403 75.6082 38.7985 75.0855Z" fill="#FE9F73"/>
<path d="M14.7449 58.2321L28.7125 62.5418L27.6899 72.8416C27.6899 72.8416 20.1861 71.4599 12.3057 69.8473L14.7449 58.2321Z" fill="#FE9F73"/>
<path d="M25.4962 61.0468L26.9094 61.3734C27.4543 64.9985 26.4752 70.3786 25.5566 72.771C24.783 72.6506 24.3682 72.5844 24.3682 72.5844C25.2704 64.3953 25.4962 61.0468 25.4962 61.0468Z" fill="white"/>
<path d="M26.0572 60.8782C26.0572 60.8782 26.3468 68.4832 24.6918 72.9272L9 71.8493C9 71.8493 9.82967 61.5162 13.3466 57.3702L26.0572 60.8782Z" fill="#EF3A4C"/>
<path d="M30.65 66.9734C30.899 66.8249 31.1089 66.6602 31.2844 66.4959C32.0788 65.7522 32.3389 64.89 32.3495 64.8538C32.3621 64.8105 32.337 64.7647 32.2925 64.7519C32.2485 64.739 32.2021 64.7643 32.189 64.8081C32.1866 64.8166 31.9284 65.6694 31.164 66.3821C30.1419 67.3353 28.7456 67.6 27.0132 67.1686C26.9687 67.1577 26.9233 67.1839 26.9117 67.2282C26.9006 67.272 26.9276 67.3167 26.9721 67.3277C28.673 67.7509 29.8576 67.4462 30.65 66.9734Z" fill="#F07162"/>
<path d="M31.87 70.8275C31.8951 70.8123 31.9116 70.7847 31.9101 70.7537C31.7921 67.9637 32.821 66.4197 32.8312 66.4045C32.8568 66.3668 32.8466 66.3159 32.8084 66.2907C32.7702 66.2654 32.7185 66.2754 32.6929 66.313C32.6489 66.3768 31.6229 67.9123 31.7438 70.7609C31.7457 70.8061 31.7844 70.8413 31.8303 70.8394C31.8448 70.839 31.8584 70.8347 31.87 70.8275Z" fill="#F07162"/>
<path d="M24.7466 73.013L24.7694 72.9582C26.5945 68.5132 26.1454 60.9497 26.141 60.8735L26.1372 60.8154L15.9562 58.0054C15.9118 57.993 15.8658 58.0188 15.8533 58.0626C15.8407 58.1064 15.8668 58.1516 15.9113 58.164L25.9776 60.9426C26.0158 61.6529 26.3383 68.6323 24.6369 72.8425L21.6233 72.6592C21.5773 72.6564 21.5377 72.6911 21.5348 72.7364C21.5319 72.7816 21.5667 72.8206 21.6126 72.8235L24.7466 73.013Z" fill="#21111D"/>
<path d="M22.6382 72.8696C22.6556 72.8591 22.6696 72.8425 22.6754 72.8215C22.6904 72.7677 24.1926 67.4124 23.8812 63.3645C23.8778 63.3193 23.8377 63.2855 23.7918 63.2888C23.7459 63.2921 23.7115 63.3317 23.7149 63.3769C24.0239 67.3958 22.5299 72.7239 22.5149 72.7773C22.5023 72.8211 22.5284 72.8663 22.5729 72.8782C22.5956 72.8849 22.6188 72.881 22.6382 72.8696Z" fill="#21111D"/>
</g>
<defs>
<clipPath id="clip0_1278_1727">
<rect width="114" height="114" fill="white"/>
</clipPath>
</defs>
</svg>
